G04 #@! TF.GenerationSoftware,KiCad,Pcbnew,(5.0.0-rc2-dev-321-g78161b592)*
G04 #@! TF.CreationDate,2018-07-11T23:16:50-06:00*
G04 #@! TF.ProjectId,dc801_sheep,64633830315F73686565702E6B696361,rev?*
G04 #@! TF.SameCoordinates,Original*
G04 #@! TF.FileFunction,Legend,Bot*
G04 #@! TF.FilePolarity,Positive*
%FSLAX46Y46*%
G04 Gerber Fmt 4.6, Leading zero omitted, Abs format (unit mm)*
G04 Created by KiCad (PCBNEW (5.0.0-rc2-dev-321-g78161b592)) date 07/11/18 23:16:50*
%MOMM*%
%LPD*%
G01*
G04 APERTURE LIST*
%ADD10C,0.400000*%
%ADD11C,0.120000*%
%ADD12C,0.150000*%
%ADD13R,1.900000X1.545000*%
%ADD14O,2.100000X2.100000*%
%ADD15C,2.100000*%
%ADD16C,1.924000*%
%ADD17C,1.200000*%
G04 APERTURE END LIST*
D10*
X150277142Y-76194285D02*
X150277142Y-74394285D01*
X149848571Y-74394285D01*
X149591428Y-74480000D01*
X149420000Y-74651428D01*
X149334285Y-74822857D01*
X149248571Y-75165714D01*
X149248571Y-75422857D01*
X149334285Y-75765714D01*
X149420000Y-75937142D01*
X149591428Y-76108571D01*
X149848571Y-76194285D01*
X150277142Y-76194285D01*
X147448571Y-76022857D02*
X147534285Y-76108571D01*
X147791428Y-76194285D01*
X147962857Y-76194285D01*
X148220000Y-76108571D01*
X148391428Y-75937142D01*
X148477142Y-75765714D01*
X148562857Y-75422857D01*
X148562857Y-75165714D01*
X148477142Y-74822857D01*
X148391428Y-74651428D01*
X148220000Y-74480000D01*
X147962857Y-74394285D01*
X147791428Y-74394285D01*
X147534285Y-74480000D01*
X147448571Y-74565714D01*
X146420000Y-75165714D02*
X146591428Y-75080000D01*
X146677142Y-74994285D01*
X146762857Y-74822857D01*
X146762857Y-74737142D01*
X146677142Y-74565714D01*
X146591428Y-74480000D01*
X146420000Y-74394285D01*
X146077142Y-74394285D01*
X145905714Y-74480000D01*
X145820000Y-74565714D01*
X145734285Y-74737142D01*
X145734285Y-74822857D01*
X145820000Y-74994285D01*
X145905714Y-75080000D01*
X146077142Y-75165714D01*
X146420000Y-75165714D01*
X146591428Y-75251428D01*
X146677142Y-75337142D01*
X146762857Y-75508571D01*
X146762857Y-75851428D01*
X146677142Y-76022857D01*
X146591428Y-76108571D01*
X146420000Y-76194285D01*
X146077142Y-76194285D01*
X145905714Y-76108571D01*
X145820000Y-76022857D01*
X145734285Y-75851428D01*
X145734285Y-75508571D01*
X145820000Y-75337142D01*
X145905714Y-75251428D01*
X146077142Y-75165714D01*
X144620000Y-74394285D02*
X144448571Y-74394285D01*
X144277142Y-74480000D01*
X144191428Y-74565714D01*
X144105714Y-74737142D01*
X144020000Y-75080000D01*
X144020000Y-75508571D01*
X144105714Y-75851428D01*
X144191428Y-76022857D01*
X144277142Y-76108571D01*
X144448571Y-76194285D01*
X144620000Y-76194285D01*
X144791428Y-76108571D01*
X144877142Y-76022857D01*
X144962857Y-75851428D01*
X145048571Y-75508571D01*
X145048571Y-75080000D01*
X144962857Y-74737142D01*
X144877142Y-74565714D01*
X144791428Y-74480000D01*
X144620000Y-74394285D01*
X142305714Y-76194285D02*
X143334285Y-76194285D01*
X142820000Y-76194285D02*
X142820000Y-74394285D01*
X142991428Y-74651428D01*
X143162857Y-74822857D01*
X143334285Y-74908571D01*
X141534285Y-76022857D02*
X141448571Y-76108571D01*
X141534285Y-76194285D01*
X141620000Y-76108571D01*
X141534285Y-76022857D01*
X141534285Y-76194285D01*
X140420000Y-76194285D02*
X140591428Y-76108571D01*
X140677142Y-76022857D01*
X140762857Y-75851428D01*
X140762857Y-75337142D01*
X140677142Y-75165714D01*
X140591428Y-75080000D01*
X140420000Y-74994285D01*
X140162857Y-74994285D01*
X139991428Y-75080000D01*
X139905714Y-75165714D01*
X139820000Y-75337142D01*
X139820000Y-75851428D01*
X139905714Y-76022857D01*
X139991428Y-76108571D01*
X140162857Y-76194285D01*
X140420000Y-76194285D01*
X139048571Y-76194285D02*
X139048571Y-74994285D01*
X139048571Y-75337142D02*
X138962857Y-75165714D01*
X138877142Y-75080000D01*
X138705714Y-74994285D01*
X138534285Y-74994285D01*
X137162857Y-74994285D02*
X137162857Y-76451428D01*
X137248571Y-76622857D01*
X137334285Y-76708571D01*
X137505714Y-76794285D01*
X137762857Y-76794285D01*
X137934285Y-76708571D01*
X137162857Y-76108571D02*
X137334285Y-76194285D01*
X137677142Y-76194285D01*
X137848571Y-76108571D01*
X137934285Y-76022857D01*
X138020000Y-75851428D01*
X138020000Y-75337142D01*
X137934285Y-75165714D01*
X137848571Y-75080000D01*
X137677142Y-74994285D01*
X137334285Y-74994285D01*
X137162857Y-75080000D01*
D11*
X152780000Y-84390000D02*
X152780000Y-84090000D01*
X151360000Y-84390000D02*
X151360000Y-84090000D01*
D12*
X154086666Y-84692380D02*
X154420000Y-84216190D01*
X154658095Y-84692380D02*
X154658095Y-83692380D01*
X154277142Y-83692380D01*
X154181904Y-83740000D01*
X154134285Y-83787619D01*
X154086666Y-83882857D01*
X154086666Y-84025714D01*
X154134285Y-84120952D01*
X154181904Y-84168571D01*
X154277142Y-84216190D01*
X154658095Y-84216190D01*
X153134285Y-84692380D02*
X153705714Y-84692380D01*
X153420000Y-84692380D02*
X153420000Y-83692380D01*
X153515238Y-83835238D01*
X153610476Y-83930476D01*
X153705714Y-83978095D01*
%LPC*%
D13*
X152070000Y-85282500D03*
X152070000Y-83197500D03*
D14*
X152010000Y-93370000D03*
X152010000Y-90830000D03*
X154550000Y-93370000D03*
D15*
X154550000Y-90830000D03*
D16*
X150376780Y-89323780D03*
D17*
X141010000Y-79710000D03*
X147250000Y-79710000D03*
X139790000Y-79980000D03*
X146000000Y-79970000D03*
M02*
