G04 #@! TF.GenerationSoftware,KiCad,Pcbnew,(2017-12-24 revision 570866557)-makepkg*
G04 #@! TF.CreationDate,2018-02-26T21:20:21-07:00*
G04 #@! TF.ProjectId,DC801 Shield,444338303120536869656C642E6B6963,rev?*
G04 #@! TF.SameCoordinates,Original*
G04 #@! TF.FileFunction,Soldermask,Bot*
G04 #@! TF.FilePolarity,Negative*
%FSLAX46Y46*%
G04 Gerber Fmt 4.6, Leading zero omitted, Abs format (unit mm)*
G04 Created by KiCad (PCBNEW (2017-12-24 revision 570866557)-makepkg) date 02/26/18 21:20:21*
%MOMM*%
%LPD*%
G01*
G04 APERTURE LIST*
%ADD10C,2.127200*%
%ADD11O,2.127200X2.127200*%
%ADD12C,3.600000*%
G04 APERTURE END LIST*
D10*
X152340000Y-120540000D03*
X149800000Y-120540000D03*
X147260000Y-120540000D03*
X144720000Y-120540000D03*
X142180000Y-120540000D03*
X139640000Y-120540000D03*
X137100000Y-120540000D03*
X134560000Y-120540000D03*
X132020000Y-120540000D03*
X129480000Y-120540000D03*
X126940000Y-120540000D03*
X152340000Y-105300000D03*
X149800000Y-105300000D03*
X147260000Y-105300000D03*
X144720000Y-105300000D03*
X142180000Y-105300000D03*
X139640000Y-105300000D03*
X137100000Y-105300000D03*
X134560000Y-105300000D03*
X132020000Y-105300000D03*
X129480000Y-105300000D03*
X126940000Y-105300000D03*
X124400000Y-120540000D03*
X152340000Y-118000000D03*
X149800000Y-118000000D03*
X147260000Y-118000000D03*
X144720000Y-118000000D03*
X142180000Y-118000000D03*
X139640000Y-118000000D03*
X137100000Y-118000000D03*
X134560000Y-118000000D03*
X132020000Y-118000000D03*
X129480000Y-118000000D03*
X126940000Y-118000000D03*
X124400000Y-118000000D03*
X152340000Y-115460000D03*
X149800000Y-115460000D03*
X147260000Y-115460000D03*
X144720000Y-115460000D03*
X142180000Y-115460000D03*
X139640000Y-115460000D03*
X137100000Y-115460000D03*
X134560000Y-115460000D03*
X132020000Y-115460000D03*
X129480000Y-115460000D03*
X126940000Y-115460000D03*
X124400000Y-115460000D03*
X152340000Y-112920000D03*
X149800000Y-112920000D03*
X147260000Y-112920000D03*
X144720000Y-112920000D03*
X142180000Y-112920000D03*
X139640000Y-112920000D03*
X137100000Y-112920000D03*
X134560000Y-112920000D03*
X132020000Y-112920000D03*
X129480000Y-112920000D03*
X126940000Y-112920000D03*
X124400000Y-112920000D03*
X152340000Y-110380000D03*
X149800000Y-110380000D03*
X147260000Y-110380000D03*
X144720000Y-110380000D03*
X142180000Y-110380000D03*
X139640000Y-110380000D03*
X137100000Y-110380000D03*
X134560000Y-110380000D03*
X132020000Y-110380000D03*
X129480000Y-110380000D03*
X126940000Y-110380000D03*
X124400000Y-110380000D03*
X152340000Y-107840000D03*
X149800000Y-107840000D03*
X147260000Y-107840000D03*
X144720000Y-107840000D03*
X142180000Y-107840000D03*
X139640000Y-107840000D03*
X137100000Y-107840000D03*
X134560000Y-107840000D03*
X132020000Y-107840000D03*
X129480000Y-107840000D03*
X126940000Y-107840000D03*
X124400000Y-107840000D03*
X124400000Y-105300000D03*
X159960000Y-130700000D03*
X159960000Y-128160000D03*
X159960000Y-125620000D03*
X159960000Y-123080000D03*
X159960000Y-120540000D03*
X159960000Y-118000000D03*
X159960000Y-115460000D03*
X159960000Y-112920000D03*
X159960000Y-108856000D03*
X159960000Y-106316000D03*
X159960000Y-103776000D03*
X159960000Y-101236000D03*
X159960000Y-98696000D03*
X159960000Y-96156000D03*
X159960000Y-93616000D03*
X159960000Y-91076000D03*
X159960000Y-88536000D03*
X159960000Y-85996000D03*
X116580000Y-130700000D03*
X116580000Y-128160000D03*
X116580000Y-125620000D03*
X116580000Y-123080000D03*
X116580000Y-120540000D03*
X116580000Y-118000000D03*
X116780000Y-112920000D03*
X116780000Y-110380000D03*
X116780000Y-107840000D03*
X116780000Y-105300000D03*
X116780000Y-102760000D03*
X116780000Y-100220000D03*
X116780000Y-97680000D03*
D11*
X137100000Y-130827000D03*
X137100000Y-133367000D03*
X139640000Y-133367000D03*
X139640000Y-130827000D03*
X142180000Y-133367000D03*
X114240000Y-118000000D03*
X114240000Y-112920000D03*
X114240000Y-110380000D03*
X114240000Y-107840000D03*
X114240000Y-105300000D03*
X114240000Y-102760000D03*
X114240000Y-100220000D03*
X114240000Y-97680000D03*
X162500000Y-130700000D03*
X162500000Y-128160000D03*
X162500000Y-125620000D03*
X162500000Y-123080000D03*
X162500000Y-120540000D03*
X162500000Y-118000000D03*
X162500000Y-115460000D03*
X162500000Y-112920000D03*
X162500000Y-93616000D03*
X162500000Y-108856000D03*
X162500000Y-106316000D03*
X162500000Y-103776000D03*
D12*
X119320000Y-133240000D03*
X147260000Y-133240000D03*
X162500000Y-82440000D03*
X114240000Y-81170000D03*
D11*
X162500000Y-85996000D03*
X162500000Y-88536000D03*
X162500000Y-91076000D03*
X162500000Y-96156000D03*
X162500000Y-98696000D03*
X162500000Y-101236000D03*
X114240000Y-95140000D03*
X114240000Y-120540000D03*
X114240000Y-123080000D03*
X114240000Y-125620000D03*
X114240000Y-128160000D03*
X114240000Y-130700000D03*
X142180000Y-130827000D03*
D10*
X116780000Y-95140000D03*
M02*
