M48
;DRILL file {KiCad (2017-12-24 revision 570866557)-makepkg} date 02/26/18 21:13:25
;FORMAT={3:3/ absolute / metric / suppress leading zeros}
FMAT,2
METRIC,TZ
T1C0.400
T2C1.001
T3C1.016
T4C3.200
%
G90
G05
M71
T1
X117625Y-77975
X117650Y-76025
X117675Y-74025
X128925Y-88075
X130975Y-84100
X131750Y-93200
X133225Y-126475
X133925Y-83775
X135025Y-81200
X141925Y-81425
X142975Y-93000
X143725Y-83950
X145050Y-85350
X146325Y-88225
X152775Y-74000
X152800Y-76000
X154925Y-126525
X154975Y-79775
T2
X144720Y-105300
X139640Y-120540
X116780Y-97680
X116580Y-123080
X149800Y-110380
X124400Y-107840
X137100Y-112920
X159960Y-103776
X159960Y-93616
X152340Y-112920
X132020Y-110380
X139640Y-115460
X129480Y-107840
X126940Y-105300
X137100Y-107840
X149800Y-120540
X134560Y-118000
X139640Y-118000
X129480Y-120540
X147260Y-120540
X116780Y-102760
X116580Y-125620
X124400Y-112920
X139640Y-112920
X159960Y-115460
X159960Y-101236
X124400Y-115460
X142180Y-107840
X149800Y-115460
X147260Y-107840
X132020Y-105300
X152340Y-105300
X147260Y-105300
X144720Y-115460
X116780Y-105300
X147260Y-110380
X159960Y-108856
X142180Y-112920
X159960Y-118000
X142180Y-115460
X134560Y-110380
X124400Y-118000
X132020Y-107840
X149800Y-118000
X144720Y-120540
X132020Y-118000
X147260Y-118000
X152340Y-115460
X149800Y-105300
X116580Y-128160
X116780Y-95140
X129480Y-112920
X159960Y-123080
X116780Y-107840
X126940Y-112920
X159960Y-130700
X144720Y-112920
X159960Y-98696
X132020Y-115460
X126940Y-107840
X129480Y-118000
X144720Y-107840
X129480Y-105300
X147260Y-115460
X142180Y-120540
X142180Y-105300
X126940Y-118000
X137100Y-105300
X116780Y-100220
X139640Y-110380
X124400Y-105300
X116780Y-110380
X152340Y-110380
X149800Y-112920
X159960Y-106316
X124400Y-110380
X159960Y-85996
X126940Y-115460
X139640Y-107840
X137100Y-118000
X132020Y-120540
X124400Y-120540
X142180Y-118000
X137100Y-120540
X152340Y-120540
X134560Y-120540
X116780Y-112920
X142180Y-110380
X159960Y-125620
X132020Y-112920
X159960Y-128160
X159960Y-88536
X137100Y-115460
X159960Y-112920
X129480Y-110380
X159960Y-96156
X129480Y-115460
X149800Y-107840
X144720Y-118000
X126940Y-110380
X126940Y-120540
X139640Y-105300
X134560Y-105300
X116580Y-118000
X144720Y-110380
X116580Y-120540
X134560Y-112920
X159960Y-91076
X147260Y-112920
X159960Y-120540
X134560Y-107840
X116580Y-130700
X134560Y-115460
X137100Y-110380
X152340Y-118000
X152340Y-107840
T3
X114240Y-95140
X114240Y-97680
X114240Y-100220
X114240Y-102760
X114240Y-105300
X114240Y-107840
X114240Y-110380
X114240Y-112920
X114240Y-118000
X114240Y-120540
X114240Y-123080
X114240Y-125620
X114240Y-128160
X114240Y-130700
X137100Y-130827
X137100Y-133367
X139640Y-130827
X139640Y-133367
X142180Y-130827
X142180Y-133367
X162500Y-85996
X162500Y-88536
X162500Y-91076
X162500Y-93616
X162500Y-96156
X162500Y-98696
X162500Y-101236
X162500Y-103776
X162500Y-106316
X162500Y-108856
X162500Y-112920
X162500Y-115460
X162500Y-118000
X162500Y-120540
X162500Y-123080
X162500Y-125620
X162500Y-128160
X162500Y-130700
T4
X114240Y-81170
X119320Y-133240
X147260Y-133240
X162500Y-82440
T0
M30
