G04 #@! TF.GenerationSoftware,KiCad,Pcbnew,(2017-12-24 revision 570866557)-makepkg*
G04 #@! TF.CreationDate,2018-02-26T21:20:21-07:00*
G04 #@! TF.ProjectId,DC801 Shield,444338303120536869656C642E6B6963,rev?*
G04 #@! TF.SameCoordinates,Original*
G04 #@! TF.FileFunction,Copper,L2,Bot,Signal*
G04 #@! TF.FilePolarity,Positive*
%FSLAX46Y46*%
G04 Gerber Fmt 4.6, Leading zero omitted, Abs format (unit mm)*
G04 Created by KiCad (PCBNEW (2017-12-24 revision 570866557)-makepkg) date 02/26/18 21:20:21*
%MOMM*%
%LPD*%
G01*
G04 APERTURE LIST*
%ADD10C,0.300000*%
%ADD11C,1.727200*%
%ADD12O,1.727200X1.727200*%
%ADD13C,0.800000*%
%ADD14C,0.250000*%
%ADD15C,0.254000*%
G04 APERTURE END LIST*
D10*
X155078571Y-69914285D02*
X155150000Y-69842857D01*
X155292857Y-69771428D01*
X155435714Y-69771428D01*
X155578571Y-69842857D01*
X155650000Y-69914285D01*
X155721428Y-70057142D01*
X155721428Y-70200000D01*
X155650000Y-70342857D01*
X155578571Y-70414285D01*
X155435714Y-70485714D01*
X155292857Y-70485714D01*
X155150000Y-70414285D01*
X155078571Y-70342857D01*
X155078571Y-69771428D02*
X155078571Y-70342857D01*
X155007142Y-70414285D01*
X154935714Y-70414285D01*
X154792857Y-70342857D01*
X154721428Y-70200000D01*
X154721428Y-69842857D01*
X154864285Y-69628571D01*
X155078571Y-69485714D01*
X155364285Y-69414285D01*
X155650000Y-69485714D01*
X155864285Y-69628571D01*
X156007142Y-69842857D01*
X156078571Y-70128571D01*
X156007142Y-70414285D01*
X155864285Y-70628571D01*
X155650000Y-70771428D01*
X155364285Y-70842857D01*
X155078571Y-70771428D01*
X154864285Y-70628571D01*
X154078571Y-70628571D02*
X154078571Y-69128571D01*
X153435714Y-70628571D02*
X153435714Y-69842857D01*
X153507142Y-69700000D01*
X153650000Y-69628571D01*
X153864285Y-69628571D01*
X154007142Y-69700000D01*
X154078571Y-69771428D01*
X152078571Y-70628571D02*
X152078571Y-69842857D01*
X152150000Y-69700000D01*
X152292857Y-69628571D01*
X152578571Y-69628571D01*
X152721428Y-69700000D01*
X152078571Y-70557142D02*
X152221428Y-70628571D01*
X152578571Y-70628571D01*
X152721428Y-70557142D01*
X152792857Y-70414285D01*
X152792857Y-70271428D01*
X152721428Y-70128571D01*
X152578571Y-70057142D01*
X152221428Y-70057142D01*
X152078571Y-69985714D01*
X151364285Y-70628571D02*
X151364285Y-69628571D01*
X151364285Y-69771428D02*
X151292857Y-69700000D01*
X151150000Y-69628571D01*
X150935714Y-69628571D01*
X150792857Y-69700000D01*
X150721428Y-69842857D01*
X150721428Y-70628571D01*
X150721428Y-69842857D02*
X150650000Y-69700000D01*
X150507142Y-69628571D01*
X150292857Y-69628571D01*
X150150000Y-69700000D01*
X150078571Y-69842857D01*
X150078571Y-70628571D01*
X149435714Y-70557142D02*
X149292857Y-70628571D01*
X149007142Y-70628571D01*
X148864285Y-70557142D01*
X148792857Y-70414285D01*
X148792857Y-70342857D01*
X148864285Y-70200000D01*
X149007142Y-70128571D01*
X149221428Y-70128571D01*
X149364285Y-70057142D01*
X149435714Y-69914285D01*
X149435714Y-69842857D01*
X149364285Y-69700000D01*
X149221428Y-69628571D01*
X149007142Y-69628571D01*
X148864285Y-69700000D01*
X148364285Y-69628571D02*
X147792857Y-69628571D01*
X148150000Y-69128571D02*
X148150000Y-70414285D01*
X148078571Y-70557142D01*
X147935714Y-70628571D01*
X147792857Y-70628571D01*
X146721428Y-70557142D02*
X146864285Y-70628571D01*
X147150000Y-70628571D01*
X147292857Y-70557142D01*
X147364285Y-70414285D01*
X147364285Y-69842857D01*
X147292857Y-69700000D01*
X147150000Y-69628571D01*
X146864285Y-69628571D01*
X146721428Y-69700000D01*
X146650000Y-69842857D01*
X146650000Y-69985714D01*
X147364285Y-70128571D01*
X146007142Y-70628571D02*
X146007142Y-69628571D01*
X146007142Y-69914285D02*
X145935714Y-69771428D01*
X145864285Y-69700000D01*
X145721428Y-69628571D01*
X145578571Y-69628571D01*
X143935714Y-70057142D02*
X142792857Y-70057142D01*
X140935714Y-70628571D02*
X140935714Y-69128571D01*
X140292857Y-70628571D02*
X140292857Y-69842857D01*
X140364285Y-69700000D01*
X140507142Y-69628571D01*
X140721428Y-69628571D01*
X140864285Y-69700000D01*
X140935714Y-69771428D01*
X138935714Y-70628571D02*
X138935714Y-69842857D01*
X139007142Y-69700000D01*
X139150000Y-69628571D01*
X139435714Y-69628571D01*
X139578571Y-69700000D01*
X138935714Y-70557142D02*
X139078571Y-70628571D01*
X139435714Y-70628571D01*
X139578571Y-70557142D01*
X139650000Y-70414285D01*
X139650000Y-70271428D01*
X139578571Y-70128571D01*
X139435714Y-70057142D01*
X139078571Y-70057142D01*
X138935714Y-69985714D01*
X138221428Y-70628571D02*
X138221428Y-69628571D01*
X138221428Y-69771428D02*
X138150000Y-69700000D01*
X138007142Y-69628571D01*
X137792857Y-69628571D01*
X137650000Y-69700000D01*
X137578571Y-69842857D01*
X137578571Y-70628571D01*
X137578571Y-69842857D02*
X137507142Y-69700000D01*
X137364285Y-69628571D01*
X137150000Y-69628571D01*
X137007142Y-69700000D01*
X136935714Y-69842857D01*
X136935714Y-70628571D01*
X136292857Y-70557142D02*
X136150000Y-70628571D01*
X135864285Y-70628571D01*
X135721428Y-70557142D01*
X135650000Y-70414285D01*
X135650000Y-70342857D01*
X135721428Y-70200000D01*
X135864285Y-70128571D01*
X136078571Y-70128571D01*
X136221428Y-70057142D01*
X136292857Y-69914285D01*
X136292857Y-69842857D01*
X136221428Y-69700000D01*
X136078571Y-69628571D01*
X135864285Y-69628571D01*
X135721428Y-69700000D01*
X135221428Y-69628571D02*
X134650000Y-69628571D01*
X135007142Y-69128571D02*
X135007142Y-70414285D01*
X134935714Y-70557142D01*
X134792857Y-70628571D01*
X134650000Y-70628571D01*
X133578571Y-70557142D02*
X133721428Y-70628571D01*
X134007142Y-70628571D01*
X134150000Y-70557142D01*
X134221428Y-70414285D01*
X134221428Y-69842857D01*
X134150000Y-69700000D01*
X134007142Y-69628571D01*
X133721428Y-69628571D01*
X133578571Y-69700000D01*
X133507142Y-69842857D01*
X133507142Y-69985714D01*
X134221428Y-70128571D01*
X132864285Y-70628571D02*
X132864285Y-69628571D01*
X132864285Y-69914285D02*
X132792857Y-69771428D01*
X132721428Y-69700000D01*
X132578571Y-69628571D01*
X132435714Y-69628571D01*
X130150000Y-69628571D02*
X130150000Y-70628571D01*
X130792857Y-69628571D02*
X130792857Y-70414285D01*
X130721428Y-70557142D01*
X130578571Y-70628571D01*
X130364285Y-70628571D01*
X130221428Y-70557142D01*
X130150000Y-70485714D01*
X129435714Y-69628571D02*
X129435714Y-70628571D01*
X129435714Y-69771428D02*
X129364285Y-69700000D01*
X129221428Y-69628571D01*
X129007142Y-69628571D01*
X128864285Y-69700000D01*
X128792857Y-69842857D01*
X128792857Y-70628571D01*
X128078571Y-70628571D02*
X128078571Y-69628571D01*
X128078571Y-69128571D02*
X128150000Y-69200000D01*
X128078571Y-69271428D01*
X128007142Y-69200000D01*
X128078571Y-69128571D01*
X128078571Y-69271428D01*
X127507142Y-69628571D02*
X127150000Y-70628571D01*
X126792857Y-69628571D01*
X125650000Y-70557142D02*
X125792857Y-70628571D01*
X126078571Y-70628571D01*
X126221428Y-70557142D01*
X126292857Y-70414285D01*
X126292857Y-69842857D01*
X126221428Y-69700000D01*
X126078571Y-69628571D01*
X125792857Y-69628571D01*
X125650000Y-69700000D01*
X125578571Y-69842857D01*
X125578571Y-69985714D01*
X126292857Y-70128571D01*
X124935714Y-70628571D02*
X124935714Y-69628571D01*
X124935714Y-69914285D02*
X124864285Y-69771428D01*
X124792857Y-69700000D01*
X124650000Y-69628571D01*
X124507142Y-69628571D01*
X124078571Y-70557142D02*
X123935714Y-70628571D01*
X123650000Y-70628571D01*
X123507142Y-70557142D01*
X123435714Y-70414285D01*
X123435714Y-70342857D01*
X123507142Y-70200000D01*
X123650000Y-70128571D01*
X123864285Y-70128571D01*
X124007142Y-70057142D01*
X124078571Y-69914285D01*
X124078571Y-69842857D01*
X124007142Y-69700000D01*
X123864285Y-69628571D01*
X123650000Y-69628571D01*
X123507142Y-69700000D01*
X122792857Y-70628571D02*
X122792857Y-69628571D01*
X122792857Y-69128571D02*
X122864285Y-69200000D01*
X122792857Y-69271428D01*
X122721428Y-69200000D01*
X122792857Y-69128571D01*
X122792857Y-69271428D01*
X122292857Y-69628571D02*
X121721428Y-69628571D01*
X122078571Y-69128571D02*
X122078571Y-70414285D01*
X122007142Y-70557142D01*
X121864285Y-70628571D01*
X121721428Y-70628571D01*
X121364285Y-69628571D02*
X121007142Y-70628571D01*
X120650000Y-69628571D02*
X121007142Y-70628571D01*
X121150000Y-70985714D01*
X121221428Y-71057142D01*
X121364285Y-71128571D01*
X163328571Y-73178571D02*
X163328571Y-71678571D01*
X162685714Y-73178571D02*
X162685714Y-72392857D01*
X162757142Y-72250000D01*
X162900000Y-72178571D01*
X163114285Y-72178571D01*
X163257142Y-72250000D01*
X163328571Y-72321428D01*
X162185714Y-72178571D02*
X161614285Y-72178571D01*
X161971428Y-71678571D02*
X161971428Y-72964285D01*
X161900000Y-73107142D01*
X161757142Y-73178571D01*
X161614285Y-73178571D01*
X161328571Y-72178571D02*
X160757142Y-72178571D01*
X161114285Y-71678571D02*
X161114285Y-72964285D01*
X161042857Y-73107142D01*
X160900000Y-73178571D01*
X160757142Y-73178571D01*
X160257142Y-72178571D02*
X160257142Y-73678571D01*
X160257142Y-72250000D02*
X160114285Y-72178571D01*
X159828571Y-72178571D01*
X159685714Y-72250000D01*
X159614285Y-72321428D01*
X159542857Y-72464285D01*
X159542857Y-72892857D01*
X159614285Y-73035714D01*
X159685714Y-73107142D01*
X159828571Y-73178571D01*
X160114285Y-73178571D01*
X160257142Y-73107142D01*
X158971428Y-73107142D02*
X158828571Y-73178571D01*
X158542857Y-73178571D01*
X158400000Y-73107142D01*
X158328571Y-72964285D01*
X158328571Y-72892857D01*
X158400000Y-72750000D01*
X158542857Y-72678571D01*
X158757142Y-72678571D01*
X158900000Y-72607142D01*
X158971428Y-72464285D01*
X158971428Y-72392857D01*
X158900000Y-72250000D01*
X158757142Y-72178571D01*
X158542857Y-72178571D01*
X158400000Y-72250000D01*
X157685714Y-73035714D02*
X157614285Y-73107142D01*
X157685714Y-73178571D01*
X157757142Y-73107142D01*
X157685714Y-73035714D01*
X157685714Y-73178571D01*
X157685714Y-72250000D02*
X157614285Y-72321428D01*
X157685714Y-72392857D01*
X157757142Y-72321428D01*
X157685714Y-72250000D01*
X157685714Y-72392857D01*
X155900000Y-71607142D02*
X157185714Y-73535714D01*
X154328571Y-71607142D02*
X155614285Y-73535714D01*
X153185714Y-72178571D02*
X153185714Y-73392857D01*
X153257142Y-73535714D01*
X153328571Y-73607142D01*
X153471428Y-73678571D01*
X153685714Y-73678571D01*
X153828571Y-73607142D01*
X153185714Y-73107142D02*
X153328571Y-73178571D01*
X153614285Y-73178571D01*
X153757142Y-73107142D01*
X153828571Y-73035714D01*
X153900000Y-72892857D01*
X153900000Y-72464285D01*
X153828571Y-72321428D01*
X153757142Y-72250000D01*
X153614285Y-72178571D01*
X153328571Y-72178571D01*
X153185714Y-72250000D01*
X152471428Y-73178571D02*
X152471428Y-72178571D01*
X152471428Y-71678571D02*
X152542857Y-71750000D01*
X152471428Y-71821428D01*
X152400000Y-71750000D01*
X152471428Y-71678571D01*
X152471428Y-71821428D01*
X151971428Y-72178571D02*
X151400000Y-72178571D01*
X151757142Y-71678571D02*
X151757142Y-72964285D01*
X151685714Y-73107142D01*
X151542857Y-73178571D01*
X151400000Y-73178571D01*
X150900000Y-73178571D02*
X150900000Y-71678571D01*
X150257142Y-73178571D02*
X150257142Y-72392857D01*
X150328571Y-72250000D01*
X150471428Y-72178571D01*
X150685714Y-72178571D01*
X150828571Y-72250000D01*
X150900000Y-72321428D01*
X148900000Y-72178571D02*
X148900000Y-73178571D01*
X149542857Y-72178571D02*
X149542857Y-72964285D01*
X149471428Y-73107142D01*
X149328571Y-73178571D01*
X149114285Y-73178571D01*
X148971428Y-73107142D01*
X148900000Y-73035714D01*
X148185714Y-73178571D02*
X148185714Y-71678571D01*
X148185714Y-72250000D02*
X148042857Y-72178571D01*
X147757142Y-72178571D01*
X147614285Y-72250000D01*
X147542857Y-72321428D01*
X147471428Y-72464285D01*
X147471428Y-72892857D01*
X147542857Y-73035714D01*
X147614285Y-73107142D01*
X147757142Y-73178571D01*
X148042857Y-73178571D01*
X148185714Y-73107142D01*
X146828571Y-73035714D02*
X146757142Y-73107142D01*
X146828571Y-73178571D01*
X146900000Y-73107142D01*
X146828571Y-73035714D01*
X146828571Y-73178571D01*
X145471428Y-73107142D02*
X145614285Y-73178571D01*
X145900000Y-73178571D01*
X146042857Y-73107142D01*
X146114285Y-73035714D01*
X146185714Y-72892857D01*
X146185714Y-72464285D01*
X146114285Y-72321428D01*
X146042857Y-72250000D01*
X145900000Y-72178571D01*
X145614285Y-72178571D01*
X145471428Y-72250000D01*
X144614285Y-73178571D02*
X144757142Y-73107142D01*
X144828571Y-73035714D01*
X144900000Y-72892857D01*
X144900000Y-72464285D01*
X144828571Y-72321428D01*
X144757142Y-72250000D01*
X144614285Y-72178571D01*
X144400000Y-72178571D01*
X144257142Y-72250000D01*
X144185714Y-72321428D01*
X144114285Y-72464285D01*
X144114285Y-72892857D01*
X144185714Y-73035714D01*
X144257142Y-73107142D01*
X144400000Y-73178571D01*
X144614285Y-73178571D01*
X143471428Y-73178571D02*
X143471428Y-72178571D01*
X143471428Y-72321428D02*
X143400000Y-72250000D01*
X143257142Y-72178571D01*
X143042857Y-72178571D01*
X142900000Y-72250000D01*
X142828571Y-72392857D01*
X142828571Y-73178571D01*
X142828571Y-72392857D02*
X142757142Y-72250000D01*
X142614285Y-72178571D01*
X142400000Y-72178571D01*
X142257142Y-72250000D01*
X142185714Y-72392857D01*
X142185714Y-73178571D01*
X140400000Y-71607142D02*
X141685714Y-73535714D01*
X139257142Y-73107142D02*
X139400000Y-73178571D01*
X139685714Y-73178571D01*
X139828571Y-73107142D01*
X139900000Y-73035714D01*
X139971428Y-72892857D01*
X139971428Y-72464285D01*
X139900000Y-72321428D01*
X139828571Y-72250000D01*
X139685714Y-72178571D01*
X139400000Y-72178571D01*
X139257142Y-72250000D01*
X137971428Y-73178571D02*
X137971428Y-72392857D01*
X138042857Y-72250000D01*
X138185714Y-72178571D01*
X138471428Y-72178571D01*
X138614285Y-72250000D01*
X137971428Y-73107142D02*
X138114285Y-73178571D01*
X138471428Y-73178571D01*
X138614285Y-73107142D01*
X138685714Y-72964285D01*
X138685714Y-72821428D01*
X138614285Y-72678571D01*
X138471428Y-72607142D01*
X138114285Y-72607142D01*
X137971428Y-72535714D01*
X137400000Y-72178571D02*
X137042857Y-73178571D01*
X136685714Y-72178571D01*
X135542857Y-73107142D02*
X135685714Y-73178571D01*
X135971428Y-73178571D01*
X136114285Y-73107142D01*
X136185714Y-72964285D01*
X136185714Y-72392857D01*
X136114285Y-72250000D01*
X135971428Y-72178571D01*
X135685714Y-72178571D01*
X135542857Y-72250000D01*
X135471428Y-72392857D01*
X135471428Y-72535714D01*
X136185714Y-72678571D01*
X134828571Y-73178571D02*
X134828571Y-71678571D01*
X134185714Y-73178571D02*
X134185714Y-72392857D01*
X134257142Y-72250000D01*
X134400000Y-72178571D01*
X134614285Y-72178571D01*
X134757142Y-72250000D01*
X134828571Y-72321428D01*
X132828571Y-73178571D02*
X132828571Y-72392857D01*
X132899999Y-72250000D01*
X133042857Y-72178571D01*
X133328571Y-72178571D01*
X133471428Y-72250000D01*
X132828571Y-73107142D02*
X132971428Y-73178571D01*
X133328571Y-73178571D01*
X133471428Y-73107142D01*
X133542857Y-72964285D01*
X133542857Y-72821428D01*
X133471428Y-72678571D01*
X133328571Y-72607142D01*
X132971428Y-72607142D01*
X132828571Y-72535714D01*
X132114285Y-73178571D02*
X132114285Y-72178571D01*
X132114285Y-72321428D02*
X132042857Y-72250000D01*
X131899999Y-72178571D01*
X131685714Y-72178571D01*
X131542857Y-72250000D01*
X131471428Y-72392857D01*
X131471428Y-73178571D01*
X131471428Y-72392857D02*
X131399999Y-72250000D01*
X131257142Y-72178571D01*
X131042857Y-72178571D01*
X130899999Y-72250000D01*
X130828571Y-72392857D01*
X130828571Y-73178571D01*
X130185714Y-73107142D02*
X130042857Y-73178571D01*
X129757142Y-73178571D01*
X129614285Y-73107142D01*
X129542857Y-72964285D01*
X129542857Y-72892857D01*
X129614285Y-72750000D01*
X129757142Y-72678571D01*
X129971428Y-72678571D01*
X130114285Y-72607142D01*
X130185714Y-72464285D01*
X130185714Y-72392857D01*
X130114285Y-72250000D01*
X129971428Y-72178571D01*
X129757142Y-72178571D01*
X129614285Y-72250000D01*
X129114285Y-72178571D02*
X128542857Y-72178571D01*
X128899999Y-71678571D02*
X128899999Y-72964285D01*
X128828571Y-73107142D01*
X128685714Y-73178571D01*
X128542857Y-73178571D01*
X127471428Y-73107142D02*
X127614285Y-73178571D01*
X127899999Y-73178571D01*
X128042857Y-73107142D01*
X128114285Y-72964285D01*
X128114285Y-72392857D01*
X128042857Y-72250000D01*
X127899999Y-72178571D01*
X127614285Y-72178571D01*
X127471428Y-72250000D01*
X127399999Y-72392857D01*
X127399999Y-72535714D01*
X128114285Y-72678571D01*
X126757142Y-73178571D02*
X126757142Y-72178571D01*
X126757142Y-72464285D02*
X126685714Y-72321428D01*
X126614285Y-72250000D01*
X126471428Y-72178571D01*
X126328571Y-72178571D01*
X124757142Y-71607142D02*
X126042857Y-73535714D01*
X123614285Y-73107142D02*
X123757142Y-73178571D01*
X124042857Y-73178571D01*
X124185714Y-73107142D01*
X124257142Y-73035714D01*
X124328571Y-72892857D01*
X124328571Y-72464285D01*
X124257142Y-72321428D01*
X124185714Y-72250000D01*
X124042857Y-72178571D01*
X123757142Y-72178571D01*
X123614285Y-72250000D01*
X122757142Y-73178571D02*
X122899999Y-73107142D01*
X122971428Y-72964285D01*
X122971428Y-71678571D01*
X121542857Y-73178571D02*
X121542857Y-72392857D01*
X121614285Y-72250000D01*
X121757142Y-72178571D01*
X122042857Y-72178571D01*
X122185714Y-72250000D01*
X121542857Y-73107142D02*
X121685714Y-73178571D01*
X122042857Y-73178571D01*
X122185714Y-73107142D01*
X122257142Y-72964285D01*
X122257142Y-72821428D01*
X122185714Y-72678571D01*
X122042857Y-72607142D01*
X121685714Y-72607142D01*
X121542857Y-72535714D01*
X120899999Y-73107142D02*
X120757142Y-73178571D01*
X120471428Y-73178571D01*
X120328571Y-73107142D01*
X120257142Y-72964285D01*
X120257142Y-72892857D01*
X120328571Y-72750000D01*
X120471428Y-72678571D01*
X120685714Y-72678571D01*
X120828571Y-72607142D01*
X120899999Y-72464285D01*
X120899999Y-72392857D01*
X120828571Y-72250000D01*
X120685714Y-72178571D01*
X120471428Y-72178571D01*
X120328571Y-72250000D01*
X119685714Y-73107142D02*
X119542857Y-73178571D01*
X119257142Y-73178571D01*
X119114285Y-73107142D01*
X119042857Y-72964285D01*
X119042857Y-72892857D01*
X119114285Y-72750000D01*
X119257142Y-72678571D01*
X119471428Y-72678571D01*
X119614285Y-72607142D01*
X119685714Y-72464285D01*
X119685714Y-72392857D01*
X119614285Y-72250000D01*
X119471428Y-72178571D01*
X119257142Y-72178571D01*
X119114285Y-72250000D01*
X118399999Y-73178571D02*
X118399999Y-72178571D01*
X118399999Y-72464285D02*
X118328571Y-72321428D01*
X118257142Y-72250000D01*
X118114285Y-72178571D01*
X117971428Y-72178571D01*
X117257142Y-73178571D02*
X117399999Y-73107142D01*
X117471428Y-73035714D01*
X117542857Y-72892857D01*
X117542857Y-72464285D01*
X117471428Y-72321428D01*
X117399999Y-72250000D01*
X117257142Y-72178571D01*
X117042857Y-72178571D01*
X116899999Y-72250000D01*
X116828571Y-72321428D01*
X116757142Y-72464285D01*
X116757142Y-72892857D01*
X116828571Y-73035714D01*
X116899999Y-73107142D01*
X117042857Y-73178571D01*
X117257142Y-73178571D01*
X115899999Y-73178571D02*
X116042857Y-73107142D01*
X116114285Y-73035714D01*
X116185714Y-72892857D01*
X116185714Y-72464285D01*
X116114285Y-72321428D01*
X116042857Y-72250000D01*
X115899999Y-72178571D01*
X115685714Y-72178571D01*
X115542857Y-72250000D01*
X115471428Y-72321428D01*
X115399999Y-72464285D01*
X115399999Y-72892857D01*
X115471428Y-73035714D01*
X115542857Y-73107142D01*
X115685714Y-73178571D01*
X115899999Y-73178571D01*
X114757142Y-73178571D02*
X114757142Y-72178571D01*
X114757142Y-72321428D02*
X114685714Y-72250000D01*
X114542857Y-72178571D01*
X114328571Y-72178571D01*
X114185714Y-72250000D01*
X114114285Y-72392857D01*
X114114285Y-73178571D01*
X114114285Y-72392857D02*
X114042857Y-72250000D01*
X113899999Y-72178571D01*
X113685714Y-72178571D01*
X113542857Y-72250000D01*
X113471428Y-72392857D01*
X113471428Y-73178571D01*
D11*
X152340000Y-120540000D03*
X149800000Y-120540000D03*
X147260000Y-120540000D03*
X144720000Y-120540000D03*
X142180000Y-120540000D03*
X139640000Y-120540000D03*
X137100000Y-120540000D03*
X134560000Y-120540000D03*
X132020000Y-120540000D03*
X129480000Y-120540000D03*
X126940000Y-120540000D03*
X152340000Y-105300000D03*
X149800000Y-105300000D03*
X147260000Y-105300000D03*
X144720000Y-105300000D03*
X142180000Y-105300000D03*
X139640000Y-105300000D03*
X137100000Y-105300000D03*
X134560000Y-105300000D03*
X132020000Y-105300000D03*
X129480000Y-105300000D03*
X126940000Y-105300000D03*
X124400000Y-120540000D03*
X152340000Y-118000000D03*
X149800000Y-118000000D03*
X147260000Y-118000000D03*
X144720000Y-118000000D03*
X142180000Y-118000000D03*
X139640000Y-118000000D03*
X137100000Y-118000000D03*
X134560000Y-118000000D03*
X132020000Y-118000000D03*
X129480000Y-118000000D03*
X126940000Y-118000000D03*
X124400000Y-118000000D03*
X152340000Y-115460000D03*
X149800000Y-115460000D03*
X147260000Y-115460000D03*
X144720000Y-115460000D03*
X142180000Y-115460000D03*
X139640000Y-115460000D03*
X137100000Y-115460000D03*
X134560000Y-115460000D03*
X132020000Y-115460000D03*
X129480000Y-115460000D03*
X126940000Y-115460000D03*
X124400000Y-115460000D03*
X152340000Y-112920000D03*
X149800000Y-112920000D03*
X147260000Y-112920000D03*
X144720000Y-112920000D03*
X142180000Y-112920000D03*
X139640000Y-112920000D03*
X137100000Y-112920000D03*
X134560000Y-112920000D03*
X132020000Y-112920000D03*
X129480000Y-112920000D03*
X126940000Y-112920000D03*
X124400000Y-112920000D03*
X152340000Y-110380000D03*
X149800000Y-110380000D03*
X147260000Y-110380000D03*
X144720000Y-110380000D03*
X142180000Y-110380000D03*
X139640000Y-110380000D03*
X137100000Y-110380000D03*
X134560000Y-110380000D03*
X132020000Y-110380000D03*
X129480000Y-110380000D03*
X126940000Y-110380000D03*
X124400000Y-110380000D03*
X152340000Y-107840000D03*
X149800000Y-107840000D03*
X147260000Y-107840000D03*
X144720000Y-107840000D03*
X142180000Y-107840000D03*
X139640000Y-107840000D03*
X137100000Y-107840000D03*
X134560000Y-107840000D03*
X132020000Y-107840000D03*
X129480000Y-107840000D03*
X126940000Y-107840000D03*
X124400000Y-107840000D03*
X124400000Y-105300000D03*
X159960000Y-130700000D03*
X159960000Y-128160000D03*
X159960000Y-125620000D03*
X159960000Y-123080000D03*
X159960000Y-120540000D03*
X159960000Y-118000000D03*
X159960000Y-115460000D03*
X159960000Y-112920000D03*
X159960000Y-108856000D03*
X159960000Y-106316000D03*
X159960000Y-103776000D03*
X159960000Y-101236000D03*
X159960000Y-98696000D03*
X159960000Y-96156000D03*
X159960000Y-93616000D03*
X159960000Y-91076000D03*
X159960000Y-88536000D03*
X159960000Y-85996000D03*
X116580000Y-130700000D03*
X116580000Y-128160000D03*
X116580000Y-125620000D03*
X116580000Y-123080000D03*
X116580000Y-120540000D03*
X116580000Y-118000000D03*
X116780000Y-112920000D03*
X116780000Y-110380000D03*
X116780000Y-107840000D03*
X116780000Y-105300000D03*
X116780000Y-102760000D03*
X116780000Y-100220000D03*
X116780000Y-97680000D03*
D12*
X137100000Y-130827000D03*
X137100000Y-133367000D03*
X139640000Y-133367000D03*
X139640000Y-130827000D03*
X142180000Y-133367000D03*
X114240000Y-118000000D03*
X114240000Y-112920000D03*
X114240000Y-110380000D03*
X114240000Y-107840000D03*
X114240000Y-105300000D03*
X114240000Y-102760000D03*
X114240000Y-100220000D03*
X114240000Y-97680000D03*
X162500000Y-130700000D03*
X162500000Y-128160000D03*
X162500000Y-125620000D03*
X162500000Y-123080000D03*
X162500000Y-120540000D03*
X162500000Y-118000000D03*
X162500000Y-115460000D03*
X162500000Y-112920000D03*
X162500000Y-93616000D03*
X162500000Y-108856000D03*
X162500000Y-106316000D03*
X162500000Y-103776000D03*
X162500000Y-85996000D03*
X162500000Y-88536000D03*
X162500000Y-91076000D03*
X162500000Y-96156000D03*
X162500000Y-98696000D03*
X162500000Y-101236000D03*
X114240000Y-95140000D03*
X114240000Y-120540000D03*
X114240000Y-123080000D03*
X114240000Y-125620000D03*
X114240000Y-128160000D03*
X114240000Y-130700000D03*
X142180000Y-130827000D03*
D11*
X116780000Y-95140000D03*
D13*
X130975000Y-84100000D03*
X117625000Y-77975000D03*
X133925000Y-83775000D03*
X117650000Y-76025000D03*
X135025000Y-81200000D03*
X117675000Y-74025000D03*
X141925000Y-81425000D03*
X152775000Y-74000000D03*
X143725000Y-83950000D03*
X152800000Y-76000000D03*
X145050000Y-85350000D03*
X154975000Y-79775000D03*
X154925000Y-126525000D03*
X133225000Y-126475000D03*
X131750000Y-93200000D03*
X142975000Y-93000000D03*
X128925000Y-88075000D03*
X146325000Y-88225000D03*
D14*
X130975000Y-79200000D02*
X130975000Y-84100000D01*
X129850000Y-78075000D02*
X130975000Y-79200000D01*
X117725000Y-78075000D02*
X129850000Y-78075000D01*
X117625000Y-77975000D02*
X117725000Y-78075000D01*
X133925000Y-78225000D02*
X133925000Y-83775000D01*
X132350000Y-76650000D02*
X133925000Y-78225000D01*
X118275000Y-76650000D02*
X132350000Y-76650000D01*
X117650000Y-76025000D02*
X118275000Y-76650000D01*
X135025000Y-77550000D02*
X135025000Y-81200000D01*
X133025000Y-75550000D02*
X135025000Y-77550000D01*
X119200000Y-75550000D02*
X133025000Y-75550000D01*
X117675000Y-74025000D02*
X119200000Y-75550000D01*
X141925000Y-79325000D02*
X141925000Y-81425000D01*
X147250000Y-74000000D02*
X141925000Y-79325000D01*
X152775000Y-74000000D02*
X147250000Y-74000000D01*
X143825000Y-83950000D02*
X143725000Y-83950000D01*
X144050000Y-83725000D02*
X143825000Y-83950000D01*
X144050000Y-79800000D02*
X144050000Y-83725000D01*
X147850000Y-76000000D02*
X144050000Y-79800000D01*
X152800000Y-76000000D02*
X147850000Y-76000000D01*
X145050000Y-80450000D02*
X145050000Y-85350000D01*
X145950000Y-79550000D02*
X145050000Y-80450000D01*
X154750000Y-79550000D02*
X145950000Y-79550000D01*
X154975000Y-79775000D02*
X154750000Y-79550000D01*
X151900000Y-99025000D02*
X156651000Y-103776000D01*
X156651000Y-103776000D02*
X162500000Y-103776000D01*
X137575000Y-99025000D02*
X151900000Y-99025000D01*
X131750000Y-93200000D02*
X137575000Y-99025000D01*
X150325000Y-94150000D02*
X157411000Y-101236000D01*
X157411000Y-101236000D02*
X162500000Y-101236000D01*
X144125000Y-94150000D02*
X150325000Y-94150000D01*
X142975000Y-93000000D02*
X144125000Y-94150000D01*
X149525000Y-90025000D02*
X130875000Y-90025000D01*
X158150000Y-98650000D02*
X162454000Y-98650000D01*
X162454000Y-98650000D02*
X162500000Y-98696000D01*
X149525000Y-90025000D02*
X158150000Y-98650000D01*
X128925000Y-88075000D02*
X130875000Y-90025000D01*
X146975000Y-88875000D02*
X150675000Y-88875000D01*
X146325000Y-88225000D02*
X146975000Y-88875000D01*
X150675000Y-88875000D02*
X157956000Y-96156000D01*
X157956000Y-96156000D02*
X162500000Y-96156000D01*
D15*
G36*
X116797058Y-74610515D02*
X117087954Y-74901919D01*
X117372158Y-75019931D01*
X117064485Y-75147058D01*
X116773081Y-75437954D01*
X116615180Y-75818223D01*
X116614821Y-76229971D01*
X116772058Y-76610515D01*
X117062954Y-76901919D01*
X117286803Y-76994869D01*
X117039485Y-77097058D01*
X116748081Y-77387954D01*
X116590180Y-77768223D01*
X116589821Y-78179971D01*
X116747058Y-78560515D01*
X117037954Y-78851919D01*
X117418223Y-79009820D01*
X117829971Y-79010179D01*
X118210515Y-78852942D01*
X118228488Y-78835000D01*
X129535198Y-78835000D01*
X130215000Y-79514802D01*
X130215000Y-83396239D01*
X130098081Y-83512954D01*
X129940180Y-83893223D01*
X129939821Y-84304971D01*
X130097058Y-84685515D01*
X130387954Y-84976919D01*
X130768223Y-85134820D01*
X131179971Y-85135179D01*
X131560515Y-84977942D01*
X131851919Y-84687046D01*
X132009820Y-84306777D01*
X132010179Y-83895029D01*
X131852942Y-83514485D01*
X131735000Y-83396337D01*
X131735000Y-79200000D01*
X131697171Y-79009820D01*
X131677148Y-78909160D01*
X131512401Y-78662599D01*
X130387401Y-77537599D01*
X130196435Y-77410000D01*
X132035198Y-77410000D01*
X133165000Y-78539802D01*
X133165000Y-83071239D01*
X133048081Y-83187954D01*
X132890180Y-83568223D01*
X132889821Y-83979971D01*
X133047058Y-84360515D01*
X133337954Y-84651919D01*
X133718223Y-84809820D01*
X134129971Y-84810179D01*
X134510515Y-84652942D01*
X134801919Y-84362046D01*
X134959820Y-83981777D01*
X134960179Y-83570029D01*
X134802942Y-83189485D01*
X134685000Y-83071337D01*
X134685000Y-82179501D01*
X134818223Y-82234820D01*
X135229971Y-82235179D01*
X135610515Y-82077942D01*
X135901919Y-81787046D01*
X136059820Y-81406777D01*
X136060179Y-80995029D01*
X135902942Y-80614485D01*
X135785000Y-80496337D01*
X135785000Y-77550000D01*
X135727148Y-77259161D01*
X135562401Y-77012599D01*
X133562401Y-75012599D01*
X133315839Y-74847852D01*
X133025000Y-74790000D01*
X119514802Y-74790000D01*
X119254802Y-74530000D01*
X145645198Y-74530000D01*
X141387599Y-78787599D01*
X141222852Y-79034161D01*
X141165000Y-79325000D01*
X141165000Y-80721239D01*
X141048081Y-80837954D01*
X140890180Y-81218223D01*
X140889821Y-81629971D01*
X141047058Y-82010515D01*
X141337954Y-82301919D01*
X141718223Y-82459820D01*
X142129971Y-82460179D01*
X142510515Y-82302942D01*
X142801919Y-82012046D01*
X142959820Y-81631777D01*
X142960179Y-81220029D01*
X142802942Y-80839485D01*
X142685000Y-80721337D01*
X142685000Y-79639802D01*
X147564802Y-74760000D01*
X152071239Y-74760000D01*
X152187954Y-74876919D01*
X152497096Y-75005286D01*
X152214485Y-75122058D01*
X152096337Y-75240000D01*
X147850000Y-75240000D01*
X147559161Y-75297852D01*
X147312599Y-75462599D01*
X143512599Y-79262599D01*
X143347852Y-79509161D01*
X143290000Y-79800000D01*
X143290000Y-83009867D01*
X143139485Y-83072058D01*
X142848081Y-83362954D01*
X142690180Y-83743223D01*
X142689821Y-84154971D01*
X142847058Y-84535515D01*
X143137954Y-84826919D01*
X143518223Y-84984820D01*
X143929971Y-84985179D01*
X144112044Y-84909948D01*
X144015180Y-85143223D01*
X144014821Y-85554971D01*
X144172058Y-85935515D01*
X144462954Y-86226919D01*
X144843223Y-86384820D01*
X145254971Y-86385179D01*
X145635515Y-86227942D01*
X145926919Y-85937046D01*
X146084820Y-85556777D01*
X146085179Y-85145029D01*
X145927942Y-84764485D01*
X145810000Y-84646337D01*
X145810000Y-80764802D01*
X146264802Y-80310000D01*
X154076186Y-80310000D01*
X154097058Y-80360515D01*
X154387954Y-80651919D01*
X154768223Y-80809820D01*
X155179971Y-80810179D01*
X155560515Y-80652942D01*
X155851919Y-80362046D01*
X156009820Y-79981777D01*
X156010179Y-79570029D01*
X155852942Y-79189485D01*
X155562046Y-78898081D01*
X155181777Y-78740180D01*
X154770029Y-78739821D01*
X154648586Y-78790000D01*
X146134802Y-78790000D01*
X148164802Y-76760000D01*
X152096239Y-76760000D01*
X152212954Y-76876919D01*
X152593223Y-77034820D01*
X153004971Y-77035179D01*
X153385515Y-76877942D01*
X153676919Y-76587046D01*
X153834820Y-76206777D01*
X153835179Y-75795029D01*
X153677942Y-75414485D01*
X153387046Y-75123081D01*
X153077904Y-74994714D01*
X153360515Y-74877942D01*
X153651919Y-74587046D01*
X153675606Y-74530000D01*
X164340000Y-74530000D01*
X164340000Y-81119685D01*
X163767679Y-80546364D01*
X162946519Y-80205389D01*
X162057381Y-80204613D01*
X161235628Y-80544155D01*
X160606364Y-81172321D01*
X160265389Y-81993481D01*
X160264613Y-82882619D01*
X160604155Y-83704372D01*
X161232321Y-84333636D01*
X161889800Y-84606645D01*
X161440330Y-84906971D01*
X161249510Y-85192553D01*
X161231192Y-85148220D01*
X160809997Y-84726290D01*
X160259398Y-84497661D01*
X159663218Y-84497141D01*
X159112220Y-84724808D01*
X158690290Y-85146003D01*
X158461661Y-85696602D01*
X158461141Y-86292782D01*
X158688808Y-86843780D01*
X159110003Y-87265710D01*
X159110931Y-87266095D01*
X158690290Y-87686003D01*
X158461661Y-88236602D01*
X158461141Y-88832782D01*
X158688808Y-89383780D01*
X159110003Y-89805710D01*
X159110931Y-89806095D01*
X158690290Y-90226003D01*
X158461661Y-90776602D01*
X158461141Y-91372782D01*
X158688808Y-91923780D01*
X159110003Y-92345710D01*
X159110931Y-92346095D01*
X158690290Y-92766003D01*
X158461661Y-93316602D01*
X158461141Y-93912782D01*
X158688808Y-94463780D01*
X159110003Y-94885710D01*
X159110931Y-94886095D01*
X158690290Y-95306003D01*
X158652920Y-95396000D01*
X158270802Y-95396000D01*
X151212401Y-88337599D01*
X150965839Y-88172852D01*
X150675000Y-88115000D01*
X147360096Y-88115000D01*
X147360179Y-88020029D01*
X147202942Y-87639485D01*
X146912046Y-87348081D01*
X146531777Y-87190180D01*
X146120029Y-87189821D01*
X145739485Y-87347058D01*
X145448081Y-87637954D01*
X145290180Y-88018223D01*
X145289821Y-88429971D01*
X145447058Y-88810515D01*
X145737954Y-89101919D01*
X146118223Y-89259820D01*
X146285164Y-89259966D01*
X146290198Y-89265000D01*
X131189802Y-89265000D01*
X129960035Y-88035233D01*
X129960179Y-87870029D01*
X129802942Y-87489485D01*
X129512046Y-87198081D01*
X129131777Y-87040180D01*
X128720029Y-87039821D01*
X128339485Y-87197058D01*
X128048081Y-87487954D01*
X127890180Y-87868223D01*
X127889821Y-88279971D01*
X128047058Y-88660515D01*
X128337954Y-88951919D01*
X128718223Y-89109820D01*
X128885164Y-89109966D01*
X130337599Y-90562401D01*
X130584160Y-90727148D01*
X130632414Y-90736746D01*
X130875000Y-90785000D01*
X149210198Y-90785000D01*
X157612599Y-99187401D01*
X157859161Y-99352148D01*
X158150000Y-99410000D01*
X158633531Y-99410000D01*
X158688808Y-99543780D01*
X159110003Y-99965710D01*
X159110931Y-99966095D01*
X158690290Y-100386003D01*
X158652920Y-100476000D01*
X157725802Y-100476000D01*
X150862401Y-93612599D01*
X150615839Y-93447852D01*
X150325000Y-93390000D01*
X144439802Y-93390000D01*
X144010035Y-92960233D01*
X144010179Y-92795029D01*
X143852942Y-92414485D01*
X143562046Y-92123081D01*
X143181777Y-91965180D01*
X142770029Y-91964821D01*
X142389485Y-92122058D01*
X142098081Y-92412954D01*
X141940180Y-92793223D01*
X141939821Y-93204971D01*
X142097058Y-93585515D01*
X142387954Y-93876919D01*
X142768223Y-94034820D01*
X142935164Y-94034966D01*
X143587599Y-94687401D01*
X143834161Y-94852148D01*
X144125000Y-94910000D01*
X150010198Y-94910000D01*
X156873599Y-101773401D01*
X157120160Y-101938148D01*
X157411000Y-101996000D01*
X158652538Y-101996000D01*
X158688808Y-102083780D01*
X159110003Y-102505710D01*
X159110931Y-102506095D01*
X158690290Y-102926003D01*
X158652920Y-103016000D01*
X156965802Y-103016000D01*
X152437401Y-98487599D01*
X152190839Y-98322852D01*
X151900000Y-98265000D01*
X137889802Y-98265000D01*
X132785035Y-93160233D01*
X132785179Y-92995029D01*
X132627942Y-92614485D01*
X132337046Y-92323081D01*
X131956777Y-92165180D01*
X131545029Y-92164821D01*
X131164485Y-92322058D01*
X130873081Y-92612954D01*
X130715180Y-92993223D01*
X130714821Y-93404971D01*
X130872058Y-93785515D01*
X131162954Y-94076919D01*
X131543223Y-94234820D01*
X131710164Y-94234966D01*
X137037599Y-99562401D01*
X137284161Y-99727148D01*
X137575000Y-99785000D01*
X151585198Y-99785000D01*
X156113599Y-104313401D01*
X156360161Y-104478148D01*
X156651000Y-104536000D01*
X158652538Y-104536000D01*
X158688808Y-104623780D01*
X159110003Y-105045710D01*
X159110931Y-105046095D01*
X158690290Y-105466003D01*
X158461661Y-106016602D01*
X158461141Y-106612782D01*
X158688808Y-107163780D01*
X159110003Y-107585710D01*
X159110931Y-107586095D01*
X158690290Y-108006003D01*
X158461661Y-108556602D01*
X158461141Y-109152782D01*
X158688808Y-109703780D01*
X159110003Y-110125710D01*
X159660602Y-110354339D01*
X160256782Y-110354859D01*
X160807780Y-110127192D01*
X161229710Y-109705997D01*
X161249220Y-109659012D01*
X161440330Y-109945029D01*
X161926511Y-110269885D01*
X162500000Y-110383959D01*
X163073489Y-110269885D01*
X163559670Y-109945029D01*
X163884526Y-109458848D01*
X163998600Y-108885359D01*
X163998600Y-108826641D01*
X163884526Y-108253152D01*
X163559670Y-107766971D01*
X163288828Y-107586000D01*
X163559670Y-107405029D01*
X163884526Y-106918848D01*
X163998600Y-106345359D01*
X163998600Y-106286641D01*
X163884526Y-105713152D01*
X163559670Y-105226971D01*
X163288828Y-105046000D01*
X163559670Y-104865029D01*
X163884526Y-104378848D01*
X163998600Y-103805359D01*
X163998600Y-103746641D01*
X163884526Y-103173152D01*
X163559670Y-102686971D01*
X163288828Y-102506000D01*
X163559670Y-102325029D01*
X163884526Y-101838848D01*
X163998600Y-101265359D01*
X163998600Y-101206641D01*
X163884526Y-100633152D01*
X163559670Y-100146971D01*
X163288828Y-99966000D01*
X163559670Y-99785029D01*
X163884526Y-99298848D01*
X163998600Y-98725359D01*
X163998600Y-98666641D01*
X163884526Y-98093152D01*
X163559670Y-97606971D01*
X163288828Y-97426000D01*
X163559670Y-97245029D01*
X163884526Y-96758848D01*
X163998600Y-96185359D01*
X163998600Y-96126641D01*
X163884526Y-95553152D01*
X163559670Y-95066971D01*
X163288839Y-94886008D01*
X163706821Y-94504490D01*
X163954968Y-93975027D01*
X163834469Y-93743000D01*
X162627000Y-93743000D01*
X162627000Y-94653303D01*
X162500000Y-94628041D01*
X162373000Y-94653303D01*
X162373000Y-93743000D01*
X161458489Y-93743000D01*
X161458711Y-93489000D01*
X162373000Y-93489000D01*
X162373000Y-92578697D01*
X162500000Y-92603959D01*
X162627000Y-92578697D01*
X162627000Y-93489000D01*
X163834469Y-93489000D01*
X163954968Y-93256973D01*
X163706821Y-92727510D01*
X163288839Y-92345992D01*
X163559670Y-92165029D01*
X163884526Y-91678848D01*
X163998600Y-91105359D01*
X163998600Y-91046641D01*
X163884526Y-90473152D01*
X163559670Y-89986971D01*
X163288828Y-89806000D01*
X163559670Y-89625029D01*
X163884526Y-89138848D01*
X163998600Y-88565359D01*
X163998600Y-88506641D01*
X163884526Y-87933152D01*
X163559670Y-87446971D01*
X163288828Y-87266000D01*
X163559670Y-87085029D01*
X163884526Y-86598848D01*
X163998600Y-86025359D01*
X163998600Y-85966641D01*
X163884526Y-85393152D01*
X163559670Y-84906971D01*
X163109737Y-84606335D01*
X163764372Y-84335845D01*
X164340000Y-83761221D01*
X164340000Y-131405908D01*
X163205908Y-132540000D01*
X152325000Y-132540000D01*
X152053295Y-132594046D01*
X151822954Y-132747954D01*
X149505908Y-135065000D01*
X148595341Y-135065000D01*
X149153636Y-134507679D01*
X149494611Y-133686519D01*
X149495387Y-132797381D01*
X149155845Y-131975628D01*
X148527679Y-131346364D01*
X147706519Y-131005389D01*
X146817381Y-131004613D01*
X145995628Y-131344155D01*
X145366364Y-131972321D01*
X145025389Y-132793481D01*
X145024613Y-133682619D01*
X145364155Y-134504372D01*
X145923805Y-135065000D01*
X120655341Y-135065000D01*
X121213636Y-134507679D01*
X121554611Y-133686519D01*
X121555387Y-132797381D01*
X121215845Y-131975628D01*
X120587679Y-131346364D01*
X119766519Y-131005389D01*
X118877381Y-131004613D01*
X118055628Y-131344155D01*
X117849911Y-131549513D01*
X118078339Y-130999398D01*
X118078514Y-130797641D01*
X135601400Y-130797641D01*
X135601400Y-130856359D01*
X135715474Y-131429848D01*
X136040330Y-131916029D01*
X136311172Y-132097000D01*
X136040330Y-132277971D01*
X135715474Y-132764152D01*
X135601400Y-133337641D01*
X135601400Y-133396359D01*
X135715474Y-133969848D01*
X136040330Y-134456029D01*
X136526511Y-134780885D01*
X137100000Y-134894959D01*
X137673489Y-134780885D01*
X138159670Y-134456029D01*
X138370000Y-134141248D01*
X138580330Y-134456029D01*
X139066511Y-134780885D01*
X139640000Y-134894959D01*
X140213489Y-134780885D01*
X140699670Y-134456029D01*
X140910000Y-134141248D01*
X141120330Y-134456029D01*
X141606511Y-134780885D01*
X142180000Y-134894959D01*
X142753489Y-134780885D01*
X143239670Y-134456029D01*
X143564526Y-133969848D01*
X143678600Y-133396359D01*
X143678600Y-133337641D01*
X143564526Y-132764152D01*
X143239670Y-132277971D01*
X142968828Y-132097000D01*
X143239670Y-131916029D01*
X143564526Y-131429848D01*
X143678600Y-130856359D01*
X143678600Y-130797641D01*
X143564526Y-130224152D01*
X143239670Y-129737971D01*
X142753489Y-129413115D01*
X142180000Y-129299041D01*
X141606511Y-129413115D01*
X141120330Y-129737971D01*
X140910000Y-130052752D01*
X140699670Y-129737971D01*
X140213489Y-129413115D01*
X139640000Y-129299041D01*
X139066511Y-129413115D01*
X138580330Y-129737971D01*
X138370000Y-130052752D01*
X138159670Y-129737971D01*
X137673489Y-129413115D01*
X137100000Y-129299041D01*
X136526511Y-129413115D01*
X136040330Y-129737971D01*
X135715474Y-130224152D01*
X135601400Y-130797641D01*
X118078514Y-130797641D01*
X118078859Y-130403218D01*
X117851192Y-129852220D01*
X117429997Y-129430290D01*
X117429069Y-129429905D01*
X117849710Y-129009997D01*
X118078339Y-128459398D01*
X118078859Y-127863218D01*
X117851192Y-127312220D01*
X117429997Y-126890290D01*
X117429069Y-126889905D01*
X117849710Y-126469997D01*
X118078339Y-125919398D01*
X118078859Y-125323218D01*
X117851192Y-124772220D01*
X117429997Y-124350290D01*
X117429069Y-124349905D01*
X117849710Y-123929997D01*
X118078339Y-123379398D01*
X118078859Y-122783218D01*
X117851192Y-122232220D01*
X117429997Y-121810290D01*
X117429069Y-121809905D01*
X117645546Y-121593805D01*
X123525800Y-121593805D01*
X123607741Y-121846516D01*
X124168030Y-122050248D01*
X124763635Y-122024058D01*
X125192259Y-121846516D01*
X125274200Y-121593805D01*
X126065800Y-121593805D01*
X126147741Y-121846516D01*
X126708030Y-122050248D01*
X127303635Y-122024058D01*
X127732259Y-121846516D01*
X127814200Y-121593805D01*
X128605800Y-121593805D01*
X128687741Y-121846516D01*
X129248030Y-122050248D01*
X129843635Y-122024058D01*
X130272259Y-121846516D01*
X130354200Y-121593805D01*
X131145800Y-121593805D01*
X131227741Y-121846516D01*
X131788030Y-122050248D01*
X132383635Y-122024058D01*
X132812259Y-121846516D01*
X132894200Y-121593805D01*
X133685800Y-121593805D01*
X133767741Y-121846516D01*
X134328030Y-122050248D01*
X134923635Y-122024058D01*
X135352259Y-121846516D01*
X135434200Y-121593805D01*
X136225800Y-121593805D01*
X136307741Y-121846516D01*
X136868030Y-122050248D01*
X137463635Y-122024058D01*
X137892259Y-121846516D01*
X137974200Y-121593805D01*
X138765800Y-121593805D01*
X138847741Y-121846516D01*
X139408030Y-122050248D01*
X140003635Y-122024058D01*
X140432259Y-121846516D01*
X140514200Y-121593805D01*
X141305800Y-121593805D01*
X141387741Y-121846516D01*
X141948030Y-122050248D01*
X142543635Y-122024058D01*
X142972259Y-121846516D01*
X143054200Y-121593805D01*
X143845800Y-121593805D01*
X143927741Y-121846516D01*
X144488030Y-122050248D01*
X145083635Y-122024058D01*
X145512259Y-121846516D01*
X145594200Y-121593805D01*
X146385800Y-121593805D01*
X146467741Y-121846516D01*
X147028030Y-122050248D01*
X147623635Y-122024058D01*
X148052259Y-121846516D01*
X148134200Y-121593805D01*
X148925800Y-121593805D01*
X149007741Y-121846516D01*
X149568030Y-122050248D01*
X150163635Y-122024058D01*
X150592259Y-121846516D01*
X150674200Y-121593805D01*
X151465800Y-121593805D01*
X151547741Y-121846516D01*
X152108030Y-122050248D01*
X152703635Y-122024058D01*
X153132259Y-121846516D01*
X153214200Y-121593805D01*
X152340000Y-120719605D01*
X151465800Y-121593805D01*
X150674200Y-121593805D01*
X149800000Y-120719605D01*
X148925800Y-121593805D01*
X148134200Y-121593805D01*
X147260000Y-120719605D01*
X146385800Y-121593805D01*
X145594200Y-121593805D01*
X144720000Y-120719605D01*
X143845800Y-121593805D01*
X143054200Y-121593805D01*
X142180000Y-120719605D01*
X141305800Y-121593805D01*
X140514200Y-121593805D01*
X139640000Y-120719605D01*
X138765800Y-121593805D01*
X137974200Y-121593805D01*
X137100000Y-120719605D01*
X136225800Y-121593805D01*
X135434200Y-121593805D01*
X134560000Y-120719605D01*
X133685800Y-121593805D01*
X132894200Y-121593805D01*
X132020000Y-120719605D01*
X131145800Y-121593805D01*
X130354200Y-121593805D01*
X129480000Y-120719605D01*
X128605800Y-121593805D01*
X127814200Y-121593805D01*
X126940000Y-120719605D01*
X126065800Y-121593805D01*
X125274200Y-121593805D01*
X124400000Y-120719605D01*
X123525800Y-121593805D01*
X117645546Y-121593805D01*
X117849710Y-121389997D01*
X118078339Y-120839398D01*
X118078802Y-120308030D01*
X122889752Y-120308030D01*
X122915942Y-120903635D01*
X123093484Y-121332259D01*
X123346195Y-121414200D01*
X124220395Y-120540000D01*
X124579605Y-120540000D01*
X125453805Y-121414200D01*
X125670000Y-121344099D01*
X125886195Y-121414200D01*
X126760395Y-120540000D01*
X127119605Y-120540000D01*
X127993805Y-121414200D01*
X128210000Y-121344099D01*
X128426195Y-121414200D01*
X129300395Y-120540000D01*
X129659605Y-120540000D01*
X130533805Y-121414200D01*
X130750000Y-121344099D01*
X130966195Y-121414200D01*
X131840395Y-120540000D01*
X132199605Y-120540000D01*
X133073805Y-121414200D01*
X133290000Y-121344099D01*
X133506195Y-121414200D01*
X134380395Y-120540000D01*
X134739605Y-120540000D01*
X135613805Y-121414200D01*
X135830000Y-121344099D01*
X136046195Y-121414200D01*
X136920395Y-120540000D01*
X137279605Y-120540000D01*
X138153805Y-121414200D01*
X138370000Y-121344099D01*
X138586195Y-121414200D01*
X139460395Y-120540000D01*
X139819605Y-120540000D01*
X140693805Y-121414200D01*
X140910000Y-121344099D01*
X141126195Y-121414200D01*
X142000395Y-120540000D01*
X142359605Y-120540000D01*
X143233805Y-121414200D01*
X143450000Y-121344099D01*
X143666195Y-121414200D01*
X144540395Y-120540000D01*
X144899605Y-120540000D01*
X145773805Y-121414200D01*
X145990000Y-121344099D01*
X146206195Y-121414200D01*
X147080395Y-120540000D01*
X147439605Y-120540000D01*
X148313805Y-121414200D01*
X148530000Y-121344099D01*
X148746195Y-121414200D01*
X149620395Y-120540000D01*
X149979605Y-120540000D01*
X150853805Y-121414200D01*
X151070000Y-121344099D01*
X151286195Y-121414200D01*
X152160395Y-120540000D01*
X152519605Y-120540000D01*
X153393805Y-121414200D01*
X153646516Y-121332259D01*
X153850248Y-120771970D01*
X153824058Y-120176365D01*
X153646516Y-119747741D01*
X153393805Y-119665800D01*
X152519605Y-120540000D01*
X152160395Y-120540000D01*
X151286195Y-119665800D01*
X151070000Y-119735901D01*
X150853805Y-119665800D01*
X149979605Y-120540000D01*
X149620395Y-120540000D01*
X148746195Y-119665800D01*
X148530000Y-119735901D01*
X148313805Y-119665800D01*
X147439605Y-120540000D01*
X147080395Y-120540000D01*
X146206195Y-119665800D01*
X145990000Y-119735901D01*
X145773805Y-119665800D01*
X144899605Y-120540000D01*
X144540395Y-120540000D01*
X143666195Y-119665800D01*
X143450000Y-119735901D01*
X143233805Y-119665800D01*
X142359605Y-120540000D01*
X142000395Y-120540000D01*
X141126195Y-119665800D01*
X140910000Y-119735901D01*
X140693805Y-119665800D01*
X139819605Y-120540000D01*
X139460395Y-120540000D01*
X138586195Y-119665800D01*
X138370000Y-119735901D01*
X138153805Y-119665800D01*
X137279605Y-120540000D01*
X136920395Y-120540000D01*
X136046195Y-119665800D01*
X135830000Y-119735901D01*
X135613805Y-119665800D01*
X134739605Y-120540000D01*
X134380395Y-120540000D01*
X133506195Y-119665800D01*
X133290000Y-119735901D01*
X133073805Y-119665800D01*
X132199605Y-120540000D01*
X131840395Y-120540000D01*
X130966195Y-119665800D01*
X130750000Y-119735901D01*
X130533805Y-119665800D01*
X129659605Y-120540000D01*
X129300395Y-120540000D01*
X128426195Y-119665800D01*
X128210000Y-119735901D01*
X127993805Y-119665800D01*
X127119605Y-120540000D01*
X126760395Y-120540000D01*
X125886195Y-119665800D01*
X125670000Y-119735901D01*
X125453805Y-119665800D01*
X124579605Y-120540000D01*
X124220395Y-120540000D01*
X123346195Y-119665800D01*
X123093484Y-119747741D01*
X122889752Y-120308030D01*
X118078802Y-120308030D01*
X118078859Y-120243218D01*
X117851192Y-119692220D01*
X117429997Y-119270290D01*
X117429069Y-119269905D01*
X117849710Y-118849997D01*
X118078339Y-118299398D01*
X118078859Y-117703218D01*
X117851192Y-117152220D01*
X117429997Y-116730290D01*
X116879398Y-116501661D01*
X116283218Y-116501141D01*
X115732220Y-116728808D01*
X115399729Y-117060720D01*
X115299670Y-116910971D01*
X114813489Y-116586115D01*
X114240000Y-116472041D01*
X113666511Y-116586115D01*
X113180330Y-116910971D01*
X112855474Y-117397152D01*
X112741400Y-117970641D01*
X112741400Y-118029359D01*
X112855474Y-118602848D01*
X113180330Y-119089029D01*
X113451172Y-119270000D01*
X113180330Y-119450971D01*
X112855474Y-119937152D01*
X112741400Y-120510641D01*
X112741400Y-120569359D01*
X112855474Y-121142848D01*
X113180330Y-121629029D01*
X113451172Y-121810000D01*
X113180330Y-121990971D01*
X112855474Y-122477152D01*
X112741400Y-123050641D01*
X112741400Y-123109359D01*
X112855474Y-123682848D01*
X113180330Y-124169029D01*
X113451172Y-124350000D01*
X113180330Y-124530971D01*
X112855474Y-125017152D01*
X112741400Y-125590641D01*
X112741400Y-125649359D01*
X112855474Y-126222848D01*
X113180330Y-126709029D01*
X113451172Y-126890000D01*
X113180330Y-127070971D01*
X112855474Y-127557152D01*
X112741400Y-128130641D01*
X112741400Y-128189359D01*
X112855474Y-128762848D01*
X113180330Y-129249029D01*
X113451172Y-129430000D01*
X113180330Y-129610971D01*
X112855474Y-130097152D01*
X112741400Y-130670641D01*
X112741400Y-130729359D01*
X112855474Y-131302848D01*
X113180330Y-131789029D01*
X113666511Y-132113885D01*
X114240000Y-132227959D01*
X114813489Y-132113885D01*
X115299670Y-131789029D01*
X115399897Y-131639028D01*
X115730003Y-131969710D01*
X116280602Y-132198339D01*
X116876782Y-132198859D01*
X117427294Y-131971393D01*
X117426364Y-131972321D01*
X117085389Y-132793481D01*
X117084613Y-133682619D01*
X117424155Y-134504372D01*
X117983805Y-135065000D01*
X115794092Y-135065000D01*
X113477046Y-132747954D01*
X113246705Y-132594046D01*
X112975000Y-132540000D01*
X112410000Y-132540000D01*
X112410000Y-108199027D01*
X112785032Y-108199027D01*
X113033179Y-108728490D01*
X113451152Y-109110000D01*
X113033179Y-109491510D01*
X112785032Y-110020973D01*
X112905531Y-110253000D01*
X114113000Y-110253000D01*
X114113000Y-107967000D01*
X112905531Y-107967000D01*
X112785032Y-108199027D01*
X112410000Y-108199027D01*
X112410000Y-95110641D01*
X112741400Y-95110641D01*
X112741400Y-95169359D01*
X112855474Y-95742848D01*
X113180330Y-96229029D01*
X113451172Y-96410000D01*
X113180330Y-96590971D01*
X112855474Y-97077152D01*
X112741400Y-97650641D01*
X112741400Y-97709359D01*
X112855474Y-98282848D01*
X113180330Y-98769029D01*
X113451172Y-98950000D01*
X113180330Y-99130971D01*
X112855474Y-99617152D01*
X112741400Y-100190641D01*
X112741400Y-100249359D01*
X112855474Y-100822848D01*
X113180330Y-101309029D01*
X113451172Y-101490000D01*
X113180330Y-101670971D01*
X112855474Y-102157152D01*
X112741400Y-102730641D01*
X112741400Y-102789359D01*
X112855474Y-103362848D01*
X113180330Y-103849029D01*
X113451172Y-104030000D01*
X113180330Y-104210971D01*
X112855474Y-104697152D01*
X112741400Y-105270641D01*
X112741400Y-105329359D01*
X112855474Y-105902848D01*
X113180330Y-106389029D01*
X113451161Y-106569992D01*
X113033179Y-106951510D01*
X112785032Y-107480973D01*
X112905531Y-107713000D01*
X114113000Y-107713000D01*
X114113000Y-106802697D01*
X114240000Y-106827959D01*
X114367000Y-106802697D01*
X114367000Y-107713000D01*
X115274368Y-107713000D01*
X115285537Y-107967000D01*
X114367000Y-107967000D01*
X114367000Y-110253000D01*
X115274368Y-110253000D01*
X115285537Y-110507000D01*
X114367000Y-110507000D01*
X114367000Y-111417303D01*
X114240000Y-111392041D01*
X114113000Y-111417303D01*
X114113000Y-110507000D01*
X112905531Y-110507000D01*
X112785032Y-110739027D01*
X113033179Y-111268490D01*
X113451161Y-111650008D01*
X113180330Y-111830971D01*
X112855474Y-112317152D01*
X112741400Y-112890641D01*
X112741400Y-112949359D01*
X112855474Y-113522848D01*
X113180330Y-114009029D01*
X113666511Y-114333885D01*
X114240000Y-114447959D01*
X114813489Y-114333885D01*
X115299670Y-114009029D01*
X115490490Y-113723447D01*
X115508808Y-113767780D01*
X115930003Y-114189710D01*
X116480602Y-114418339D01*
X117076782Y-114418859D01*
X117627780Y-114191192D01*
X118049710Y-113769997D01*
X118278339Y-113219398D01*
X118278859Y-112623218D01*
X118051192Y-112072220D01*
X117629997Y-111650290D01*
X117589463Y-111633459D01*
X117654200Y-111433805D01*
X116780000Y-110559605D01*
X115905800Y-111433805D01*
X115970399Y-111633033D01*
X115932220Y-111648808D01*
X115510290Y-112070003D01*
X115490780Y-112116988D01*
X115299670Y-111830971D01*
X115028839Y-111650008D01*
X115446821Y-111268490D01*
X115489490Y-111177449D01*
X115726195Y-111254200D01*
X116600395Y-110380000D01*
X116959605Y-110380000D01*
X117833805Y-111254200D01*
X118086516Y-111172259D01*
X118290248Y-110611970D01*
X118264058Y-110016365D01*
X118086516Y-109587741D01*
X117833805Y-109505800D01*
X116959605Y-110380000D01*
X116600395Y-110380000D01*
X115726195Y-109505800D01*
X115489490Y-109582551D01*
X115446821Y-109491510D01*
X115028848Y-109110000D01*
X115265705Y-108893805D01*
X115905800Y-108893805D01*
X115975901Y-109110000D01*
X115905800Y-109326195D01*
X116780000Y-110200395D01*
X117654200Y-109326195D01*
X117584099Y-109110000D01*
X117654200Y-108893805D01*
X116780000Y-108019605D01*
X115905800Y-108893805D01*
X115265705Y-108893805D01*
X115446821Y-108728490D01*
X115489490Y-108637449D01*
X115726195Y-108714200D01*
X116600395Y-107840000D01*
X116959605Y-107840000D01*
X117833805Y-108714200D01*
X118086516Y-108632259D01*
X118290248Y-108071970D01*
X118264058Y-107476365D01*
X118086516Y-107047741D01*
X117833805Y-106965800D01*
X116959605Y-107840000D01*
X116600395Y-107840000D01*
X115726195Y-106965800D01*
X115489490Y-107042551D01*
X115446821Y-106951510D01*
X115028839Y-106569992D01*
X115299670Y-106389029D01*
X115490490Y-106103447D01*
X115508808Y-106147780D01*
X115930003Y-106569710D01*
X115970537Y-106586541D01*
X115905800Y-106786195D01*
X116780000Y-107660395D01*
X117654200Y-106786195D01*
X117589601Y-106586967D01*
X117627780Y-106571192D01*
X118049710Y-106149997D01*
X118278339Y-105599398D01*
X118278341Y-105596782D01*
X122901141Y-105596782D01*
X123128808Y-106147780D01*
X123550003Y-106569710D01*
X123550931Y-106570095D01*
X123130290Y-106990003D01*
X122901661Y-107540602D01*
X122901141Y-108136782D01*
X123128808Y-108687780D01*
X123550003Y-109109710D01*
X123550931Y-109110095D01*
X123130290Y-109530003D01*
X122901661Y-110080602D01*
X122901141Y-110676782D01*
X123128808Y-111227780D01*
X123550003Y-111649710D01*
X123550931Y-111650095D01*
X123130290Y-112070003D01*
X122901661Y-112620602D01*
X122901141Y-113216782D01*
X123128808Y-113767780D01*
X123550003Y-114189710D01*
X123550931Y-114190095D01*
X123130290Y-114610003D01*
X122901661Y-115160602D01*
X122901141Y-115756782D01*
X123128808Y-116307780D01*
X123550003Y-116729710D01*
X123550931Y-116730095D01*
X123130290Y-117150003D01*
X122901661Y-117700602D01*
X122901141Y-118296782D01*
X123128808Y-118847780D01*
X123550003Y-119269710D01*
X123590537Y-119286541D01*
X123525800Y-119486195D01*
X124400000Y-120360395D01*
X125274200Y-119486195D01*
X125209601Y-119286967D01*
X125247780Y-119271192D01*
X125669710Y-118849997D01*
X125670095Y-118849069D01*
X126090003Y-119269710D01*
X126130537Y-119286541D01*
X126065800Y-119486195D01*
X126940000Y-120360395D01*
X127814200Y-119486195D01*
X127749601Y-119286967D01*
X127787780Y-119271192D01*
X128209710Y-118849997D01*
X128210095Y-118849069D01*
X128630003Y-119269710D01*
X128670537Y-119286541D01*
X128605800Y-119486195D01*
X129480000Y-120360395D01*
X130354200Y-119486195D01*
X130289601Y-119286967D01*
X130327780Y-119271192D01*
X130749710Y-118849997D01*
X130750095Y-118849069D01*
X131170003Y-119269710D01*
X131210537Y-119286541D01*
X131145800Y-119486195D01*
X132020000Y-120360395D01*
X132894200Y-119486195D01*
X132829601Y-119286967D01*
X132867780Y-119271192D01*
X133289710Y-118849997D01*
X133290095Y-118849069D01*
X133710003Y-119269710D01*
X133750537Y-119286541D01*
X133685800Y-119486195D01*
X134560000Y-120360395D01*
X135434200Y-119486195D01*
X135369601Y-119286967D01*
X135407780Y-119271192D01*
X135829710Y-118849997D01*
X135830095Y-118849069D01*
X136250003Y-119269710D01*
X136290537Y-119286541D01*
X136225800Y-119486195D01*
X137100000Y-120360395D01*
X137974200Y-119486195D01*
X137909601Y-119286967D01*
X137947780Y-119271192D01*
X138369710Y-118849997D01*
X138370095Y-118849069D01*
X138790003Y-119269710D01*
X138830537Y-119286541D01*
X138765800Y-119486195D01*
X139640000Y-120360395D01*
X140514200Y-119486195D01*
X140449601Y-119286967D01*
X140487780Y-119271192D01*
X140909710Y-118849997D01*
X140910095Y-118849069D01*
X141330003Y-119269710D01*
X141370537Y-119286541D01*
X141305800Y-119486195D01*
X142180000Y-120360395D01*
X143054200Y-119486195D01*
X142989601Y-119286967D01*
X143027780Y-119271192D01*
X143449710Y-118849997D01*
X143450095Y-118849069D01*
X143870003Y-119269710D01*
X143910537Y-119286541D01*
X143845800Y-119486195D01*
X144720000Y-120360395D01*
X145594200Y-119486195D01*
X145529601Y-119286967D01*
X145567780Y-119271192D01*
X145989710Y-118849997D01*
X145990095Y-118849069D01*
X146410003Y-119269710D01*
X146450537Y-119286541D01*
X146385800Y-119486195D01*
X147260000Y-120360395D01*
X148134200Y-119486195D01*
X148069601Y-119286967D01*
X148107780Y-119271192D01*
X148529710Y-118849997D01*
X148530095Y-118849069D01*
X148950003Y-119269710D01*
X148990537Y-119286541D01*
X148925800Y-119486195D01*
X149800000Y-120360395D01*
X150674200Y-119486195D01*
X150609601Y-119286967D01*
X150647780Y-119271192D01*
X151069710Y-118849997D01*
X151070095Y-118849069D01*
X151490003Y-119269710D01*
X151530537Y-119286541D01*
X151465800Y-119486195D01*
X152340000Y-120360395D01*
X153214200Y-119486195D01*
X153149601Y-119286967D01*
X153187780Y-119271192D01*
X153609710Y-118849997D01*
X153838339Y-118299398D01*
X153838859Y-117703218D01*
X153611192Y-117152220D01*
X153189997Y-116730290D01*
X153189069Y-116729905D01*
X153609710Y-116309997D01*
X153838339Y-115759398D01*
X153838859Y-115163218D01*
X153611192Y-114612220D01*
X153189997Y-114190290D01*
X153189069Y-114189905D01*
X153609710Y-113769997D01*
X153838339Y-113219398D01*
X153838341Y-113216782D01*
X158461141Y-113216782D01*
X158688808Y-113767780D01*
X159110003Y-114189710D01*
X159110931Y-114190095D01*
X158690290Y-114610003D01*
X158461661Y-115160602D01*
X158461141Y-115756782D01*
X158688808Y-116307780D01*
X159110003Y-116729710D01*
X159110931Y-116730095D01*
X158690290Y-117150003D01*
X158461661Y-117700602D01*
X158461141Y-118296782D01*
X158688808Y-118847780D01*
X159110003Y-119269710D01*
X159110931Y-119270095D01*
X158690290Y-119690003D01*
X158461661Y-120240602D01*
X158461141Y-120836782D01*
X158688808Y-121387780D01*
X159110003Y-121809710D01*
X159110931Y-121810095D01*
X158690290Y-122230003D01*
X158461661Y-122780602D01*
X158461141Y-123376782D01*
X158688808Y-123927780D01*
X159110003Y-124349710D01*
X159110931Y-124350095D01*
X158690290Y-124770003D01*
X158461661Y-125320602D01*
X158461141Y-125916782D01*
X158688808Y-126467780D01*
X159110003Y-126889710D01*
X159110931Y-126890095D01*
X158690290Y-127310003D01*
X158461661Y-127860602D01*
X158461141Y-128456782D01*
X158688808Y-129007780D01*
X159110003Y-129429710D01*
X159110931Y-129430095D01*
X158690290Y-129850003D01*
X158461661Y-130400602D01*
X158461141Y-130996782D01*
X158688808Y-131547780D01*
X159110003Y-131969710D01*
X159660602Y-132198339D01*
X160256782Y-132198859D01*
X160807780Y-131971192D01*
X161229710Y-131549997D01*
X161249220Y-131503012D01*
X161440330Y-131789029D01*
X161926511Y-132113885D01*
X162500000Y-132227959D01*
X163073489Y-132113885D01*
X163559670Y-131789029D01*
X163884526Y-131302848D01*
X163998600Y-130729359D01*
X163998600Y-130670641D01*
X163884526Y-130097152D01*
X163559670Y-129610971D01*
X163288828Y-129430000D01*
X163559670Y-129249029D01*
X163884526Y-128762848D01*
X163998600Y-128189359D01*
X163998600Y-128130641D01*
X163884526Y-127557152D01*
X163559670Y-127070971D01*
X163288828Y-126890000D01*
X163559670Y-126709029D01*
X163884526Y-126222848D01*
X163998600Y-125649359D01*
X163998600Y-125590641D01*
X163884526Y-125017152D01*
X163559670Y-124530971D01*
X163288828Y-124350000D01*
X163559670Y-124169029D01*
X163884526Y-123682848D01*
X163998600Y-123109359D01*
X163998600Y-123050641D01*
X163884526Y-122477152D01*
X163559670Y-121990971D01*
X163288828Y-121810000D01*
X163559670Y-121629029D01*
X163884526Y-121142848D01*
X163998600Y-120569359D01*
X163998600Y-120510641D01*
X163884526Y-119937152D01*
X163559670Y-119450971D01*
X163288828Y-119270000D01*
X163559670Y-119089029D01*
X163884526Y-118602848D01*
X163998600Y-118029359D01*
X163998600Y-117970641D01*
X163884526Y-117397152D01*
X163559670Y-116910971D01*
X163288828Y-116730000D01*
X163559670Y-116549029D01*
X163884526Y-116062848D01*
X163998600Y-115489359D01*
X163998600Y-115430641D01*
X163884526Y-114857152D01*
X163559670Y-114370971D01*
X163288828Y-114190000D01*
X163559670Y-114009029D01*
X163884526Y-113522848D01*
X163998600Y-112949359D01*
X163998600Y-112890641D01*
X163884526Y-112317152D01*
X163559670Y-111830971D01*
X163073489Y-111506115D01*
X162500000Y-111392041D01*
X161926511Y-111506115D01*
X161440330Y-111830971D01*
X161249510Y-112116553D01*
X161231192Y-112072220D01*
X160809997Y-111650290D01*
X160259398Y-111421661D01*
X159663218Y-111421141D01*
X159112220Y-111648808D01*
X158690290Y-112070003D01*
X158461661Y-112620602D01*
X158461141Y-113216782D01*
X153838341Y-113216782D01*
X153838859Y-112623218D01*
X153611192Y-112072220D01*
X153189997Y-111650290D01*
X153189069Y-111649905D01*
X153609710Y-111229997D01*
X153838339Y-110679398D01*
X153838859Y-110083218D01*
X153611192Y-109532220D01*
X153189997Y-109110290D01*
X153189069Y-109109905D01*
X153609710Y-108689997D01*
X153838339Y-108139398D01*
X153838859Y-107543218D01*
X153611192Y-106992220D01*
X153189997Y-106570290D01*
X153189069Y-106569905D01*
X153609710Y-106149997D01*
X153838339Y-105599398D01*
X153838859Y-105003218D01*
X153611192Y-104452220D01*
X153189997Y-104030290D01*
X152639398Y-103801661D01*
X152043218Y-103801141D01*
X151492220Y-104028808D01*
X151070290Y-104450003D01*
X151069905Y-104450931D01*
X150649997Y-104030290D01*
X150099398Y-103801661D01*
X149503218Y-103801141D01*
X148952220Y-104028808D01*
X148530290Y-104450003D01*
X148529905Y-104450931D01*
X148109997Y-104030290D01*
X147559398Y-103801661D01*
X146963218Y-103801141D01*
X146412220Y-104028808D01*
X145990290Y-104450003D01*
X145989905Y-104450931D01*
X145569997Y-104030290D01*
X145019398Y-103801661D01*
X144423218Y-103801141D01*
X143872220Y-104028808D01*
X143450290Y-104450003D01*
X143449905Y-104450931D01*
X143029997Y-104030290D01*
X142479398Y-103801661D01*
X141883218Y-103801141D01*
X141332220Y-104028808D01*
X140910290Y-104450003D01*
X140909905Y-104450931D01*
X140489997Y-104030290D01*
X139939398Y-103801661D01*
X139343218Y-103801141D01*
X138792220Y-104028808D01*
X138370290Y-104450003D01*
X138369905Y-104450931D01*
X137949997Y-104030290D01*
X137399398Y-103801661D01*
X136803218Y-103801141D01*
X136252220Y-104028808D01*
X135830290Y-104450003D01*
X135829905Y-104450931D01*
X135409997Y-104030290D01*
X134859398Y-103801661D01*
X134263218Y-103801141D01*
X133712220Y-104028808D01*
X133290290Y-104450003D01*
X133289905Y-104450931D01*
X132869997Y-104030290D01*
X132319398Y-103801661D01*
X131723218Y-103801141D01*
X131172220Y-104028808D01*
X130750290Y-104450003D01*
X130749905Y-104450931D01*
X130329997Y-104030290D01*
X129779398Y-103801661D01*
X129183218Y-103801141D01*
X128632220Y-104028808D01*
X128210290Y-104450003D01*
X128209905Y-104450931D01*
X127789997Y-104030290D01*
X127239398Y-103801661D01*
X126643218Y-103801141D01*
X126092220Y-104028808D01*
X125670290Y-104450003D01*
X125669905Y-104450931D01*
X125249997Y-104030290D01*
X124699398Y-103801661D01*
X124103218Y-103801141D01*
X123552220Y-104028808D01*
X123130290Y-104450003D01*
X122901661Y-105000602D01*
X122901141Y-105596782D01*
X118278341Y-105596782D01*
X118278859Y-105003218D01*
X118051192Y-104452220D01*
X117629997Y-104030290D01*
X117629069Y-104029905D01*
X118049710Y-103609997D01*
X118278339Y-103059398D01*
X118278859Y-102463218D01*
X118051192Y-101912220D01*
X117629997Y-101490290D01*
X117629069Y-101489905D01*
X118049710Y-101069997D01*
X118278339Y-100519398D01*
X118278859Y-99923218D01*
X118051192Y-99372220D01*
X117629997Y-98950290D01*
X117629069Y-98949905D01*
X118049710Y-98529997D01*
X118278339Y-97979398D01*
X118278859Y-97383218D01*
X118051192Y-96832220D01*
X117629997Y-96410290D01*
X117629069Y-96409905D01*
X118049710Y-95989997D01*
X118278339Y-95439398D01*
X118278859Y-94843218D01*
X118051192Y-94292220D01*
X117629997Y-93870290D01*
X117079398Y-93641661D01*
X116483218Y-93641141D01*
X115932220Y-93868808D01*
X115510290Y-94290003D01*
X115490780Y-94336988D01*
X115299670Y-94050971D01*
X114813489Y-93726115D01*
X114240000Y-93612041D01*
X113666511Y-93726115D01*
X113180330Y-94050971D01*
X112855474Y-94537152D01*
X112741400Y-95110641D01*
X112410000Y-95110641D01*
X112410000Y-82500332D01*
X112972321Y-83063636D01*
X113793481Y-83404611D01*
X114682619Y-83405387D01*
X115504372Y-83065845D01*
X116133636Y-82437679D01*
X116474611Y-81616519D01*
X116475387Y-80727381D01*
X116135845Y-79905628D01*
X115507679Y-79276364D01*
X114686519Y-78935389D01*
X113797381Y-78934613D01*
X112975628Y-79274155D01*
X112410000Y-79838796D01*
X112410000Y-74530000D01*
X116763790Y-74530000D01*
X116797058Y-74610515D01*
X116797058Y-74610515D01*
G37*
X116797058Y-74610515D02*
X117087954Y-74901919D01*
X117372158Y-75019931D01*
X117064485Y-75147058D01*
X116773081Y-75437954D01*
X116615180Y-75818223D01*
X116614821Y-76229971D01*
X116772058Y-76610515D01*
X117062954Y-76901919D01*
X117286803Y-76994869D01*
X117039485Y-77097058D01*
X116748081Y-77387954D01*
X116590180Y-77768223D01*
X116589821Y-78179971D01*
X116747058Y-78560515D01*
X117037954Y-78851919D01*
X117418223Y-79009820D01*
X117829971Y-79010179D01*
X118210515Y-78852942D01*
X118228488Y-78835000D01*
X129535198Y-78835000D01*
X130215000Y-79514802D01*
X130215000Y-83396239D01*
X130098081Y-83512954D01*
X129940180Y-83893223D01*
X129939821Y-84304971D01*
X130097058Y-84685515D01*
X130387954Y-84976919D01*
X130768223Y-85134820D01*
X131179971Y-85135179D01*
X131560515Y-84977942D01*
X131851919Y-84687046D01*
X132009820Y-84306777D01*
X132010179Y-83895029D01*
X131852942Y-83514485D01*
X131735000Y-83396337D01*
X131735000Y-79200000D01*
X131697171Y-79009820D01*
X131677148Y-78909160D01*
X131512401Y-78662599D01*
X130387401Y-77537599D01*
X130196435Y-77410000D01*
X132035198Y-77410000D01*
X133165000Y-78539802D01*
X133165000Y-83071239D01*
X133048081Y-83187954D01*
X132890180Y-83568223D01*
X132889821Y-83979971D01*
X133047058Y-84360515D01*
X133337954Y-84651919D01*
X133718223Y-84809820D01*
X134129971Y-84810179D01*
X134510515Y-84652942D01*
X134801919Y-84362046D01*
X134959820Y-83981777D01*
X134960179Y-83570029D01*
X134802942Y-83189485D01*
X134685000Y-83071337D01*
X134685000Y-82179501D01*
X134818223Y-82234820D01*
X135229971Y-82235179D01*
X135610515Y-82077942D01*
X135901919Y-81787046D01*
X136059820Y-81406777D01*
X136060179Y-80995029D01*
X135902942Y-80614485D01*
X135785000Y-80496337D01*
X135785000Y-77550000D01*
X135727148Y-77259161D01*
X135562401Y-77012599D01*
X133562401Y-75012599D01*
X133315839Y-74847852D01*
X133025000Y-74790000D01*
X119514802Y-74790000D01*
X119254802Y-74530000D01*
X145645198Y-74530000D01*
X141387599Y-78787599D01*
X141222852Y-79034161D01*
X141165000Y-79325000D01*
X141165000Y-80721239D01*
X141048081Y-80837954D01*
X140890180Y-81218223D01*
X140889821Y-81629971D01*
X141047058Y-82010515D01*
X141337954Y-82301919D01*
X141718223Y-82459820D01*
X142129971Y-82460179D01*
X142510515Y-82302942D01*
X142801919Y-82012046D01*
X142959820Y-81631777D01*
X142960179Y-81220029D01*
X142802942Y-80839485D01*
X142685000Y-80721337D01*
X142685000Y-79639802D01*
X147564802Y-74760000D01*
X152071239Y-74760000D01*
X152187954Y-74876919D01*
X152497096Y-75005286D01*
X152214485Y-75122058D01*
X152096337Y-75240000D01*
X147850000Y-75240000D01*
X147559161Y-75297852D01*
X147312599Y-75462599D01*
X143512599Y-79262599D01*
X143347852Y-79509161D01*
X143290000Y-79800000D01*
X143290000Y-83009867D01*
X143139485Y-83072058D01*
X142848081Y-83362954D01*
X142690180Y-83743223D01*
X142689821Y-84154971D01*
X142847058Y-84535515D01*
X143137954Y-84826919D01*
X143518223Y-84984820D01*
X143929971Y-84985179D01*
X144112044Y-84909948D01*
X144015180Y-85143223D01*
X144014821Y-85554971D01*
X144172058Y-85935515D01*
X144462954Y-86226919D01*
X144843223Y-86384820D01*
X145254971Y-86385179D01*
X145635515Y-86227942D01*
X145926919Y-85937046D01*
X146084820Y-85556777D01*
X146085179Y-85145029D01*
X145927942Y-84764485D01*
X145810000Y-84646337D01*
X145810000Y-80764802D01*
X146264802Y-80310000D01*
X154076186Y-80310000D01*
X154097058Y-80360515D01*
X154387954Y-80651919D01*
X154768223Y-80809820D01*
X155179971Y-80810179D01*
X155560515Y-80652942D01*
X155851919Y-80362046D01*
X156009820Y-79981777D01*
X156010179Y-79570029D01*
X155852942Y-79189485D01*
X155562046Y-78898081D01*
X155181777Y-78740180D01*
X154770029Y-78739821D01*
X154648586Y-78790000D01*
X146134802Y-78790000D01*
X148164802Y-76760000D01*
X152096239Y-76760000D01*
X152212954Y-76876919D01*
X152593223Y-77034820D01*
X153004971Y-77035179D01*
X153385515Y-76877942D01*
X153676919Y-76587046D01*
X153834820Y-76206777D01*
X153835179Y-75795029D01*
X153677942Y-75414485D01*
X153387046Y-75123081D01*
X153077904Y-74994714D01*
X153360515Y-74877942D01*
X153651919Y-74587046D01*
X153675606Y-74530000D01*
X164340000Y-74530000D01*
X164340000Y-81119685D01*
X163767679Y-80546364D01*
X162946519Y-80205389D01*
X162057381Y-80204613D01*
X161235628Y-80544155D01*
X160606364Y-81172321D01*
X160265389Y-81993481D01*
X160264613Y-82882619D01*
X160604155Y-83704372D01*
X161232321Y-84333636D01*
X161889800Y-84606645D01*
X161440330Y-84906971D01*
X161249510Y-85192553D01*
X161231192Y-85148220D01*
X160809997Y-84726290D01*
X160259398Y-84497661D01*
X159663218Y-84497141D01*
X159112220Y-84724808D01*
X158690290Y-85146003D01*
X158461661Y-85696602D01*
X158461141Y-86292782D01*
X158688808Y-86843780D01*
X159110003Y-87265710D01*
X159110931Y-87266095D01*
X158690290Y-87686003D01*
X158461661Y-88236602D01*
X158461141Y-88832782D01*
X158688808Y-89383780D01*
X159110003Y-89805710D01*
X159110931Y-89806095D01*
X158690290Y-90226003D01*
X158461661Y-90776602D01*
X158461141Y-91372782D01*
X158688808Y-91923780D01*
X159110003Y-92345710D01*
X159110931Y-92346095D01*
X158690290Y-92766003D01*
X158461661Y-93316602D01*
X158461141Y-93912782D01*
X158688808Y-94463780D01*
X159110003Y-94885710D01*
X159110931Y-94886095D01*
X158690290Y-95306003D01*
X158652920Y-95396000D01*
X158270802Y-95396000D01*
X151212401Y-88337599D01*
X150965839Y-88172852D01*
X150675000Y-88115000D01*
X147360096Y-88115000D01*
X147360179Y-88020029D01*
X147202942Y-87639485D01*
X146912046Y-87348081D01*
X146531777Y-87190180D01*
X146120029Y-87189821D01*
X145739485Y-87347058D01*
X145448081Y-87637954D01*
X145290180Y-88018223D01*
X145289821Y-88429971D01*
X145447058Y-88810515D01*
X145737954Y-89101919D01*
X146118223Y-89259820D01*
X146285164Y-89259966D01*
X146290198Y-89265000D01*
X131189802Y-89265000D01*
X129960035Y-88035233D01*
X129960179Y-87870029D01*
X129802942Y-87489485D01*
X129512046Y-87198081D01*
X129131777Y-87040180D01*
X128720029Y-87039821D01*
X128339485Y-87197058D01*
X128048081Y-87487954D01*
X127890180Y-87868223D01*
X127889821Y-88279971D01*
X128047058Y-88660515D01*
X128337954Y-88951919D01*
X128718223Y-89109820D01*
X128885164Y-89109966D01*
X130337599Y-90562401D01*
X130584160Y-90727148D01*
X130632414Y-90736746D01*
X130875000Y-90785000D01*
X149210198Y-90785000D01*
X157612599Y-99187401D01*
X157859161Y-99352148D01*
X158150000Y-99410000D01*
X158633531Y-99410000D01*
X158688808Y-99543780D01*
X159110003Y-99965710D01*
X159110931Y-99966095D01*
X158690290Y-100386003D01*
X158652920Y-100476000D01*
X157725802Y-100476000D01*
X150862401Y-93612599D01*
X150615839Y-93447852D01*
X150325000Y-93390000D01*
X144439802Y-93390000D01*
X144010035Y-92960233D01*
X144010179Y-92795029D01*
X143852942Y-92414485D01*
X143562046Y-92123081D01*
X143181777Y-91965180D01*
X142770029Y-91964821D01*
X142389485Y-92122058D01*
X142098081Y-92412954D01*
X141940180Y-92793223D01*
X141939821Y-93204971D01*
X142097058Y-93585515D01*
X142387954Y-93876919D01*
X142768223Y-94034820D01*
X142935164Y-94034966D01*
X143587599Y-94687401D01*
X143834161Y-94852148D01*
X144125000Y-94910000D01*
X150010198Y-94910000D01*
X156873599Y-101773401D01*
X157120160Y-101938148D01*
X157411000Y-101996000D01*
X158652538Y-101996000D01*
X158688808Y-102083780D01*
X159110003Y-102505710D01*
X159110931Y-102506095D01*
X158690290Y-102926003D01*
X158652920Y-103016000D01*
X156965802Y-103016000D01*
X152437401Y-98487599D01*
X152190839Y-98322852D01*
X151900000Y-98265000D01*
X137889802Y-98265000D01*
X132785035Y-93160233D01*
X132785179Y-92995029D01*
X132627942Y-92614485D01*
X132337046Y-92323081D01*
X131956777Y-92165180D01*
X131545029Y-92164821D01*
X131164485Y-92322058D01*
X130873081Y-92612954D01*
X130715180Y-92993223D01*
X130714821Y-93404971D01*
X130872058Y-93785515D01*
X131162954Y-94076919D01*
X131543223Y-94234820D01*
X131710164Y-94234966D01*
X137037599Y-99562401D01*
X137284161Y-99727148D01*
X137575000Y-99785000D01*
X151585198Y-99785000D01*
X156113599Y-104313401D01*
X156360161Y-104478148D01*
X156651000Y-104536000D01*
X158652538Y-104536000D01*
X158688808Y-104623780D01*
X159110003Y-105045710D01*
X159110931Y-105046095D01*
X158690290Y-105466003D01*
X158461661Y-106016602D01*
X158461141Y-106612782D01*
X158688808Y-107163780D01*
X159110003Y-107585710D01*
X159110931Y-107586095D01*
X158690290Y-108006003D01*
X158461661Y-108556602D01*
X158461141Y-109152782D01*
X158688808Y-109703780D01*
X159110003Y-110125710D01*
X159660602Y-110354339D01*
X160256782Y-110354859D01*
X160807780Y-110127192D01*
X161229710Y-109705997D01*
X161249220Y-109659012D01*
X161440330Y-109945029D01*
X161926511Y-110269885D01*
X162500000Y-110383959D01*
X163073489Y-110269885D01*
X163559670Y-109945029D01*
X163884526Y-109458848D01*
X163998600Y-108885359D01*
X163998600Y-108826641D01*
X163884526Y-108253152D01*
X163559670Y-107766971D01*
X163288828Y-107586000D01*
X163559670Y-107405029D01*
X163884526Y-106918848D01*
X163998600Y-106345359D01*
X163998600Y-106286641D01*
X163884526Y-105713152D01*
X163559670Y-105226971D01*
X163288828Y-105046000D01*
X163559670Y-104865029D01*
X163884526Y-104378848D01*
X163998600Y-103805359D01*
X163998600Y-103746641D01*
X163884526Y-103173152D01*
X163559670Y-102686971D01*
X163288828Y-102506000D01*
X163559670Y-102325029D01*
X163884526Y-101838848D01*
X163998600Y-101265359D01*
X163998600Y-101206641D01*
X163884526Y-100633152D01*
X163559670Y-100146971D01*
X163288828Y-99966000D01*
X163559670Y-99785029D01*
X163884526Y-99298848D01*
X163998600Y-98725359D01*
X163998600Y-98666641D01*
X163884526Y-98093152D01*
X163559670Y-97606971D01*
X163288828Y-97426000D01*
X163559670Y-97245029D01*
X163884526Y-96758848D01*
X163998600Y-96185359D01*
X163998600Y-96126641D01*
X163884526Y-95553152D01*
X163559670Y-95066971D01*
X163288839Y-94886008D01*
X163706821Y-94504490D01*
X163954968Y-93975027D01*
X163834469Y-93743000D01*
X162627000Y-93743000D01*
X162627000Y-94653303D01*
X162500000Y-94628041D01*
X162373000Y-94653303D01*
X162373000Y-93743000D01*
X161458489Y-93743000D01*
X161458711Y-93489000D01*
X162373000Y-93489000D01*
X162373000Y-92578697D01*
X162500000Y-92603959D01*
X162627000Y-92578697D01*
X162627000Y-93489000D01*
X163834469Y-93489000D01*
X163954968Y-93256973D01*
X163706821Y-92727510D01*
X163288839Y-92345992D01*
X163559670Y-92165029D01*
X163884526Y-91678848D01*
X163998600Y-91105359D01*
X163998600Y-91046641D01*
X163884526Y-90473152D01*
X163559670Y-89986971D01*
X163288828Y-89806000D01*
X163559670Y-89625029D01*
X163884526Y-89138848D01*
X163998600Y-88565359D01*
X163998600Y-88506641D01*
X163884526Y-87933152D01*
X163559670Y-87446971D01*
X163288828Y-87266000D01*
X163559670Y-87085029D01*
X163884526Y-86598848D01*
X163998600Y-86025359D01*
X163998600Y-85966641D01*
X163884526Y-85393152D01*
X163559670Y-84906971D01*
X163109737Y-84606335D01*
X163764372Y-84335845D01*
X164340000Y-83761221D01*
X164340000Y-131405908D01*
X163205908Y-132540000D01*
X152325000Y-132540000D01*
X152053295Y-132594046D01*
X151822954Y-132747954D01*
X149505908Y-135065000D01*
X148595341Y-135065000D01*
X149153636Y-134507679D01*
X149494611Y-133686519D01*
X149495387Y-132797381D01*
X149155845Y-131975628D01*
X148527679Y-131346364D01*
X147706519Y-131005389D01*
X146817381Y-131004613D01*
X145995628Y-131344155D01*
X145366364Y-131972321D01*
X145025389Y-132793481D01*
X145024613Y-133682619D01*
X145364155Y-134504372D01*
X145923805Y-135065000D01*
X120655341Y-135065000D01*
X121213636Y-134507679D01*
X121554611Y-133686519D01*
X121555387Y-132797381D01*
X121215845Y-131975628D01*
X120587679Y-131346364D01*
X119766519Y-131005389D01*
X118877381Y-131004613D01*
X118055628Y-131344155D01*
X117849911Y-131549513D01*
X118078339Y-130999398D01*
X118078514Y-130797641D01*
X135601400Y-130797641D01*
X135601400Y-130856359D01*
X135715474Y-131429848D01*
X136040330Y-131916029D01*
X136311172Y-132097000D01*
X136040330Y-132277971D01*
X135715474Y-132764152D01*
X135601400Y-133337641D01*
X135601400Y-133396359D01*
X135715474Y-133969848D01*
X136040330Y-134456029D01*
X136526511Y-134780885D01*
X137100000Y-134894959D01*
X137673489Y-134780885D01*
X138159670Y-134456029D01*
X138370000Y-134141248D01*
X138580330Y-134456029D01*
X139066511Y-134780885D01*
X139640000Y-134894959D01*
X140213489Y-134780885D01*
X140699670Y-134456029D01*
X140910000Y-134141248D01*
X141120330Y-134456029D01*
X141606511Y-134780885D01*
X142180000Y-134894959D01*
X142753489Y-134780885D01*
X143239670Y-134456029D01*
X143564526Y-133969848D01*
X143678600Y-133396359D01*
X143678600Y-133337641D01*
X143564526Y-132764152D01*
X143239670Y-132277971D01*
X142968828Y-132097000D01*
X143239670Y-131916029D01*
X143564526Y-131429848D01*
X143678600Y-130856359D01*
X143678600Y-130797641D01*
X143564526Y-130224152D01*
X143239670Y-129737971D01*
X142753489Y-129413115D01*
X142180000Y-129299041D01*
X141606511Y-129413115D01*
X141120330Y-129737971D01*
X140910000Y-130052752D01*
X140699670Y-129737971D01*
X140213489Y-129413115D01*
X139640000Y-129299041D01*
X139066511Y-129413115D01*
X138580330Y-129737971D01*
X138370000Y-130052752D01*
X138159670Y-129737971D01*
X137673489Y-129413115D01*
X137100000Y-129299041D01*
X136526511Y-129413115D01*
X136040330Y-129737971D01*
X135715474Y-130224152D01*
X135601400Y-130797641D01*
X118078514Y-130797641D01*
X118078859Y-130403218D01*
X117851192Y-129852220D01*
X117429997Y-129430290D01*
X117429069Y-129429905D01*
X117849710Y-129009997D01*
X118078339Y-128459398D01*
X118078859Y-127863218D01*
X117851192Y-127312220D01*
X117429997Y-126890290D01*
X117429069Y-126889905D01*
X117849710Y-126469997D01*
X118078339Y-125919398D01*
X118078859Y-125323218D01*
X117851192Y-124772220D01*
X117429997Y-124350290D01*
X117429069Y-124349905D01*
X117849710Y-123929997D01*
X118078339Y-123379398D01*
X118078859Y-122783218D01*
X117851192Y-122232220D01*
X117429997Y-121810290D01*
X117429069Y-121809905D01*
X117645546Y-121593805D01*
X123525800Y-121593805D01*
X123607741Y-121846516D01*
X124168030Y-122050248D01*
X124763635Y-122024058D01*
X125192259Y-121846516D01*
X125274200Y-121593805D01*
X126065800Y-121593805D01*
X126147741Y-121846516D01*
X126708030Y-122050248D01*
X127303635Y-122024058D01*
X127732259Y-121846516D01*
X127814200Y-121593805D01*
X128605800Y-121593805D01*
X128687741Y-121846516D01*
X129248030Y-122050248D01*
X129843635Y-122024058D01*
X130272259Y-121846516D01*
X130354200Y-121593805D01*
X131145800Y-121593805D01*
X131227741Y-121846516D01*
X131788030Y-122050248D01*
X132383635Y-122024058D01*
X132812259Y-121846516D01*
X132894200Y-121593805D01*
X133685800Y-121593805D01*
X133767741Y-121846516D01*
X134328030Y-122050248D01*
X134923635Y-122024058D01*
X135352259Y-121846516D01*
X135434200Y-121593805D01*
X136225800Y-121593805D01*
X136307741Y-121846516D01*
X136868030Y-122050248D01*
X137463635Y-122024058D01*
X137892259Y-121846516D01*
X137974200Y-121593805D01*
X138765800Y-121593805D01*
X138847741Y-121846516D01*
X139408030Y-122050248D01*
X140003635Y-122024058D01*
X140432259Y-121846516D01*
X140514200Y-121593805D01*
X141305800Y-121593805D01*
X141387741Y-121846516D01*
X141948030Y-122050248D01*
X142543635Y-122024058D01*
X142972259Y-121846516D01*
X143054200Y-121593805D01*
X143845800Y-121593805D01*
X143927741Y-121846516D01*
X144488030Y-122050248D01*
X145083635Y-122024058D01*
X145512259Y-121846516D01*
X145594200Y-121593805D01*
X146385800Y-121593805D01*
X146467741Y-121846516D01*
X147028030Y-122050248D01*
X147623635Y-122024058D01*
X148052259Y-121846516D01*
X148134200Y-121593805D01*
X148925800Y-121593805D01*
X149007741Y-121846516D01*
X149568030Y-122050248D01*
X150163635Y-122024058D01*
X150592259Y-121846516D01*
X150674200Y-121593805D01*
X151465800Y-121593805D01*
X151547741Y-121846516D01*
X152108030Y-122050248D01*
X152703635Y-122024058D01*
X153132259Y-121846516D01*
X153214200Y-121593805D01*
X152340000Y-120719605D01*
X151465800Y-121593805D01*
X150674200Y-121593805D01*
X149800000Y-120719605D01*
X148925800Y-121593805D01*
X148134200Y-121593805D01*
X147260000Y-120719605D01*
X146385800Y-121593805D01*
X145594200Y-121593805D01*
X144720000Y-120719605D01*
X143845800Y-121593805D01*
X143054200Y-121593805D01*
X142180000Y-120719605D01*
X141305800Y-121593805D01*
X140514200Y-121593805D01*
X139640000Y-120719605D01*
X138765800Y-121593805D01*
X137974200Y-121593805D01*
X137100000Y-120719605D01*
X136225800Y-121593805D01*
X135434200Y-121593805D01*
X134560000Y-120719605D01*
X133685800Y-121593805D01*
X132894200Y-121593805D01*
X132020000Y-120719605D01*
X131145800Y-121593805D01*
X130354200Y-121593805D01*
X129480000Y-120719605D01*
X128605800Y-121593805D01*
X127814200Y-121593805D01*
X126940000Y-120719605D01*
X126065800Y-121593805D01*
X125274200Y-121593805D01*
X124400000Y-120719605D01*
X123525800Y-121593805D01*
X117645546Y-121593805D01*
X117849710Y-121389997D01*
X118078339Y-120839398D01*
X118078802Y-120308030D01*
X122889752Y-120308030D01*
X122915942Y-120903635D01*
X123093484Y-121332259D01*
X123346195Y-121414200D01*
X124220395Y-120540000D01*
X124579605Y-120540000D01*
X125453805Y-121414200D01*
X125670000Y-121344099D01*
X125886195Y-121414200D01*
X126760395Y-120540000D01*
X127119605Y-120540000D01*
X127993805Y-121414200D01*
X128210000Y-121344099D01*
X128426195Y-121414200D01*
X129300395Y-120540000D01*
X129659605Y-120540000D01*
X130533805Y-121414200D01*
X130750000Y-121344099D01*
X130966195Y-121414200D01*
X131840395Y-120540000D01*
X132199605Y-120540000D01*
X133073805Y-121414200D01*
X133290000Y-121344099D01*
X133506195Y-121414200D01*
X134380395Y-120540000D01*
X134739605Y-120540000D01*
X135613805Y-121414200D01*
X135830000Y-121344099D01*
X136046195Y-121414200D01*
X136920395Y-120540000D01*
X137279605Y-120540000D01*
X138153805Y-121414200D01*
X138370000Y-121344099D01*
X138586195Y-121414200D01*
X139460395Y-120540000D01*
X139819605Y-120540000D01*
X140693805Y-121414200D01*
X140910000Y-121344099D01*
X141126195Y-121414200D01*
X142000395Y-120540000D01*
X142359605Y-120540000D01*
X143233805Y-121414200D01*
X143450000Y-121344099D01*
X143666195Y-121414200D01*
X144540395Y-120540000D01*
X144899605Y-120540000D01*
X145773805Y-121414200D01*
X145990000Y-121344099D01*
X146206195Y-121414200D01*
X147080395Y-120540000D01*
X147439605Y-120540000D01*
X148313805Y-121414200D01*
X148530000Y-121344099D01*
X148746195Y-121414200D01*
X149620395Y-120540000D01*
X149979605Y-120540000D01*
X150853805Y-121414200D01*
X151070000Y-121344099D01*
X151286195Y-121414200D01*
X152160395Y-120540000D01*
X152519605Y-120540000D01*
X153393805Y-121414200D01*
X153646516Y-121332259D01*
X153850248Y-120771970D01*
X153824058Y-120176365D01*
X153646516Y-119747741D01*
X153393805Y-119665800D01*
X152519605Y-120540000D01*
X152160395Y-120540000D01*
X151286195Y-119665800D01*
X151070000Y-119735901D01*
X150853805Y-119665800D01*
X149979605Y-120540000D01*
X149620395Y-120540000D01*
X148746195Y-119665800D01*
X148530000Y-119735901D01*
X148313805Y-119665800D01*
X147439605Y-120540000D01*
X147080395Y-120540000D01*
X146206195Y-119665800D01*
X145990000Y-119735901D01*
X145773805Y-119665800D01*
X144899605Y-120540000D01*
X144540395Y-120540000D01*
X143666195Y-119665800D01*
X143450000Y-119735901D01*
X143233805Y-119665800D01*
X142359605Y-120540000D01*
X142000395Y-120540000D01*
X141126195Y-119665800D01*
X140910000Y-119735901D01*
X140693805Y-119665800D01*
X139819605Y-120540000D01*
X139460395Y-120540000D01*
X138586195Y-119665800D01*
X138370000Y-119735901D01*
X138153805Y-119665800D01*
X137279605Y-120540000D01*
X136920395Y-120540000D01*
X136046195Y-119665800D01*
X135830000Y-119735901D01*
X135613805Y-119665800D01*
X134739605Y-120540000D01*
X134380395Y-120540000D01*
X133506195Y-119665800D01*
X133290000Y-119735901D01*
X133073805Y-119665800D01*
X132199605Y-120540000D01*
X131840395Y-120540000D01*
X130966195Y-119665800D01*
X130750000Y-119735901D01*
X130533805Y-119665800D01*
X129659605Y-120540000D01*
X129300395Y-120540000D01*
X128426195Y-119665800D01*
X128210000Y-119735901D01*
X127993805Y-119665800D01*
X127119605Y-120540000D01*
X126760395Y-120540000D01*
X125886195Y-119665800D01*
X125670000Y-119735901D01*
X125453805Y-119665800D01*
X124579605Y-120540000D01*
X124220395Y-120540000D01*
X123346195Y-119665800D01*
X123093484Y-119747741D01*
X122889752Y-120308030D01*
X118078802Y-120308030D01*
X118078859Y-120243218D01*
X117851192Y-119692220D01*
X117429997Y-119270290D01*
X117429069Y-119269905D01*
X117849710Y-118849997D01*
X118078339Y-118299398D01*
X118078859Y-117703218D01*
X117851192Y-117152220D01*
X117429997Y-116730290D01*
X116879398Y-116501661D01*
X116283218Y-116501141D01*
X115732220Y-116728808D01*
X115399729Y-117060720D01*
X115299670Y-116910971D01*
X114813489Y-116586115D01*
X114240000Y-116472041D01*
X113666511Y-116586115D01*
X113180330Y-116910971D01*
X112855474Y-117397152D01*
X112741400Y-117970641D01*
X112741400Y-118029359D01*
X112855474Y-118602848D01*
X113180330Y-119089029D01*
X113451172Y-119270000D01*
X113180330Y-119450971D01*
X112855474Y-119937152D01*
X112741400Y-120510641D01*
X112741400Y-120569359D01*
X112855474Y-121142848D01*
X113180330Y-121629029D01*
X113451172Y-121810000D01*
X113180330Y-121990971D01*
X112855474Y-122477152D01*
X112741400Y-123050641D01*
X112741400Y-123109359D01*
X112855474Y-123682848D01*
X113180330Y-124169029D01*
X113451172Y-124350000D01*
X113180330Y-124530971D01*
X112855474Y-125017152D01*
X112741400Y-125590641D01*
X112741400Y-125649359D01*
X112855474Y-126222848D01*
X113180330Y-126709029D01*
X113451172Y-126890000D01*
X113180330Y-127070971D01*
X112855474Y-127557152D01*
X112741400Y-128130641D01*
X112741400Y-128189359D01*
X112855474Y-128762848D01*
X113180330Y-129249029D01*
X113451172Y-129430000D01*
X113180330Y-129610971D01*
X112855474Y-130097152D01*
X112741400Y-130670641D01*
X112741400Y-130729359D01*
X112855474Y-131302848D01*
X113180330Y-131789029D01*
X113666511Y-132113885D01*
X114240000Y-132227959D01*
X114813489Y-132113885D01*
X115299670Y-131789029D01*
X115399897Y-131639028D01*
X115730003Y-131969710D01*
X116280602Y-132198339D01*
X116876782Y-132198859D01*
X117427294Y-131971393D01*
X117426364Y-131972321D01*
X117085389Y-132793481D01*
X117084613Y-133682619D01*
X117424155Y-134504372D01*
X117983805Y-135065000D01*
X115794092Y-135065000D01*
X113477046Y-132747954D01*
X113246705Y-132594046D01*
X112975000Y-132540000D01*
X112410000Y-132540000D01*
X112410000Y-108199027D01*
X112785032Y-108199027D01*
X113033179Y-108728490D01*
X113451152Y-109110000D01*
X113033179Y-109491510D01*
X112785032Y-110020973D01*
X112905531Y-110253000D01*
X114113000Y-110253000D01*
X114113000Y-107967000D01*
X112905531Y-107967000D01*
X112785032Y-108199027D01*
X112410000Y-108199027D01*
X112410000Y-95110641D01*
X112741400Y-95110641D01*
X112741400Y-95169359D01*
X112855474Y-95742848D01*
X113180330Y-96229029D01*
X113451172Y-96410000D01*
X113180330Y-96590971D01*
X112855474Y-97077152D01*
X112741400Y-97650641D01*
X112741400Y-97709359D01*
X112855474Y-98282848D01*
X113180330Y-98769029D01*
X113451172Y-98950000D01*
X113180330Y-99130971D01*
X112855474Y-99617152D01*
X112741400Y-100190641D01*
X112741400Y-100249359D01*
X112855474Y-100822848D01*
X113180330Y-101309029D01*
X113451172Y-101490000D01*
X113180330Y-101670971D01*
X112855474Y-102157152D01*
X112741400Y-102730641D01*
X112741400Y-102789359D01*
X112855474Y-103362848D01*
X113180330Y-103849029D01*
X113451172Y-104030000D01*
X113180330Y-104210971D01*
X112855474Y-104697152D01*
X112741400Y-105270641D01*
X112741400Y-105329359D01*
X112855474Y-105902848D01*
X113180330Y-106389029D01*
X113451161Y-106569992D01*
X113033179Y-106951510D01*
X112785032Y-107480973D01*
X112905531Y-107713000D01*
X114113000Y-107713000D01*
X114113000Y-106802697D01*
X114240000Y-106827959D01*
X114367000Y-106802697D01*
X114367000Y-107713000D01*
X115274368Y-107713000D01*
X115285537Y-107967000D01*
X114367000Y-107967000D01*
X114367000Y-110253000D01*
X115274368Y-110253000D01*
X115285537Y-110507000D01*
X114367000Y-110507000D01*
X114367000Y-111417303D01*
X114240000Y-111392041D01*
X114113000Y-111417303D01*
X114113000Y-110507000D01*
X112905531Y-110507000D01*
X112785032Y-110739027D01*
X113033179Y-111268490D01*
X113451161Y-111650008D01*
X113180330Y-111830971D01*
X112855474Y-112317152D01*
X112741400Y-112890641D01*
X112741400Y-112949359D01*
X112855474Y-113522848D01*
X113180330Y-114009029D01*
X113666511Y-114333885D01*
X114240000Y-114447959D01*
X114813489Y-114333885D01*
X115299670Y-114009029D01*
X115490490Y-113723447D01*
X115508808Y-113767780D01*
X115930003Y-114189710D01*
X116480602Y-114418339D01*
X117076782Y-114418859D01*
X117627780Y-114191192D01*
X118049710Y-113769997D01*
X118278339Y-113219398D01*
X118278859Y-112623218D01*
X118051192Y-112072220D01*
X117629997Y-111650290D01*
X117589463Y-111633459D01*
X117654200Y-111433805D01*
X116780000Y-110559605D01*
X115905800Y-111433805D01*
X115970399Y-111633033D01*
X115932220Y-111648808D01*
X115510290Y-112070003D01*
X115490780Y-112116988D01*
X115299670Y-111830971D01*
X115028839Y-111650008D01*
X115446821Y-111268490D01*
X115489490Y-111177449D01*
X115726195Y-111254200D01*
X116600395Y-110380000D01*
X116959605Y-110380000D01*
X117833805Y-111254200D01*
X118086516Y-111172259D01*
X118290248Y-110611970D01*
X118264058Y-110016365D01*
X118086516Y-109587741D01*
X117833805Y-109505800D01*
X116959605Y-110380000D01*
X116600395Y-110380000D01*
X115726195Y-109505800D01*
X115489490Y-109582551D01*
X115446821Y-109491510D01*
X115028848Y-109110000D01*
X115265705Y-108893805D01*
X115905800Y-108893805D01*
X115975901Y-109110000D01*
X115905800Y-109326195D01*
X116780000Y-110200395D01*
X117654200Y-109326195D01*
X117584099Y-109110000D01*
X117654200Y-108893805D01*
X116780000Y-108019605D01*
X115905800Y-108893805D01*
X115265705Y-108893805D01*
X115446821Y-108728490D01*
X115489490Y-108637449D01*
X115726195Y-108714200D01*
X116600395Y-107840000D01*
X116959605Y-107840000D01*
X117833805Y-108714200D01*
X118086516Y-108632259D01*
X118290248Y-108071970D01*
X118264058Y-107476365D01*
X118086516Y-107047741D01*
X117833805Y-106965800D01*
X116959605Y-107840000D01*
X116600395Y-107840000D01*
X115726195Y-106965800D01*
X115489490Y-107042551D01*
X115446821Y-106951510D01*
X115028839Y-106569992D01*
X115299670Y-106389029D01*
X115490490Y-106103447D01*
X115508808Y-106147780D01*
X115930003Y-106569710D01*
X115970537Y-106586541D01*
X115905800Y-106786195D01*
X116780000Y-107660395D01*
X117654200Y-106786195D01*
X117589601Y-106586967D01*
X117627780Y-106571192D01*
X118049710Y-106149997D01*
X118278339Y-105599398D01*
X118278341Y-105596782D01*
X122901141Y-105596782D01*
X123128808Y-106147780D01*
X123550003Y-106569710D01*
X123550931Y-106570095D01*
X123130290Y-106990003D01*
X122901661Y-107540602D01*
X122901141Y-108136782D01*
X123128808Y-108687780D01*
X123550003Y-109109710D01*
X123550931Y-109110095D01*
X123130290Y-109530003D01*
X122901661Y-110080602D01*
X122901141Y-110676782D01*
X123128808Y-111227780D01*
X123550003Y-111649710D01*
X123550931Y-111650095D01*
X123130290Y-112070003D01*
X122901661Y-112620602D01*
X122901141Y-113216782D01*
X123128808Y-113767780D01*
X123550003Y-114189710D01*
X123550931Y-114190095D01*
X123130290Y-114610003D01*
X122901661Y-115160602D01*
X122901141Y-115756782D01*
X123128808Y-116307780D01*
X123550003Y-116729710D01*
X123550931Y-116730095D01*
X123130290Y-117150003D01*
X122901661Y-117700602D01*
X122901141Y-118296782D01*
X123128808Y-118847780D01*
X123550003Y-119269710D01*
X123590537Y-119286541D01*
X123525800Y-119486195D01*
X124400000Y-120360395D01*
X125274200Y-119486195D01*
X125209601Y-119286967D01*
X125247780Y-119271192D01*
X125669710Y-118849997D01*
X125670095Y-118849069D01*
X126090003Y-119269710D01*
X126130537Y-119286541D01*
X126065800Y-119486195D01*
X126940000Y-120360395D01*
X127814200Y-119486195D01*
X127749601Y-119286967D01*
X127787780Y-119271192D01*
X128209710Y-118849997D01*
X128210095Y-118849069D01*
X128630003Y-119269710D01*
X128670537Y-119286541D01*
X128605800Y-119486195D01*
X129480000Y-120360395D01*
X130354200Y-119486195D01*
X130289601Y-119286967D01*
X130327780Y-119271192D01*
X130749710Y-118849997D01*
X130750095Y-118849069D01*
X131170003Y-119269710D01*
X131210537Y-119286541D01*
X131145800Y-119486195D01*
X132020000Y-120360395D01*
X132894200Y-119486195D01*
X132829601Y-119286967D01*
X132867780Y-119271192D01*
X133289710Y-118849997D01*
X133290095Y-118849069D01*
X133710003Y-119269710D01*
X133750537Y-119286541D01*
X133685800Y-119486195D01*
X134560000Y-120360395D01*
X135434200Y-119486195D01*
X135369601Y-119286967D01*
X135407780Y-119271192D01*
X135829710Y-118849997D01*
X135830095Y-118849069D01*
X136250003Y-119269710D01*
X136290537Y-119286541D01*
X136225800Y-119486195D01*
X137100000Y-120360395D01*
X137974200Y-119486195D01*
X137909601Y-119286967D01*
X137947780Y-119271192D01*
X138369710Y-118849997D01*
X138370095Y-118849069D01*
X138790003Y-119269710D01*
X138830537Y-119286541D01*
X138765800Y-119486195D01*
X139640000Y-120360395D01*
X140514200Y-119486195D01*
X140449601Y-119286967D01*
X140487780Y-119271192D01*
X140909710Y-118849997D01*
X140910095Y-118849069D01*
X141330003Y-119269710D01*
X141370537Y-119286541D01*
X141305800Y-119486195D01*
X142180000Y-120360395D01*
X143054200Y-119486195D01*
X142989601Y-119286967D01*
X143027780Y-119271192D01*
X143449710Y-118849997D01*
X143450095Y-118849069D01*
X143870003Y-119269710D01*
X143910537Y-119286541D01*
X143845800Y-119486195D01*
X144720000Y-120360395D01*
X145594200Y-119486195D01*
X145529601Y-119286967D01*
X145567780Y-119271192D01*
X145989710Y-118849997D01*
X145990095Y-118849069D01*
X146410003Y-119269710D01*
X146450537Y-119286541D01*
X146385800Y-119486195D01*
X147260000Y-120360395D01*
X148134200Y-119486195D01*
X148069601Y-119286967D01*
X148107780Y-119271192D01*
X148529710Y-118849997D01*
X148530095Y-118849069D01*
X148950003Y-119269710D01*
X148990537Y-119286541D01*
X148925800Y-119486195D01*
X149800000Y-120360395D01*
X150674200Y-119486195D01*
X150609601Y-119286967D01*
X150647780Y-119271192D01*
X151069710Y-118849997D01*
X151070095Y-118849069D01*
X151490003Y-119269710D01*
X151530537Y-119286541D01*
X151465800Y-119486195D01*
X152340000Y-120360395D01*
X153214200Y-119486195D01*
X153149601Y-119286967D01*
X153187780Y-119271192D01*
X153609710Y-118849997D01*
X153838339Y-118299398D01*
X153838859Y-117703218D01*
X153611192Y-117152220D01*
X153189997Y-116730290D01*
X153189069Y-116729905D01*
X153609710Y-116309997D01*
X153838339Y-115759398D01*
X153838859Y-115163218D01*
X153611192Y-114612220D01*
X153189997Y-114190290D01*
X153189069Y-114189905D01*
X153609710Y-113769997D01*
X153838339Y-113219398D01*
X153838341Y-113216782D01*
X158461141Y-113216782D01*
X158688808Y-113767780D01*
X159110003Y-114189710D01*
X159110931Y-114190095D01*
X158690290Y-114610003D01*
X158461661Y-115160602D01*
X158461141Y-115756782D01*
X158688808Y-116307780D01*
X159110003Y-116729710D01*
X159110931Y-116730095D01*
X158690290Y-117150003D01*
X158461661Y-117700602D01*
X158461141Y-118296782D01*
X158688808Y-118847780D01*
X159110003Y-119269710D01*
X159110931Y-119270095D01*
X158690290Y-119690003D01*
X158461661Y-120240602D01*
X158461141Y-120836782D01*
X158688808Y-121387780D01*
X159110003Y-121809710D01*
X159110931Y-121810095D01*
X158690290Y-122230003D01*
X158461661Y-122780602D01*
X158461141Y-123376782D01*
X158688808Y-123927780D01*
X159110003Y-124349710D01*
X159110931Y-124350095D01*
X158690290Y-124770003D01*
X158461661Y-125320602D01*
X158461141Y-125916782D01*
X158688808Y-126467780D01*
X159110003Y-126889710D01*
X159110931Y-126890095D01*
X158690290Y-127310003D01*
X158461661Y-127860602D01*
X158461141Y-128456782D01*
X158688808Y-129007780D01*
X159110003Y-129429710D01*
X159110931Y-129430095D01*
X158690290Y-129850003D01*
X158461661Y-130400602D01*
X158461141Y-130996782D01*
X158688808Y-131547780D01*
X159110003Y-131969710D01*
X159660602Y-132198339D01*
X160256782Y-132198859D01*
X160807780Y-131971192D01*
X161229710Y-131549997D01*
X161249220Y-131503012D01*
X161440330Y-131789029D01*
X161926511Y-132113885D01*
X162500000Y-132227959D01*
X163073489Y-132113885D01*
X163559670Y-131789029D01*
X163884526Y-131302848D01*
X163998600Y-130729359D01*
X163998600Y-130670641D01*
X163884526Y-130097152D01*
X163559670Y-129610971D01*
X163288828Y-129430000D01*
X163559670Y-129249029D01*
X163884526Y-128762848D01*
X163998600Y-128189359D01*
X163998600Y-128130641D01*
X163884526Y-127557152D01*
X163559670Y-127070971D01*
X163288828Y-126890000D01*
X163559670Y-126709029D01*
X163884526Y-126222848D01*
X163998600Y-125649359D01*
X163998600Y-125590641D01*
X163884526Y-125017152D01*
X163559670Y-124530971D01*
X163288828Y-124350000D01*
X163559670Y-124169029D01*
X163884526Y-123682848D01*
X163998600Y-123109359D01*
X163998600Y-123050641D01*
X163884526Y-122477152D01*
X163559670Y-121990971D01*
X163288828Y-121810000D01*
X163559670Y-121629029D01*
X163884526Y-121142848D01*
X163998600Y-120569359D01*
X163998600Y-120510641D01*
X163884526Y-119937152D01*
X163559670Y-119450971D01*
X163288828Y-119270000D01*
X163559670Y-119089029D01*
X163884526Y-118602848D01*
X163998600Y-118029359D01*
X163998600Y-117970641D01*
X163884526Y-117397152D01*
X163559670Y-116910971D01*
X163288828Y-116730000D01*
X163559670Y-116549029D01*
X163884526Y-116062848D01*
X163998600Y-115489359D01*
X163998600Y-115430641D01*
X163884526Y-114857152D01*
X163559670Y-114370971D01*
X163288828Y-114190000D01*
X163559670Y-114009029D01*
X163884526Y-113522848D01*
X163998600Y-112949359D01*
X163998600Y-112890641D01*
X163884526Y-112317152D01*
X163559670Y-111830971D01*
X163073489Y-111506115D01*
X162500000Y-111392041D01*
X161926511Y-111506115D01*
X161440330Y-111830971D01*
X161249510Y-112116553D01*
X161231192Y-112072220D01*
X160809997Y-111650290D01*
X160259398Y-111421661D01*
X159663218Y-111421141D01*
X159112220Y-111648808D01*
X158690290Y-112070003D01*
X158461661Y-112620602D01*
X158461141Y-113216782D01*
X153838341Y-113216782D01*
X153838859Y-112623218D01*
X153611192Y-112072220D01*
X153189997Y-111650290D01*
X153189069Y-111649905D01*
X153609710Y-111229997D01*
X153838339Y-110679398D01*
X153838859Y-110083218D01*
X153611192Y-109532220D01*
X153189997Y-109110290D01*
X153189069Y-109109905D01*
X153609710Y-108689997D01*
X153838339Y-108139398D01*
X153838859Y-107543218D01*
X153611192Y-106992220D01*
X153189997Y-106570290D01*
X153189069Y-106569905D01*
X153609710Y-106149997D01*
X153838339Y-105599398D01*
X153838859Y-105003218D01*
X153611192Y-104452220D01*
X153189997Y-104030290D01*
X152639398Y-103801661D01*
X152043218Y-103801141D01*
X151492220Y-104028808D01*
X151070290Y-104450003D01*
X151069905Y-104450931D01*
X150649997Y-104030290D01*
X150099398Y-103801661D01*
X149503218Y-103801141D01*
X148952220Y-104028808D01*
X148530290Y-104450003D01*
X148529905Y-104450931D01*
X148109997Y-104030290D01*
X147559398Y-103801661D01*
X146963218Y-103801141D01*
X146412220Y-104028808D01*
X145990290Y-104450003D01*
X145989905Y-104450931D01*
X145569997Y-104030290D01*
X145019398Y-103801661D01*
X144423218Y-103801141D01*
X143872220Y-104028808D01*
X143450290Y-104450003D01*
X143449905Y-104450931D01*
X143029997Y-104030290D01*
X142479398Y-103801661D01*
X141883218Y-103801141D01*
X141332220Y-104028808D01*
X140910290Y-104450003D01*
X140909905Y-104450931D01*
X140489997Y-104030290D01*
X139939398Y-103801661D01*
X139343218Y-103801141D01*
X138792220Y-104028808D01*
X138370290Y-104450003D01*
X138369905Y-104450931D01*
X137949997Y-104030290D01*
X137399398Y-103801661D01*
X136803218Y-103801141D01*
X136252220Y-104028808D01*
X135830290Y-104450003D01*
X135829905Y-104450931D01*
X135409997Y-104030290D01*
X134859398Y-103801661D01*
X134263218Y-103801141D01*
X133712220Y-104028808D01*
X133290290Y-104450003D01*
X133289905Y-104450931D01*
X132869997Y-104030290D01*
X132319398Y-103801661D01*
X131723218Y-103801141D01*
X131172220Y-104028808D01*
X130750290Y-104450003D01*
X130749905Y-104450931D01*
X130329997Y-104030290D01*
X129779398Y-103801661D01*
X129183218Y-103801141D01*
X128632220Y-104028808D01*
X128210290Y-104450003D01*
X128209905Y-104450931D01*
X127789997Y-104030290D01*
X127239398Y-103801661D01*
X126643218Y-103801141D01*
X126092220Y-104028808D01*
X125670290Y-104450003D01*
X125669905Y-104450931D01*
X125249997Y-104030290D01*
X124699398Y-103801661D01*
X124103218Y-103801141D01*
X123552220Y-104028808D01*
X123130290Y-104450003D01*
X122901661Y-105000602D01*
X122901141Y-105596782D01*
X118278341Y-105596782D01*
X118278859Y-105003218D01*
X118051192Y-104452220D01*
X117629997Y-104030290D01*
X117629069Y-104029905D01*
X118049710Y-103609997D01*
X118278339Y-103059398D01*
X118278859Y-102463218D01*
X118051192Y-101912220D01*
X117629997Y-101490290D01*
X117629069Y-101489905D01*
X118049710Y-101069997D01*
X118278339Y-100519398D01*
X118278859Y-99923218D01*
X118051192Y-99372220D01*
X117629997Y-98950290D01*
X117629069Y-98949905D01*
X118049710Y-98529997D01*
X118278339Y-97979398D01*
X118278859Y-97383218D01*
X118051192Y-96832220D01*
X117629997Y-96410290D01*
X117629069Y-96409905D01*
X118049710Y-95989997D01*
X118278339Y-95439398D01*
X118278859Y-94843218D01*
X118051192Y-94292220D01*
X117629997Y-93870290D01*
X117079398Y-93641661D01*
X116483218Y-93641141D01*
X115932220Y-93868808D01*
X115510290Y-94290003D01*
X115490780Y-94336988D01*
X115299670Y-94050971D01*
X114813489Y-93726115D01*
X114240000Y-93612041D01*
X113666511Y-93726115D01*
X113180330Y-94050971D01*
X112855474Y-94537152D01*
X112741400Y-95110641D01*
X112410000Y-95110641D01*
X112410000Y-82500332D01*
X112972321Y-83063636D01*
X113793481Y-83404611D01*
X114682619Y-83405387D01*
X115504372Y-83065845D01*
X116133636Y-82437679D01*
X116474611Y-81616519D01*
X116475387Y-80727381D01*
X116135845Y-79905628D01*
X115507679Y-79276364D01*
X114686519Y-78935389D01*
X113797381Y-78934613D01*
X112975628Y-79274155D01*
X112410000Y-79838796D01*
X112410000Y-74530000D01*
X116763790Y-74530000D01*
X116797058Y-74610515D01*
M02*
