G04 #@! TF.GenerationSoftware,KiCad,Pcbnew,(2017-12-24 revision 570866557)-makepkg*
G04 #@! TF.CreationDate,2018-02-26T21:20:21-07:00*
G04 #@! TF.ProjectId,DC801 Shield,444338303120536869656C642E6B6963,rev?*
G04 #@! TF.SameCoordinates,Original*
G04 #@! TF.FileFunction,Legend,Top*
G04 #@! TF.FilePolarity,Positive*
%FSLAX46Y46*%
G04 Gerber Fmt 4.6, Leading zero omitted, Abs format (unit mm)*
G04 Created by KiCad (PCBNEW (2017-12-24 revision 570866557)-makepkg) date 02/26/18 21:20:21*
%MOMM*%
%LPD*%
G01*
G04 APERTURE LIST*
%ADD10C,0.300000*%
%ADD11C,0.120000*%
%ADD12C,0.150000*%
%ADD13C,0.250000*%
%ADD14C,0.254000*%
%ADD15R,1.100000X1.700000*%
%ADD16C,2.127200*%
%ADD17O,2.127200X2.127200*%
%ADD18C,3.600000*%
%ADD19R,1.400000X1.200000*%
%ADD20C,1.600000*%
%ADD21C,0.100000*%
%ADD22C,1.100000*%
%ADD23R,2.200000X2.000000*%
G04 APERTURE END LIST*
D10*
X157340714Y-112153571D02*
X158340714Y-112153571D01*
X157697857Y-113653571D01*
X158126428Y-114703571D02*
X157840714Y-114703571D01*
X157697857Y-114775000D01*
X157626428Y-114846428D01*
X157483571Y-115060714D01*
X157412142Y-115346428D01*
X157412142Y-115917857D01*
X157483571Y-116060714D01*
X157555000Y-116132142D01*
X157697857Y-116203571D01*
X157983571Y-116203571D01*
X158126428Y-116132142D01*
X158197857Y-116060714D01*
X158269285Y-115917857D01*
X158269285Y-115560714D01*
X158197857Y-115417857D01*
X158126428Y-115346428D01*
X157983571Y-115275000D01*
X157697857Y-115275000D01*
X157555000Y-115346428D01*
X157483571Y-115417857D01*
X157412142Y-115560714D01*
X158197857Y-117253571D02*
X157483571Y-117253571D01*
X157412142Y-117967857D01*
X157483571Y-117896428D01*
X157626428Y-117825000D01*
X157983571Y-117825000D01*
X158126428Y-117896428D01*
X158197857Y-117967857D01*
X158269285Y-118110714D01*
X158269285Y-118467857D01*
X158197857Y-118610714D01*
X158126428Y-118682142D01*
X157983571Y-118753571D01*
X157626428Y-118753571D01*
X157483571Y-118682142D01*
X157412142Y-118610714D01*
X158126428Y-120303571D02*
X158126428Y-121303571D01*
X157769285Y-119732142D02*
X157412142Y-120803571D01*
X158340714Y-120803571D01*
X157340714Y-122353571D02*
X158269285Y-122353571D01*
X157769285Y-122925000D01*
X157983571Y-122925000D01*
X158126428Y-122996428D01*
X158197857Y-123067857D01*
X158269285Y-123210714D01*
X158269285Y-123567857D01*
X158197857Y-123710714D01*
X158126428Y-123782142D01*
X157983571Y-123853571D01*
X157555000Y-123853571D01*
X157412142Y-123782142D01*
X157340714Y-123710714D01*
X157412142Y-125046428D02*
X157483571Y-124975000D01*
X157626428Y-124903571D01*
X157983571Y-124903571D01*
X158126428Y-124975000D01*
X158197857Y-125046428D01*
X158269285Y-125189285D01*
X158269285Y-125332142D01*
X158197857Y-125546428D01*
X157340714Y-126403571D01*
X158269285Y-126403571D01*
X153555000Y-127453571D02*
X154412142Y-127453571D01*
X153983571Y-128953571D02*
X153983571Y-127453571D01*
X154769285Y-127453571D02*
X155769285Y-128953571D01*
X155769285Y-127453571D02*
X154769285Y-128953571D01*
X158269285Y-128953571D02*
X157412142Y-128953571D01*
X157840714Y-128953571D02*
X157840714Y-127453571D01*
X157697857Y-127667857D01*
X157555000Y-127810714D01*
X157412142Y-127882142D01*
X154269285Y-131503571D02*
X153769285Y-130789285D01*
X153412142Y-131503571D02*
X153412142Y-130003571D01*
X153983571Y-130003571D01*
X154126428Y-130075000D01*
X154197857Y-130146428D01*
X154269285Y-130289285D01*
X154269285Y-130503571D01*
X154197857Y-130646428D01*
X154126428Y-130717857D01*
X153983571Y-130789285D01*
X153412142Y-130789285D01*
X154769285Y-130003571D02*
X155769285Y-131503571D01*
X155769285Y-130003571D02*
X154769285Y-131503571D01*
X157769285Y-130003571D02*
X157912142Y-130003571D01*
X158055000Y-130075000D01*
X158126428Y-130146428D01*
X158197857Y-130289285D01*
X158269285Y-130575000D01*
X158269285Y-130932142D01*
X158197857Y-131217857D01*
X158126428Y-131360714D01*
X158055000Y-131432142D01*
X157912142Y-131503571D01*
X157769285Y-131503571D01*
X157626428Y-131432142D01*
X157555000Y-131360714D01*
X157483571Y-131217857D01*
X157412142Y-130932142D01*
X157412142Y-130575000D01*
X157483571Y-130289285D01*
X157555000Y-130146428D01*
X157626428Y-130075000D01*
X157769285Y-130003571D01*
X154722857Y-86632142D02*
X154937142Y-86703571D01*
X155294285Y-86703571D01*
X155437142Y-86632142D01*
X155508571Y-86560714D01*
X155580000Y-86417857D01*
X155580000Y-86275000D01*
X155508571Y-86132142D01*
X155437142Y-86060714D01*
X155294285Y-85989285D01*
X155008571Y-85917857D01*
X154865714Y-85846428D01*
X154794285Y-85775000D01*
X154722857Y-85632142D01*
X154722857Y-85489285D01*
X154794285Y-85346428D01*
X154865714Y-85275000D01*
X155008571Y-85203571D01*
X155365714Y-85203571D01*
X155580000Y-85275000D01*
X157080000Y-86560714D02*
X157008571Y-86632142D01*
X156794285Y-86703571D01*
X156651428Y-86703571D01*
X156437142Y-86632142D01*
X156294285Y-86489285D01*
X156222857Y-86346428D01*
X156151428Y-86060714D01*
X156151428Y-85846428D01*
X156222857Y-85560714D01*
X156294285Y-85417857D01*
X156437142Y-85275000D01*
X156651428Y-85203571D01*
X156794285Y-85203571D01*
X157008571Y-85275000D01*
X157080000Y-85346428D01*
X158437142Y-86703571D02*
X157722857Y-86703571D01*
X157722857Y-85203571D01*
X154651428Y-89182142D02*
X154865714Y-89253571D01*
X155222857Y-89253571D01*
X155365714Y-89182142D01*
X155437142Y-89110714D01*
X155508571Y-88967857D01*
X155508571Y-88825000D01*
X155437142Y-88682142D01*
X155365714Y-88610714D01*
X155222857Y-88539285D01*
X154937142Y-88467857D01*
X154794285Y-88396428D01*
X154722857Y-88325000D01*
X154651428Y-88182142D01*
X154651428Y-88039285D01*
X154722857Y-87896428D01*
X154794285Y-87825000D01*
X154937142Y-87753571D01*
X155294285Y-87753571D01*
X155508571Y-87825000D01*
X156151428Y-89253571D02*
X156151428Y-87753571D01*
X156508571Y-87753571D01*
X156722857Y-87825000D01*
X156865714Y-87967857D01*
X156937142Y-88110714D01*
X157008571Y-88396428D01*
X157008571Y-88610714D01*
X156937142Y-88896428D01*
X156865714Y-89039285D01*
X156722857Y-89182142D01*
X156508571Y-89253571D01*
X156151428Y-89253571D01*
X157580000Y-88825000D02*
X158294285Y-88825000D01*
X157437142Y-89253571D02*
X157937142Y-87753571D01*
X158437142Y-89253571D01*
X153437142Y-91375000D02*
X154151428Y-91375000D01*
X153294285Y-91803571D02*
X153794285Y-90303571D01*
X154294285Y-91803571D01*
X155651428Y-91803571D02*
X155151428Y-91089285D01*
X154794285Y-91803571D02*
X154794285Y-90303571D01*
X155365714Y-90303571D01*
X155508571Y-90375000D01*
X155580000Y-90446428D01*
X155651428Y-90589285D01*
X155651428Y-90803571D01*
X155580000Y-90946428D01*
X155508571Y-91017857D01*
X155365714Y-91089285D01*
X154794285Y-91089285D01*
X156294285Y-91017857D02*
X156794285Y-91017857D01*
X157008571Y-91803571D02*
X156294285Y-91803571D01*
X156294285Y-90303571D01*
X157008571Y-90303571D01*
X158151428Y-91017857D02*
X157651428Y-91017857D01*
X157651428Y-91803571D02*
X157651428Y-90303571D01*
X158365714Y-90303571D01*
X155151428Y-92925000D02*
X155008571Y-92853571D01*
X154794285Y-92853571D01*
X154580000Y-92925000D01*
X154437142Y-93067857D01*
X154365714Y-93210714D01*
X154294285Y-93496428D01*
X154294285Y-93710714D01*
X154365714Y-93996428D01*
X154437142Y-94139285D01*
X154580000Y-94282142D01*
X154794285Y-94353571D01*
X154937142Y-94353571D01*
X155151428Y-94282142D01*
X155222857Y-94210714D01*
X155222857Y-93710714D01*
X154937142Y-93710714D01*
X155865714Y-94353571D02*
X155865714Y-92853571D01*
X156722857Y-94353571D01*
X156722857Y-92853571D01*
X157437142Y-94353571D02*
X157437142Y-92853571D01*
X157794285Y-92853571D01*
X158008571Y-92925000D01*
X158151428Y-93067857D01*
X158222857Y-93210714D01*
X158294285Y-93496428D01*
X158294285Y-93710714D01*
X158222857Y-93996428D01*
X158151428Y-94139285D01*
X158008571Y-94282142D01*
X157794285Y-94353571D01*
X157437142Y-94353571D01*
X156865714Y-96903571D02*
X156008571Y-96903571D01*
X156437142Y-96903571D02*
X156437142Y-95403571D01*
X156294285Y-95617857D01*
X156151428Y-95760714D01*
X156008571Y-95832142D01*
X157365714Y-95403571D02*
X158294285Y-95403571D01*
X157794285Y-95975000D01*
X158008571Y-95975000D01*
X158151428Y-96046428D01*
X158222857Y-96117857D01*
X158294285Y-96260714D01*
X158294285Y-96617857D01*
X158222857Y-96760714D01*
X158151428Y-96832142D01*
X158008571Y-96903571D01*
X157580000Y-96903571D01*
X157437142Y-96832142D01*
X157365714Y-96760714D01*
X156865714Y-99453571D02*
X156008571Y-99453571D01*
X156437142Y-99453571D02*
X156437142Y-97953571D01*
X156294285Y-98167857D01*
X156151428Y-98310714D01*
X156008571Y-98382142D01*
X157437142Y-98096428D02*
X157508571Y-98025000D01*
X157651428Y-97953571D01*
X158008571Y-97953571D01*
X158151428Y-98025000D01*
X158222857Y-98096428D01*
X158294285Y-98239285D01*
X158294285Y-98382142D01*
X158222857Y-98596428D01*
X157365714Y-99453571D01*
X158294285Y-99453571D01*
X156865714Y-102003571D02*
X156008571Y-102003571D01*
X156437142Y-102003571D02*
X156437142Y-100503571D01*
X156294285Y-100717857D01*
X156151428Y-100860714D01*
X156008571Y-100932142D01*
X158294285Y-102003571D02*
X157437142Y-102003571D01*
X157865714Y-102003571D02*
X157865714Y-100503571D01*
X157722857Y-100717857D01*
X157580000Y-100860714D01*
X157437142Y-100932142D01*
X156865714Y-104553571D02*
X156008571Y-104553571D01*
X156437142Y-104553571D02*
X156437142Y-103053571D01*
X156294285Y-103267857D01*
X156151428Y-103410714D01*
X156008571Y-103482142D01*
X157794285Y-103053571D02*
X157937142Y-103053571D01*
X158080000Y-103125000D01*
X158151428Y-103196428D01*
X158222857Y-103339285D01*
X158294285Y-103625000D01*
X158294285Y-103982142D01*
X158222857Y-104267857D01*
X158151428Y-104410714D01*
X158080000Y-104482142D01*
X157937142Y-104553571D01*
X157794285Y-104553571D01*
X157651428Y-104482142D01*
X157580000Y-104410714D01*
X157508571Y-104267857D01*
X157437142Y-103982142D01*
X157437142Y-103625000D01*
X157508571Y-103339285D01*
X157580000Y-103196428D01*
X157651428Y-103125000D01*
X157794285Y-103053571D01*
X157580000Y-107103571D02*
X157865714Y-107103571D01*
X158008571Y-107032142D01*
X158080000Y-106960714D01*
X158222857Y-106746428D01*
X158294285Y-106460714D01*
X158294285Y-105889285D01*
X158222857Y-105746428D01*
X158151428Y-105675000D01*
X158008571Y-105603571D01*
X157722857Y-105603571D01*
X157580000Y-105675000D01*
X157508571Y-105746428D01*
X157437142Y-105889285D01*
X157437142Y-106246428D01*
X157508571Y-106389285D01*
X157580000Y-106460714D01*
X157722857Y-106532142D01*
X158008571Y-106532142D01*
X158151428Y-106460714D01*
X158222857Y-106389285D01*
X158294285Y-106246428D01*
X157722857Y-108796428D02*
X157580000Y-108725000D01*
X157508571Y-108653571D01*
X157437142Y-108510714D01*
X157437142Y-108439285D01*
X157508571Y-108296428D01*
X157580000Y-108225000D01*
X157722857Y-108153571D01*
X158008571Y-108153571D01*
X158151428Y-108225000D01*
X158222857Y-108296428D01*
X158294285Y-108439285D01*
X158294285Y-108510714D01*
X158222857Y-108653571D01*
X158151428Y-108725000D01*
X158008571Y-108796428D01*
X157722857Y-108796428D01*
X157580000Y-108867857D01*
X157508571Y-108939285D01*
X157437142Y-109082142D01*
X157437142Y-109367857D01*
X157508571Y-109510714D01*
X157580000Y-109582142D01*
X157722857Y-109653571D01*
X158008571Y-109653571D01*
X158151428Y-109582142D01*
X158222857Y-109510714D01*
X158294285Y-109367857D01*
X158294285Y-109082142D01*
X158222857Y-108939285D01*
X158151428Y-108867857D01*
X158008571Y-108796428D01*
X118421428Y-118300000D02*
X119040476Y-118300000D01*
X118297619Y-118728571D02*
X118730952Y-117228571D01*
X119164285Y-118728571D01*
X119845238Y-117228571D02*
X119969047Y-117228571D01*
X120092857Y-117300000D01*
X120154761Y-117371428D01*
X120216666Y-117514285D01*
X120278571Y-117800000D01*
X120278571Y-118157142D01*
X120216666Y-118442857D01*
X120154761Y-118585714D01*
X120092857Y-118657142D01*
X119969047Y-118728571D01*
X119845238Y-118728571D01*
X119721428Y-118657142D01*
X119659523Y-118585714D01*
X119597619Y-118442857D01*
X119535714Y-118157142D01*
X119535714Y-117800000D01*
X119597619Y-117514285D01*
X119659523Y-117371428D01*
X119721428Y-117300000D01*
X119845238Y-117228571D01*
X118421428Y-120850000D02*
X119040476Y-120850000D01*
X118297619Y-121278571D02*
X118730952Y-119778571D01*
X119164285Y-121278571D01*
X120278571Y-121278571D02*
X119535714Y-121278571D01*
X119907142Y-121278571D02*
X119907142Y-119778571D01*
X119783333Y-119992857D01*
X119659523Y-120135714D01*
X119535714Y-120207142D01*
X118421428Y-123400000D02*
X119040476Y-123400000D01*
X118297619Y-123828571D02*
X118730952Y-122328571D01*
X119164285Y-123828571D01*
X119535714Y-122471428D02*
X119597619Y-122400000D01*
X119721428Y-122328571D01*
X120030952Y-122328571D01*
X120154761Y-122400000D01*
X120216666Y-122471428D01*
X120278571Y-122614285D01*
X120278571Y-122757142D01*
X120216666Y-122971428D01*
X119473809Y-123828571D01*
X120278571Y-123828571D01*
X118421428Y-125950000D02*
X119040476Y-125950000D01*
X118297619Y-126378571D02*
X118730952Y-124878571D01*
X119164285Y-126378571D01*
X119473809Y-124878571D02*
X120278571Y-124878571D01*
X119845238Y-125450000D01*
X120030952Y-125450000D01*
X120154761Y-125521428D01*
X120216666Y-125592857D01*
X120278571Y-125735714D01*
X120278571Y-126092857D01*
X120216666Y-126235714D01*
X120154761Y-126307142D01*
X120030952Y-126378571D01*
X119659523Y-126378571D01*
X119535714Y-126307142D01*
X119473809Y-126235714D01*
X118421428Y-128500000D02*
X119040476Y-128500000D01*
X118297619Y-128928571D02*
X118730952Y-127428571D01*
X119164285Y-128928571D01*
X120154761Y-127928571D02*
X120154761Y-128928571D01*
X119845238Y-127357142D02*
X119535714Y-128428571D01*
X120340476Y-128428571D01*
X118421428Y-131050000D02*
X119040476Y-131050000D01*
X118297619Y-131478571D02*
X118730952Y-129978571D01*
X119164285Y-131478571D01*
X120216666Y-129978571D02*
X119597619Y-129978571D01*
X119535714Y-130692857D01*
X119597619Y-130621428D01*
X119721428Y-130550000D01*
X120030952Y-130550000D01*
X120154761Y-130621428D01*
X120216666Y-130692857D01*
X120278571Y-130835714D01*
X120278571Y-131192857D01*
X120216666Y-131335714D01*
X120154761Y-131407142D01*
X120030952Y-131478571D01*
X119721428Y-131478571D01*
X119597619Y-131407142D01*
X119535714Y-131335714D01*
X118479523Y-95878571D02*
X118479523Y-94378571D01*
X119222380Y-95878571D01*
X119222380Y-94378571D01*
X120584285Y-95735714D02*
X120522380Y-95807142D01*
X120336666Y-95878571D01*
X120212857Y-95878571D01*
X120027142Y-95807142D01*
X119903333Y-95664285D01*
X119841428Y-95521428D01*
X119779523Y-95235714D01*
X119779523Y-95021428D01*
X119841428Y-94735714D01*
X119903333Y-94592857D01*
X120027142Y-94450000D01*
X120212857Y-94378571D01*
X120336666Y-94378571D01*
X120522380Y-94450000D01*
X120584285Y-94521428D01*
X118479523Y-98428571D02*
X118479523Y-96928571D01*
X119346190Y-96928571D02*
X119593809Y-96928571D01*
X119717619Y-97000000D01*
X119841428Y-97142857D01*
X119903333Y-97428571D01*
X119903333Y-97928571D01*
X119841428Y-98214285D01*
X119717619Y-98357142D01*
X119593809Y-98428571D01*
X119346190Y-98428571D01*
X119222380Y-98357142D01*
X119098571Y-98214285D01*
X119036666Y-97928571D01*
X119036666Y-97428571D01*
X119098571Y-97142857D01*
X119222380Y-97000000D01*
X119346190Y-96928571D01*
X121203333Y-98428571D02*
X120770000Y-97714285D01*
X120460476Y-98428571D02*
X120460476Y-96928571D01*
X120955714Y-96928571D01*
X121079523Y-97000000D01*
X121141428Y-97071428D01*
X121203333Y-97214285D01*
X121203333Y-97428571D01*
X121141428Y-97571428D01*
X121079523Y-97642857D01*
X120955714Y-97714285D01*
X120460476Y-97714285D01*
X121760476Y-97642857D02*
X122193809Y-97642857D01*
X122379523Y-98428571D02*
X121760476Y-98428571D01*
X121760476Y-96928571D01*
X122379523Y-96928571D01*
X123370000Y-97642857D02*
X122936666Y-97642857D01*
X122936666Y-98428571D02*
X122936666Y-96928571D01*
X123555714Y-96928571D01*
X119222380Y-100978571D02*
X118789047Y-100264285D01*
X118479523Y-100978571D02*
X118479523Y-99478571D01*
X118974761Y-99478571D01*
X119098571Y-99550000D01*
X119160476Y-99621428D01*
X119222380Y-99764285D01*
X119222380Y-99978571D01*
X119160476Y-100121428D01*
X119098571Y-100192857D01*
X118974761Y-100264285D01*
X118479523Y-100264285D01*
X119717619Y-100907142D02*
X119903333Y-100978571D01*
X120212857Y-100978571D01*
X120336666Y-100907142D01*
X120398571Y-100835714D01*
X120460476Y-100692857D01*
X120460476Y-100550000D01*
X120398571Y-100407142D01*
X120336666Y-100335714D01*
X120212857Y-100264285D01*
X119965238Y-100192857D01*
X119841428Y-100121428D01*
X119779523Y-100050000D01*
X119717619Y-99907142D01*
X119717619Y-99764285D01*
X119779523Y-99621428D01*
X119841428Y-99550000D01*
X119965238Y-99478571D01*
X120274761Y-99478571D01*
X120460476Y-99550000D01*
X120831904Y-99478571D02*
X121574761Y-99478571D01*
X121203333Y-100978571D02*
X121203333Y-99478571D01*
X118355714Y-102028571D02*
X119160476Y-102028571D01*
X118727142Y-102600000D01*
X118912857Y-102600000D01*
X119036666Y-102671428D01*
X119098571Y-102742857D01*
X119160476Y-102885714D01*
X119160476Y-103242857D01*
X119098571Y-103385714D01*
X119036666Y-103457142D01*
X118912857Y-103528571D01*
X118541428Y-103528571D01*
X118417619Y-103457142D01*
X118355714Y-103385714D01*
X119531904Y-102028571D02*
X119965238Y-103528571D01*
X120398571Y-102028571D01*
X120708095Y-102028571D02*
X121512857Y-102028571D01*
X121079523Y-102600000D01*
X121265238Y-102600000D01*
X121389047Y-102671428D01*
X121450952Y-102742857D01*
X121512857Y-102885714D01*
X121512857Y-103242857D01*
X121450952Y-103385714D01*
X121389047Y-103457142D01*
X121265238Y-103528571D01*
X120893809Y-103528571D01*
X120770000Y-103457142D01*
X120708095Y-103385714D01*
X119098571Y-104578571D02*
X118479523Y-104578571D01*
X118417619Y-105292857D01*
X118479523Y-105221428D01*
X118603333Y-105150000D01*
X118912857Y-105150000D01*
X119036666Y-105221428D01*
X119098571Y-105292857D01*
X119160476Y-105435714D01*
X119160476Y-105792857D01*
X119098571Y-105935714D01*
X119036666Y-106007142D01*
X118912857Y-106078571D01*
X118603333Y-106078571D01*
X118479523Y-106007142D01*
X118417619Y-105935714D01*
X119531904Y-104578571D02*
X119965238Y-106078571D01*
X120398571Y-104578571D01*
X119160476Y-107200000D02*
X119036666Y-107128571D01*
X118850952Y-107128571D01*
X118665238Y-107200000D01*
X118541428Y-107342857D01*
X118479523Y-107485714D01*
X118417619Y-107771428D01*
X118417619Y-107985714D01*
X118479523Y-108271428D01*
X118541428Y-108414285D01*
X118665238Y-108557142D01*
X118850952Y-108628571D01*
X118974761Y-108628571D01*
X119160476Y-108557142D01*
X119222380Y-108485714D01*
X119222380Y-107985714D01*
X118974761Y-107985714D01*
X119779523Y-108628571D02*
X119779523Y-107128571D01*
X120522380Y-108628571D01*
X120522380Y-107128571D01*
X121141428Y-108628571D02*
X121141428Y-107128571D01*
X121450952Y-107128571D01*
X121636666Y-107200000D01*
X121760476Y-107342857D01*
X121822380Y-107485714D01*
X121884285Y-107771428D01*
X121884285Y-107985714D01*
X121822380Y-108271428D01*
X121760476Y-108414285D01*
X121636666Y-108557142D01*
X121450952Y-108628571D01*
X121141428Y-108628571D01*
X119160476Y-109750000D02*
X119036666Y-109678571D01*
X118850952Y-109678571D01*
X118665238Y-109750000D01*
X118541428Y-109892857D01*
X118479523Y-110035714D01*
X118417619Y-110321428D01*
X118417619Y-110535714D01*
X118479523Y-110821428D01*
X118541428Y-110964285D01*
X118665238Y-111107142D01*
X118850952Y-111178571D01*
X118974761Y-111178571D01*
X119160476Y-111107142D01*
X119222380Y-111035714D01*
X119222380Y-110535714D01*
X118974761Y-110535714D01*
X119779523Y-111178571D02*
X119779523Y-109678571D01*
X120522380Y-111178571D01*
X120522380Y-109678571D01*
X121141428Y-111178571D02*
X121141428Y-109678571D01*
X121450952Y-109678571D01*
X121636666Y-109750000D01*
X121760476Y-109892857D01*
X121822380Y-110035714D01*
X121884285Y-110321428D01*
X121884285Y-110535714D01*
X121822380Y-110821428D01*
X121760476Y-110964285D01*
X121636666Y-111107142D01*
X121450952Y-111178571D01*
X121141428Y-111178571D01*
X118293809Y-112228571D02*
X118727142Y-113728571D01*
X119160476Y-112228571D01*
X119593809Y-113728571D02*
X119593809Y-112728571D01*
X119593809Y-112228571D02*
X119531904Y-112300000D01*
X119593809Y-112371428D01*
X119655714Y-112300000D01*
X119593809Y-112228571D01*
X119593809Y-112371428D01*
X120212857Y-112728571D02*
X120212857Y-113728571D01*
X120212857Y-112871428D02*
X120274761Y-112800000D01*
X120398571Y-112728571D01*
X120584285Y-112728571D01*
X120708095Y-112800000D01*
X120770000Y-112942857D01*
X120770000Y-113728571D01*
X133707142Y-122300000D02*
X133564285Y-122228571D01*
X133350000Y-122228571D01*
X133135714Y-122300000D01*
X132992857Y-122442857D01*
X132921428Y-122585714D01*
X132850000Y-122871428D01*
X132850000Y-123085714D01*
X132921428Y-123371428D01*
X132992857Y-123514285D01*
X133135714Y-123657142D01*
X133350000Y-123728571D01*
X133492857Y-123728571D01*
X133707142Y-123657142D01*
X133778571Y-123585714D01*
X133778571Y-123085714D01*
X133492857Y-123085714D01*
X134421428Y-123728571D02*
X134421428Y-122228571D01*
X135278571Y-123728571D01*
X135278571Y-122228571D01*
X135992857Y-123728571D02*
X135992857Y-122228571D01*
X136350000Y-122228571D01*
X136564285Y-122300000D01*
X136707142Y-122442857D01*
X136778571Y-122585714D01*
X136850000Y-122871428D01*
X136850000Y-123085714D01*
X136778571Y-123371428D01*
X136707142Y-123514285D01*
X136564285Y-123657142D01*
X136350000Y-123728571D01*
X135992857Y-123728571D01*
X139492857Y-123728571D02*
X138992857Y-123014285D01*
X138635714Y-123728571D02*
X138635714Y-122228571D01*
X139207142Y-122228571D01*
X139350000Y-122300000D01*
X139421428Y-122371428D01*
X139492857Y-122514285D01*
X139492857Y-122728571D01*
X139421428Y-122871428D01*
X139350000Y-122942857D01*
X139207142Y-123014285D01*
X138635714Y-123014285D01*
X140778571Y-123728571D02*
X140778571Y-122942857D01*
X140707142Y-122800000D01*
X140564285Y-122728571D01*
X140278571Y-122728571D01*
X140135714Y-122800000D01*
X140778571Y-123657142D02*
X140635714Y-123728571D01*
X140278571Y-123728571D01*
X140135714Y-123657142D01*
X140064285Y-123514285D01*
X140064285Y-123371428D01*
X140135714Y-123228571D01*
X140278571Y-123157142D01*
X140635714Y-123157142D01*
X140778571Y-123085714D01*
X141492857Y-123728571D02*
X141492857Y-122728571D01*
X141492857Y-122228571D02*
X141421428Y-122300000D01*
X141492857Y-122371428D01*
X141564285Y-122300000D01*
X141492857Y-122228571D01*
X141492857Y-122371428D01*
X142421428Y-123728571D02*
X142278571Y-123657142D01*
X142207142Y-123514285D01*
X142207142Y-122228571D01*
X132696428Y-103132142D02*
X133839285Y-103132142D01*
X133267857Y-103703571D02*
X133267857Y-102560714D01*
X135267857Y-102203571D02*
X134553571Y-102203571D01*
X134482142Y-102917857D01*
X134553571Y-102846428D01*
X134696428Y-102775000D01*
X135053571Y-102775000D01*
X135196428Y-102846428D01*
X135267857Y-102917857D01*
X135339285Y-103060714D01*
X135339285Y-103417857D01*
X135267857Y-103560714D01*
X135196428Y-103632142D01*
X135053571Y-103703571D01*
X134696428Y-103703571D01*
X134553571Y-103632142D01*
X134482142Y-103560714D01*
X135767857Y-102203571D02*
X136267857Y-103703571D01*
X136767857Y-102203571D01*
X139267857Y-103703571D02*
X138767857Y-102989285D01*
X138410714Y-103703571D02*
X138410714Y-102203571D01*
X138982142Y-102203571D01*
X139125000Y-102275000D01*
X139196428Y-102346428D01*
X139267857Y-102489285D01*
X139267857Y-102703571D01*
X139196428Y-102846428D01*
X139125000Y-102917857D01*
X138982142Y-102989285D01*
X138410714Y-102989285D01*
X140553571Y-103703571D02*
X140553571Y-102917857D01*
X140482142Y-102775000D01*
X140339285Y-102703571D01*
X140053571Y-102703571D01*
X139910714Y-102775000D01*
X140553571Y-103632142D02*
X140410714Y-103703571D01*
X140053571Y-103703571D01*
X139910714Y-103632142D01*
X139839285Y-103489285D01*
X139839285Y-103346428D01*
X139910714Y-103203571D01*
X140053571Y-103132142D01*
X140410714Y-103132142D01*
X140553571Y-103060714D01*
X141267857Y-103703571D02*
X141267857Y-102703571D01*
X141267857Y-102203571D02*
X141196428Y-102275000D01*
X141267857Y-102346428D01*
X141339285Y-102275000D01*
X141267857Y-102203571D01*
X141267857Y-102346428D01*
X142196428Y-103703571D02*
X142053571Y-103632142D01*
X141982142Y-103489285D01*
X141982142Y-102203571D01*
D11*
X120600000Y-78880000D02*
X119400000Y-78880000D01*
X119400000Y-77120000D02*
X120600000Y-77120000D01*
D12*
X165040000Y-67200000D02*
X111700000Y-67200000D01*
X152340000Y-133240000D02*
X163516000Y-133240000D01*
X149800000Y-135780000D02*
X152340000Y-133240000D01*
X115510000Y-135780000D02*
X149800000Y-135780000D01*
X112970000Y-133240000D02*
X115510000Y-135780000D01*
X111700000Y-133240000D02*
X112970000Y-133240000D01*
X165040000Y-131716000D02*
X163516000Y-133240000D01*
X111700000Y-67200000D02*
X111700000Y-133240000D01*
X165040000Y-67200000D02*
X165040000Y-131716000D01*
D11*
X131850000Y-84925000D02*
X135750000Y-84925000D01*
X131850000Y-81925000D02*
X135750000Y-81925000D01*
X131850000Y-82725000D02*
X131850000Y-81925000D01*
X138750000Y-82725000D02*
X138750000Y-81925000D01*
X138750000Y-81925000D02*
X142650000Y-81925000D01*
X138750000Y-84925000D02*
X142650000Y-84925000D01*
X125593782Y-98358846D02*
X126806218Y-97658846D01*
X126806218Y-97658846D02*
X125406218Y-95233975D01*
X125593782Y-98358846D02*
X124193782Y-95933975D01*
X147868782Y-97483846D02*
X149268782Y-95058975D01*
X149081218Y-98183846D02*
X150481218Y-95758975D01*
X147868782Y-97483846D02*
X149081218Y-98183846D01*
X122504872Y-86360521D02*
X123773703Y-86952187D01*
X123773703Y-86952187D02*
X124957034Y-84414525D01*
X122504872Y-86360521D02*
X123688203Y-83822859D01*
X151526297Y-87652187D02*
X150342966Y-85114525D01*
X152795128Y-87060521D02*
X151611797Y-84522859D01*
X151526297Y-87652187D02*
X152795128Y-87060521D01*
X120600000Y-76880000D02*
X119400000Y-76880000D01*
X119400000Y-75120000D02*
X120600000Y-75120000D01*
X119400000Y-73120000D02*
X120600000Y-73120000D01*
X120600000Y-74880000D02*
X119400000Y-74880000D01*
X155600000Y-78880000D02*
X154400000Y-78880000D01*
X154400000Y-77120000D02*
X155600000Y-77120000D01*
X154400000Y-75120000D02*
X155600000Y-75120000D01*
X155600000Y-76880000D02*
X154400000Y-76880000D01*
X154400000Y-73120000D02*
X155600000Y-73120000D01*
X155600000Y-74880000D02*
X154400000Y-74880000D01*
X128449957Y-93972084D02*
X129528510Y-93446039D01*
X130300043Y-95027916D02*
X129221490Y-95553961D01*
X145364908Y-93243520D02*
X146434116Y-93788309D01*
X145635092Y-95356480D02*
X144565884Y-94811691D01*
X126964908Y-85718520D02*
X128034116Y-86263309D01*
X127235092Y-87831480D02*
X126165884Y-87286691D01*
X147384311Y-86681020D02*
X148471881Y-86173878D01*
X149215689Y-87768980D02*
X148128119Y-88276122D01*
D13*
X122125000Y-125450000D02*
X124125000Y-125450000D01*
X124125000Y-125450000D02*
X124125000Y-127250000D01*
X145925000Y-125500000D02*
X145925000Y-127300000D01*
X143925000Y-125500000D02*
X145925000Y-125500000D01*
D12*
X144061142Y-129684000D02*
X144108761Y-129636380D01*
X144156380Y-129684000D01*
X144108761Y-129731619D01*
X144061142Y-129684000D01*
X144156380Y-129684000D01*
X132861904Y-81427380D02*
X132861904Y-80427380D01*
X133100000Y-80427380D01*
X133242857Y-80475000D01*
X133338095Y-80570238D01*
X133385714Y-80665476D01*
X133433333Y-80855952D01*
X133433333Y-80998809D01*
X133385714Y-81189285D01*
X133338095Y-81284523D01*
X133242857Y-81379761D01*
X133100000Y-81427380D01*
X132861904Y-81427380D01*
X134385714Y-81427380D02*
X133814285Y-81427380D01*
X134100000Y-81427380D02*
X134100000Y-80427380D01*
X134004761Y-80570238D01*
X133909523Y-80665476D01*
X133814285Y-80713095D01*
X139811904Y-81377380D02*
X139811904Y-80377380D01*
X140050000Y-80377380D01*
X140192857Y-80425000D01*
X140288095Y-80520238D01*
X140335714Y-80615476D01*
X140383333Y-80805952D01*
X140383333Y-80948809D01*
X140335714Y-81139285D01*
X140288095Y-81234523D01*
X140192857Y-81329761D01*
X140050000Y-81377380D01*
X139811904Y-81377380D01*
X140764285Y-80472619D02*
X140811904Y-80425000D01*
X140907142Y-80377380D01*
X141145238Y-80377380D01*
X141240476Y-80425000D01*
X141288095Y-80472619D01*
X141335714Y-80567857D01*
X141335714Y-80663095D01*
X141288095Y-80805952D01*
X140716666Y-81377380D01*
X141335714Y-81377380D01*
X127411955Y-96096745D02*
X126545930Y-95596745D01*
X126664977Y-95390549D01*
X126777645Y-95290640D01*
X126907743Y-95255781D01*
X127014031Y-95262160D01*
X127202798Y-95316159D01*
X127326516Y-95387588D01*
X127467664Y-95524065D01*
X127526333Y-95612924D01*
X127561192Y-95743021D01*
X127531003Y-95890549D01*
X127411955Y-96096745D01*
X126998311Y-94813198D02*
X127307835Y-94277087D01*
X127471082Y-94756239D01*
X127542511Y-94632521D01*
X127631369Y-94573852D01*
X127696418Y-94556422D01*
X127802706Y-94562802D01*
X128008903Y-94681849D01*
X128067572Y-94770708D01*
X128085002Y-94835757D01*
X128078622Y-94942045D01*
X127935765Y-95189480D01*
X127846906Y-95248150D01*
X127781858Y-95265579D01*
X149983664Y-91434001D02*
X150849690Y-90934001D01*
X150968738Y-91140197D01*
X150998927Y-91287725D01*
X150964067Y-91417822D01*
X150905398Y-91506681D01*
X150764250Y-91643158D01*
X150640533Y-91714587D01*
X150451766Y-91768585D01*
X150345478Y-91774965D01*
X150215380Y-91740106D01*
X150102712Y-91640197D01*
X149983664Y-91434001D01*
X151275300Y-92337847D02*
X150697950Y-92671180D01*
X151486167Y-91941174D02*
X150748530Y-92092120D01*
X151058054Y-92628231D01*
X120761904Y-84277379D02*
X120761904Y-83277379D01*
X121000000Y-83277379D01*
X121142857Y-83324999D01*
X121238095Y-83420237D01*
X121285714Y-83515475D01*
X121333333Y-83705951D01*
X121333333Y-83848808D01*
X121285714Y-84039284D01*
X121238095Y-84134522D01*
X121142857Y-84229760D01*
X121000000Y-84277379D01*
X120761904Y-84277379D01*
X122238095Y-83277379D02*
X121761904Y-83277379D01*
X121714285Y-83753570D01*
X121761904Y-83705951D01*
X121857142Y-83658332D01*
X122095238Y-83658332D01*
X122190476Y-83705951D01*
X122238095Y-83753570D01*
X122285714Y-83848808D01*
X122285714Y-84086903D01*
X122238095Y-84182141D01*
X122190476Y-84229760D01*
X122095238Y-84277379D01*
X121857142Y-84277379D01*
X121761904Y-84229760D01*
X121714285Y-84182141D01*
X153186904Y-84577380D02*
X153186904Y-83577380D01*
X153425000Y-83577380D01*
X153567857Y-83625000D01*
X153663095Y-83720238D01*
X153710714Y-83815476D01*
X153758333Y-84005952D01*
X153758333Y-84148809D01*
X153710714Y-84339285D01*
X153663095Y-84434523D01*
X153567857Y-84529761D01*
X153425000Y-84577380D01*
X153186904Y-84577380D01*
X154615476Y-83577380D02*
X154425000Y-83577380D01*
X154329761Y-83625000D01*
X154282142Y-83672619D01*
X154186904Y-83815476D01*
X154139285Y-84005952D01*
X154139285Y-84386904D01*
X154186904Y-84482142D01*
X154234523Y-84529761D01*
X154329761Y-84577380D01*
X154520238Y-84577380D01*
X154615476Y-84529761D01*
X154663095Y-84482142D01*
X154710714Y-84386904D01*
X154710714Y-84148809D01*
X154663095Y-84053571D01*
X154615476Y-84005952D01*
X154520238Y-83958333D01*
X154329761Y-83958333D01*
X154234523Y-84005952D01*
X154186904Y-84053571D01*
X154139285Y-84148809D01*
D10*
X124058333Y-130059523D02*
X124344047Y-130154761D01*
X124820238Y-130154761D01*
X125010714Y-130059523D01*
X125105952Y-129964285D01*
X125201190Y-129773809D01*
X125201190Y-129583333D01*
X125105952Y-129392857D01*
X125010714Y-129297619D01*
X124820238Y-129202380D01*
X124439285Y-129107142D01*
X124248809Y-129011904D01*
X124153571Y-128916666D01*
X124058333Y-128726190D01*
X124058333Y-128535714D01*
X124153571Y-128345238D01*
X124248809Y-128250000D01*
X124439285Y-128154761D01*
X124915476Y-128154761D01*
X125201190Y-128250000D01*
X125867857Y-128154761D02*
X126344047Y-130154761D01*
X126725000Y-128726190D01*
X127105952Y-130154761D01*
X127582142Y-128154761D01*
X129391666Y-130154761D02*
X128248809Y-130154761D01*
X128820238Y-130154761D02*
X128820238Y-128154761D01*
X128629761Y-128440476D01*
X128439285Y-128630952D01*
X128248809Y-128726190D01*
X145783333Y-130059523D02*
X146069047Y-130154761D01*
X146545238Y-130154761D01*
X146735714Y-130059523D01*
X146830952Y-129964285D01*
X146926190Y-129773809D01*
X146926190Y-129583333D01*
X146830952Y-129392857D01*
X146735714Y-129297619D01*
X146545238Y-129202380D01*
X146164285Y-129107142D01*
X145973809Y-129011904D01*
X145878571Y-128916666D01*
X145783333Y-128726190D01*
X145783333Y-128535714D01*
X145878571Y-128345238D01*
X145973809Y-128250000D01*
X146164285Y-128154761D01*
X146640476Y-128154761D01*
X146926190Y-128250000D01*
X147592857Y-128154761D02*
X148069047Y-130154761D01*
X148450000Y-128726190D01*
X148830952Y-130154761D01*
X149307142Y-128154761D01*
X149973809Y-128345238D02*
X150069047Y-128250000D01*
X150259523Y-128154761D01*
X150735714Y-128154761D01*
X150926190Y-128250000D01*
X151021428Y-128345238D01*
X151116666Y-128535714D01*
X151116666Y-128726190D01*
X151021428Y-129011904D01*
X149878571Y-130154761D01*
X151116666Y-130154761D01*
D14*
G36*
X127884019Y-76750223D02*
X127228689Y-77194911D01*
X127210197Y-77210197D01*
X126585197Y-77835197D01*
X126558946Y-77873420D01*
X126462102Y-78091319D01*
X126316098Y-78334659D01*
X126302633Y-78366009D01*
X126177633Y-78816009D01*
X126173144Y-78843959D01*
X126148144Y-79368959D01*
X126148000Y-79375000D01*
X126148000Y-79675000D01*
X126151252Y-79703557D01*
X126226252Y-80028557D01*
X126238507Y-80060814D01*
X126388507Y-80335814D01*
X126415041Y-80369398D01*
X126665041Y-80594398D01*
X126701154Y-80617231D01*
X127001154Y-80742231D01*
X127040260Y-80751626D01*
X127365260Y-80776626D01*
X127415161Y-80770483D01*
X127715161Y-80670483D01*
X127751200Y-80651600D01*
X128051200Y-80426600D01*
X128067844Y-80411654D01*
X128417844Y-80036654D01*
X128430670Y-80020447D01*
X128729351Y-79572425D01*
X129052956Y-79124357D01*
X129056482Y-79119214D01*
X129324652Y-78706645D01*
X129862016Y-78921590D01*
X129631255Y-79529959D01*
X129627182Y-79542679D01*
X129528144Y-79919024D01*
X129005076Y-79898101D01*
X128956128Y-79905819D01*
X128897587Y-79949897D01*
X128625823Y-80320484D01*
X128290014Y-80704266D01*
X127846539Y-81007696D01*
X127316546Y-81145955D01*
X126767890Y-81077373D01*
X126354120Y-80824514D01*
X126032393Y-80502787D01*
X125848846Y-80066862D01*
X125777317Y-79494631D01*
X125801529Y-78889315D01*
X125872858Y-78508894D01*
X126039293Y-78057142D01*
X126302665Y-77650112D01*
X126641887Y-77238200D01*
X127103640Y-76825053D01*
X127491554Y-76558362D01*
X127961273Y-76302152D01*
X127884019Y-76750223D01*
X127884019Y-76750223D01*
G37*
X127884019Y-76750223D02*
X127228689Y-77194911D01*
X127210197Y-77210197D01*
X126585197Y-77835197D01*
X126558946Y-77873420D01*
X126462102Y-78091319D01*
X126316098Y-78334659D01*
X126302633Y-78366009D01*
X126177633Y-78816009D01*
X126173144Y-78843959D01*
X126148144Y-79368959D01*
X126148000Y-79375000D01*
X126148000Y-79675000D01*
X126151252Y-79703557D01*
X126226252Y-80028557D01*
X126238507Y-80060814D01*
X126388507Y-80335814D01*
X126415041Y-80369398D01*
X126665041Y-80594398D01*
X126701154Y-80617231D01*
X127001154Y-80742231D01*
X127040260Y-80751626D01*
X127365260Y-80776626D01*
X127415161Y-80770483D01*
X127715161Y-80670483D01*
X127751200Y-80651600D01*
X128051200Y-80426600D01*
X128067844Y-80411654D01*
X128417844Y-80036654D01*
X128430670Y-80020447D01*
X128729351Y-79572425D01*
X129052956Y-79124357D01*
X129056482Y-79119214D01*
X129324652Y-78706645D01*
X129862016Y-78921590D01*
X129631255Y-79529959D01*
X129627182Y-79542679D01*
X129528144Y-79919024D01*
X129005076Y-79898101D01*
X128956128Y-79905819D01*
X128897587Y-79949897D01*
X128625823Y-80320484D01*
X128290014Y-80704266D01*
X127846539Y-81007696D01*
X127316546Y-81145955D01*
X126767890Y-81077373D01*
X126354120Y-80824514D01*
X126032393Y-80502787D01*
X125848846Y-80066862D01*
X125777317Y-79494631D01*
X125801529Y-78889315D01*
X125872858Y-78508894D01*
X126039293Y-78057142D01*
X126302665Y-77650112D01*
X126641887Y-77238200D01*
X127103640Y-76825053D01*
X127491554Y-76558362D01*
X127961273Y-76302152D01*
X127884019Y-76750223D01*
G36*
X148366846Y-77246177D02*
X148857406Y-77712208D01*
X149248769Y-78176952D01*
X149568697Y-78644538D01*
X149811293Y-79032693D01*
X149953884Y-79389169D01*
X150076179Y-79878350D01*
X150196687Y-80456790D01*
X150149044Y-80933228D01*
X150075834Y-81372486D01*
X149957556Y-81798287D01*
X149724971Y-82170423D01*
X149449768Y-82445626D01*
X149091059Y-82624981D01*
X148749104Y-82647778D01*
X148302035Y-82624248D01*
X147877901Y-82459307D01*
X147466914Y-82241726D01*
X147132375Y-82002769D01*
X146795630Y-81666024D01*
X146550663Y-81347567D01*
X146513368Y-81314939D01*
X146466426Y-81299067D01*
X146429935Y-81299595D01*
X145931095Y-81379409D01*
X145900523Y-81180689D01*
X145899534Y-81175093D01*
X145774534Y-80550093D01*
X145772887Y-80542942D01*
X145622887Y-79967942D01*
X145622114Y-79965110D01*
X145472114Y-79440110D01*
X145471219Y-79437119D01*
X145346219Y-79037119D01*
X145343914Y-79030407D01*
X145270414Y-78834407D01*
X145242797Y-78742349D01*
X145507169Y-78726798D01*
X145874340Y-78707473D01*
X145951024Y-79052550D01*
X145955049Y-79066722D01*
X146155049Y-79641722D01*
X146155830Y-79643905D01*
X146330830Y-80118905D01*
X146336408Y-80131796D01*
X146536408Y-80531796D01*
X146538982Y-80536677D01*
X146788982Y-80986677D01*
X146796656Y-80998817D01*
X147046656Y-81348817D01*
X147052436Y-81356303D01*
X147302436Y-81656303D01*
X147316370Y-81670577D01*
X147516370Y-81845577D01*
X147534659Y-81858902D01*
X147909659Y-82083902D01*
X147929410Y-82093535D01*
X148254410Y-82218535D01*
X148271443Y-82223748D01*
X148596443Y-82298748D01*
X148625000Y-82302000D01*
X148825000Y-82302000D01*
X148861493Y-82296644D01*
X149111493Y-82221644D01*
X149157651Y-82196426D01*
X149332651Y-82046426D01*
X149355670Y-82020447D01*
X149505670Y-81795447D01*
X149513592Y-81781796D01*
X149638592Y-81531796D01*
X149648208Y-81505802D01*
X149748208Y-81105802D01*
X149751130Y-81089839D01*
X149801130Y-80664839D01*
X149802000Y-80650000D01*
X149802000Y-80275000D01*
X149800446Y-80255193D01*
X149725446Y-79780193D01*
X149720483Y-79759839D01*
X149645483Y-79534839D01*
X149640085Y-79521294D01*
X149465085Y-79146294D01*
X149458367Y-79133776D01*
X149183367Y-78683776D01*
X149177413Y-78674897D01*
X148902413Y-78299897D01*
X148898293Y-78294579D01*
X148673293Y-78019579D01*
X148664803Y-78010197D01*
X148414803Y-77760197D01*
X148405421Y-77751707D01*
X148130421Y-77526707D01*
X148126200Y-77523400D01*
X148005222Y-77432667D01*
X148152952Y-77078116D01*
X148366846Y-77246177D01*
X148366846Y-77246177D01*
G37*
X148366846Y-77246177D02*
X148857406Y-77712208D01*
X149248769Y-78176952D01*
X149568697Y-78644538D01*
X149811293Y-79032693D01*
X149953884Y-79389169D01*
X150076179Y-79878350D01*
X150196687Y-80456790D01*
X150149044Y-80933228D01*
X150075834Y-81372486D01*
X149957556Y-81798287D01*
X149724971Y-82170423D01*
X149449768Y-82445626D01*
X149091059Y-82624981D01*
X148749104Y-82647778D01*
X148302035Y-82624248D01*
X147877901Y-82459307D01*
X147466914Y-82241726D01*
X147132375Y-82002769D01*
X146795630Y-81666024D01*
X146550663Y-81347567D01*
X146513368Y-81314939D01*
X146466426Y-81299067D01*
X146429935Y-81299595D01*
X145931095Y-81379409D01*
X145900523Y-81180689D01*
X145899534Y-81175093D01*
X145774534Y-80550093D01*
X145772887Y-80542942D01*
X145622887Y-79967942D01*
X145622114Y-79965110D01*
X145472114Y-79440110D01*
X145471219Y-79437119D01*
X145346219Y-79037119D01*
X145343914Y-79030407D01*
X145270414Y-78834407D01*
X145242797Y-78742349D01*
X145507169Y-78726798D01*
X145874340Y-78707473D01*
X145951024Y-79052550D01*
X145955049Y-79066722D01*
X146155049Y-79641722D01*
X146155830Y-79643905D01*
X146330830Y-80118905D01*
X146336408Y-80131796D01*
X146536408Y-80531796D01*
X146538982Y-80536677D01*
X146788982Y-80986677D01*
X146796656Y-80998817D01*
X147046656Y-81348817D01*
X147052436Y-81356303D01*
X147302436Y-81656303D01*
X147316370Y-81670577D01*
X147516370Y-81845577D01*
X147534659Y-81858902D01*
X147909659Y-82083902D01*
X147929410Y-82093535D01*
X148254410Y-82218535D01*
X148271443Y-82223748D01*
X148596443Y-82298748D01*
X148625000Y-82302000D01*
X148825000Y-82302000D01*
X148861493Y-82296644D01*
X149111493Y-82221644D01*
X149157651Y-82196426D01*
X149332651Y-82046426D01*
X149355670Y-82020447D01*
X149505670Y-81795447D01*
X149513592Y-81781796D01*
X149638592Y-81531796D01*
X149648208Y-81505802D01*
X149748208Y-81105802D01*
X149751130Y-81089839D01*
X149801130Y-80664839D01*
X149802000Y-80650000D01*
X149802000Y-80275000D01*
X149800446Y-80255193D01*
X149725446Y-79780193D01*
X149720483Y-79759839D01*
X149645483Y-79534839D01*
X149640085Y-79521294D01*
X149465085Y-79146294D01*
X149458367Y-79133776D01*
X149183367Y-78683776D01*
X149177413Y-78674897D01*
X148902413Y-78299897D01*
X148898293Y-78294579D01*
X148673293Y-78019579D01*
X148664803Y-78010197D01*
X148414803Y-77760197D01*
X148405421Y-77751707D01*
X148130421Y-77526707D01*
X148126200Y-77523400D01*
X148005222Y-77432667D01*
X148152952Y-77078116D01*
X148366846Y-77246177D01*
G36*
X129325142Y-81026771D02*
X129324114Y-81033215D01*
X129174114Y-82158215D01*
X129173572Y-82162959D01*
X129073572Y-83212959D01*
X129073038Y-83221903D01*
X129048038Y-84246903D01*
X129048167Y-84256504D01*
X129098167Y-85231504D01*
X129098301Y-85233738D01*
X129148301Y-85958738D01*
X129149165Y-85967159D01*
X129224165Y-86517159D01*
X129225899Y-86526979D01*
X129350899Y-87101979D01*
X129353502Y-87111978D01*
X129528502Y-87686978D01*
X129529042Y-87688707D01*
X129729042Y-88313707D01*
X129732456Y-88323086D01*
X129957456Y-88873086D01*
X129960225Y-88879367D01*
X130185225Y-89354367D01*
X130187615Y-89359150D01*
X130437615Y-89834150D01*
X130445069Y-89846544D01*
X130820069Y-90396544D01*
X130826290Y-90404908D01*
X131251290Y-90929908D01*
X131256680Y-90936142D01*
X131556680Y-91261142D01*
X131560197Y-91264803D01*
X132010197Y-91714803D01*
X132018697Y-91722564D01*
X132468697Y-92097564D01*
X132473800Y-92101600D01*
X132873800Y-92401600D01*
X132878285Y-92404814D01*
X133353285Y-92729814D01*
X133361990Y-92735267D01*
X134061990Y-93135267D01*
X134070633Y-93139775D01*
X134545633Y-93364775D01*
X134549362Y-93366468D01*
X135124362Y-93616468D01*
X135134839Y-93620483D01*
X135734839Y-93820483D01*
X135739165Y-93821839D01*
X136164165Y-93946839D01*
X136179121Y-93950272D01*
X136629121Y-94025272D01*
X136638502Y-94026478D01*
X136913502Y-94051478D01*
X136962778Y-94046251D01*
X137006303Y-94022564D01*
X137037451Y-93984024D01*
X137052000Y-93925000D01*
X137052000Y-92325000D01*
X137042333Y-92276399D01*
X137014803Y-92235197D01*
X136973601Y-92207667D01*
X136939025Y-92198777D01*
X136729125Y-92175455D01*
X136473394Y-92082462D01*
X136155014Y-91935517D01*
X135815165Y-91765593D01*
X135573767Y-91596614D01*
X135299698Y-91397291D01*
X135295447Y-91394330D01*
X135072151Y-91245466D01*
X134920313Y-91137010D01*
X134877000Y-91064822D01*
X134877000Y-90949460D01*
X134908236Y-90871370D01*
X134943604Y-90836002D01*
X135033165Y-90806148D01*
X135096846Y-90818885D01*
X135573800Y-91176600D01*
X135577170Y-91179042D01*
X135827170Y-91354042D01*
X135829553Y-91355670D01*
X136129553Y-91555670D01*
X136143204Y-91563592D01*
X136443204Y-91713592D01*
X136459839Y-91720483D01*
X136834839Y-91845483D01*
X136857039Y-91850724D01*
X137207039Y-91900724D01*
X137237637Y-91901370D01*
X137487637Y-91876370D01*
X137507723Y-91872712D01*
X137882723Y-91772712D01*
X137900904Y-91766352D01*
X138300904Y-91591352D01*
X138318676Y-91581830D01*
X138668676Y-91356830D01*
X138675103Y-91352413D01*
X139050103Y-91077413D01*
X139056303Y-91072564D01*
X139170980Y-90977000D01*
X139237423Y-90977000D01*
X139321846Y-90993885D01*
X139378897Y-91036673D01*
X139415837Y-91098239D01*
X139405393Y-91150459D01*
X139328682Y-91265525D01*
X139143474Y-91427582D01*
X138899969Y-91622386D01*
X138686132Y-91764944D01*
X138394986Y-91910517D01*
X138078168Y-92056741D01*
X137721766Y-92175541D01*
X137534248Y-92198981D01*
X137487221Y-92214602D01*
X137449752Y-92247030D01*
X137427545Y-92291328D01*
X137423062Y-92328967D01*
X137473062Y-93928967D01*
X137484243Y-93977242D01*
X137513046Y-94017564D01*
X137555088Y-94043793D01*
X137614025Y-94051223D01*
X137839025Y-94026223D01*
X137842961Y-94025724D01*
X138192961Y-93975724D01*
X138197718Y-93974951D01*
X138747718Y-93874951D01*
X138765161Y-93870483D01*
X139515161Y-93620483D01*
X139520041Y-93618745D01*
X140245041Y-93343745D01*
X140254957Y-93339493D01*
X140879957Y-93039493D01*
X140888771Y-93034828D01*
X141663771Y-92584828D01*
X141671311Y-92580089D01*
X142371311Y-92105089D01*
X142373817Y-92103344D01*
X142898817Y-91728344D01*
X142910206Y-91719175D01*
X143435206Y-91244175D01*
X143439803Y-91239803D01*
X143864803Y-90814803D01*
X143867331Y-90812201D01*
X144292331Y-90362201D01*
X144305670Y-90345447D01*
X144655670Y-89820447D01*
X144658902Y-89815341D01*
X144958902Y-89315341D01*
X144963592Y-89306796D01*
X145263592Y-88706796D01*
X145267917Y-88697167D01*
X145517917Y-88072167D01*
X145520958Y-88063707D01*
X145720958Y-87438707D01*
X145722971Y-87431735D01*
X145922971Y-86656735D01*
X145924101Y-86651979D01*
X146049101Y-86076979D01*
X146050724Y-86067961D01*
X146125724Y-85542961D01*
X146126095Y-85540131D01*
X146201095Y-84915131D01*
X146201919Y-84904533D01*
X146226919Y-84204533D01*
X146226869Y-84194233D01*
X146201869Y-83644233D01*
X146201842Y-83643658D01*
X146176842Y-83143658D01*
X146176653Y-83140618D01*
X146126653Y-82465618D01*
X146124534Y-82450093D01*
X146025226Y-81953553D01*
X145968492Y-81556418D01*
X146365697Y-81495310D01*
X146449044Y-82141252D01*
X146449067Y-82141426D01*
X146523863Y-82714860D01*
X146573370Y-83185181D01*
X146598000Y-83628517D01*
X146598000Y-84347563D01*
X146573250Y-84991072D01*
X146474388Y-85954970D01*
X146350899Y-86523021D01*
X146350021Y-86572567D01*
X146361408Y-86606796D01*
X146411408Y-86706796D01*
X146441789Y-86745943D01*
X146484839Y-86770483D01*
X146534003Y-86776680D01*
X146576469Y-86766103D01*
X149000364Y-85691593D01*
X149474283Y-85492048D01*
X149515324Y-85464278D01*
X149538592Y-85431796D01*
X149588592Y-85331796D01*
X149602000Y-85275000D01*
X149602000Y-84975000D01*
X149601719Y-84966552D01*
X149577000Y-84595767D01*
X149577000Y-84200000D01*
X149576824Y-84193325D01*
X149552913Y-83739024D01*
X149669546Y-83319147D01*
X149823399Y-82989462D01*
X150205368Y-82764774D01*
X150509783Y-82647692D01*
X150893385Y-82575766D01*
X151353147Y-82527370D01*
X151783067Y-82551255D01*
X152105709Y-82620392D01*
X152398377Y-82777983D01*
X152566764Y-82946370D01*
X152655699Y-83168707D01*
X152721851Y-83367163D01*
X152698583Y-83785992D01*
X152625208Y-84226242D01*
X152477293Y-84916510D01*
X152329517Y-85359839D01*
X152323320Y-85409003D01*
X152336408Y-85456796D01*
X152384659Y-85508902D01*
X152509659Y-85583902D01*
X152551237Y-85599757D01*
X153071070Y-85698773D01*
X153509297Y-85820502D01*
X153864203Y-85962465D01*
X154085563Y-86117417D01*
X154285123Y-86383498D01*
X154373000Y-86669097D01*
X154373000Y-87039489D01*
X154326366Y-87319291D01*
X154233494Y-87597909D01*
X154043655Y-87930127D01*
X153826569Y-88219575D01*
X153647699Y-88420803D01*
X153356382Y-88555257D01*
X153103563Y-88624208D01*
X152777140Y-88647524D01*
X152334439Y-88600924D01*
X151984691Y-88437708D01*
X151620150Y-88218984D01*
X151361455Y-88030841D01*
X151045973Y-87666824D01*
X151044398Y-87665041D01*
X150819398Y-87415041D01*
X150779700Y-87385384D01*
X150731675Y-87373176D01*
X150664512Y-87388330D01*
X149467776Y-88036562D01*
X146696192Y-89334962D01*
X144921471Y-90159832D01*
X144880079Y-90190626D01*
X144680079Y-90415626D01*
X144674337Y-90422567D01*
X144428259Y-90742468D01*
X144008927Y-91186467D01*
X143535197Y-91660197D01*
X143507667Y-91701399D01*
X143498000Y-91750000D01*
X143507667Y-91798601D01*
X143535197Y-91839803D01*
X143562440Y-91860523D01*
X144887440Y-92610523D01*
X144889789Y-92611820D01*
X147489789Y-94011820D01*
X147490850Y-94012385D01*
X148440850Y-94512385D01*
X148459839Y-94520483D01*
X148684839Y-94595483D01*
X148749907Y-94599534D01*
X148874907Y-94574534D01*
X148931303Y-94547564D01*
X149076091Y-94426907D01*
X149220447Y-94330670D01*
X149233630Y-94320577D01*
X149432038Y-94146970D01*
X149694463Y-93932258D01*
X149927062Y-93815959D01*
X150160302Y-93722663D01*
X150406943Y-93677819D01*
X150732950Y-93701105D01*
X150955654Y-93745646D01*
X151153999Y-93855838D01*
X151390164Y-94044770D01*
X151579610Y-94234216D01*
X151738213Y-94438134D01*
X151853676Y-94738340D01*
X151923000Y-95015634D01*
X151923000Y-95313552D01*
X151876973Y-95566700D01*
X151783920Y-95822595D01*
X151645207Y-96076902D01*
X151491780Y-96252248D01*
X151318486Y-96360556D01*
X151141069Y-96427088D01*
X150879680Y-96474613D01*
X150357585Y-96549198D01*
X149983215Y-96599114D01*
X149936318Y-96615120D01*
X149899117Y-96647854D01*
X149877273Y-96692333D01*
X149874114Y-96741785D01*
X149886408Y-96781796D01*
X149978801Y-96966582D01*
X150025466Y-97199907D01*
X150025819Y-97201610D01*
X150099773Y-97546731D01*
X150148000Y-97908430D01*
X150148000Y-98212423D01*
X150078801Y-98558418D01*
X149943000Y-98830021D01*
X149712539Y-99106573D01*
X149468491Y-99284063D01*
X149152060Y-99374472D01*
X148877169Y-99397379D01*
X148480692Y-99350735D01*
X148185669Y-99237265D01*
X147861715Y-99005869D01*
X147612004Y-98710756D01*
X147477808Y-98330535D01*
X147501295Y-97696389D01*
X147595948Y-97388766D01*
X147670483Y-97165161D01*
X147676680Y-97115997D01*
X147663592Y-97068204D01*
X147633211Y-97029057D01*
X147611266Y-97013755D01*
X144161428Y-95113844D01*
X142261428Y-94063844D01*
X142258666Y-94062362D01*
X141058666Y-93437362D01*
X141011095Y-93423486D01*
X140946780Y-93434689D01*
X140298357Y-93733961D01*
X139780462Y-93955916D01*
X139088836Y-94178224D01*
X138548183Y-94325675D01*
X137936761Y-94423503D01*
X137446818Y-94448000D01*
X137032444Y-94448000D01*
X136619910Y-94399467D01*
X136127862Y-94301057D01*
X135633668Y-94177508D01*
X135141919Y-94029984D01*
X134652062Y-93834041D01*
X134208834Y-93612427D01*
X133935814Y-93463507D01*
X133888519Y-93448722D01*
X133821037Y-93460035D01*
X132596037Y-94035035D01*
X132594815Y-94035616D01*
X129744815Y-95410616D01*
X129744118Y-95410955D01*
X127244118Y-96635955D01*
X127229553Y-96644330D01*
X127079553Y-96744330D01*
X127044477Y-96779332D01*
X127024276Y-96832039D01*
X126999276Y-97007039D01*
X126998000Y-97025000D01*
X126998000Y-97175000D01*
X127011408Y-97231796D01*
X127085114Y-97379208D01*
X127182968Y-97599379D01*
X127281575Y-97845897D01*
X127351756Y-98033046D01*
X127398000Y-98310511D01*
X127398000Y-98610535D01*
X127330168Y-98904475D01*
X127195448Y-99151461D01*
X127017508Y-99351643D01*
X126716940Y-99536608D01*
X126436025Y-99653656D01*
X126131637Y-99723900D01*
X125750561Y-99747717D01*
X125426366Y-99724560D01*
X125106429Y-99610297D01*
X124783004Y-99402381D01*
X124579766Y-99176562D01*
X124392097Y-98824682D01*
X124275635Y-98475296D01*
X124253437Y-98142324D01*
X124444870Y-97591955D01*
X124619870Y-97091955D01*
X124626801Y-97042889D01*
X124614427Y-96994905D01*
X124584633Y-96955310D01*
X124548846Y-96932769D01*
X124248846Y-96807769D01*
X124245590Y-96806465D01*
X123926310Y-96683665D01*
X123583534Y-96512277D01*
X123263436Y-96339917D01*
X122951384Y-96147885D01*
X122716729Y-95936695D01*
X122482000Y-95655021D01*
X122366576Y-95424171D01*
X122304106Y-95257587D01*
X122325498Y-95022274D01*
X122418103Y-94675005D01*
X122550857Y-94453749D01*
X122782761Y-94221845D01*
X123043038Y-94032553D01*
X123304980Y-93889675D01*
X123592785Y-93769756D01*
X123826308Y-93699700D01*
X123996436Y-93678434D01*
X124244855Y-93723601D01*
X124550750Y-93817722D01*
X124858256Y-93983302D01*
X125099833Y-94152406D01*
X125418992Y-94397913D01*
X125640626Y-94594921D01*
X125645664Y-94599170D01*
X125770664Y-94699170D01*
X125793204Y-94713592D01*
X125943204Y-94788592D01*
X125979121Y-94800272D01*
X126129121Y-94825272D01*
X126150000Y-94827000D01*
X126325000Y-94827000D01*
X126365161Y-94820483D01*
X126815161Y-94670483D01*
X126833774Y-94662582D01*
X130232822Y-92888079D01*
X130731796Y-92638592D01*
X130733746Y-92637596D01*
X131308746Y-92337596D01*
X131318676Y-92331830D01*
X131668676Y-92106830D01*
X131704330Y-92072416D01*
X131724101Y-92026979D01*
X131724979Y-91977433D01*
X131695577Y-91916370D01*
X131520577Y-91716370D01*
X131514803Y-91710197D01*
X131142597Y-91337991D01*
X130774189Y-90920462D01*
X130379745Y-90378101D01*
X130110446Y-89961913D01*
X129913592Y-89568204D01*
X129883211Y-89529057D01*
X129856796Y-89511408D01*
X129208534Y-89187277D01*
X127910211Y-88488180D01*
X127909641Y-88487875D01*
X126736652Y-87863945D01*
X126263632Y-87590091D01*
X126260211Y-87588180D01*
X125935211Y-87413180D01*
X125337264Y-87089292D01*
X125039676Y-86915699D01*
X124790341Y-86766098D01*
X124743692Y-86749383D01*
X124694198Y-86751792D01*
X124635197Y-86785197D01*
X124565164Y-86855230D01*
X124445664Y-86950830D01*
X124430079Y-86965626D01*
X124234397Y-87185768D01*
X123942322Y-87453504D01*
X123710363Y-87639071D01*
X123478578Y-87731785D01*
X123172362Y-87849560D01*
X122820767Y-87873000D01*
X122292789Y-87873000D01*
X122143444Y-87830330D01*
X121936453Y-87738334D01*
X121801834Y-87648588D01*
X121640068Y-87509932D01*
X121502296Y-87349198D01*
X121343210Y-87099204D01*
X121298208Y-86919198D01*
X121294601Y-86907285D01*
X121175183Y-86572914D01*
X121152000Y-86294721D01*
X121152000Y-85984711D01*
X121198623Y-85681661D01*
X121290647Y-85428595D01*
X121379279Y-85273489D01*
X121518252Y-85111354D01*
X121676872Y-84952734D01*
X121929178Y-84815113D01*
X122165428Y-84720613D01*
X122433416Y-84647525D01*
X122447167Y-84642917D01*
X122697167Y-84542917D01*
X122706796Y-84538592D01*
X122856796Y-84463592D01*
X122905670Y-84420447D01*
X122955670Y-84345447D01*
X122970483Y-84315161D01*
X122995483Y-84240161D01*
X123001680Y-84190997D01*
X122992917Y-84152833D01*
X122947247Y-84038658D01*
X122924534Y-83925093D01*
X122923208Y-83919198D01*
X122877000Y-83734366D01*
X122877000Y-83500000D01*
X122876478Y-83488502D01*
X122852000Y-83219244D01*
X122852000Y-83013942D01*
X122897555Y-82808946D01*
X123013604Y-82460798D01*
X123167782Y-82262569D01*
X123350079Y-82103059D01*
X123581614Y-81964138D01*
X123806162Y-81874319D01*
X124007032Y-81852000D01*
X124270122Y-81852000D01*
X124581742Y-81875971D01*
X124921290Y-81948731D01*
X125205674Y-82019827D01*
X125380021Y-82107000D01*
X125511011Y-82216159D01*
X125673945Y-82402369D01*
X125808807Y-82604662D01*
X125875621Y-82827377D01*
X125923643Y-83163532D01*
X125948000Y-83504526D01*
X125948000Y-83843663D01*
X125925039Y-84073273D01*
X125854517Y-84284839D01*
X125851792Y-84294198D01*
X125776792Y-84594198D01*
X125776792Y-84655802D01*
X125801792Y-84755802D01*
X125835197Y-84814803D01*
X125910197Y-84889803D01*
X125920664Y-84899170D01*
X126045664Y-84999170D01*
X126058440Y-85008161D01*
X126383440Y-85208161D01*
X126397447Y-85215617D01*
X126946717Y-85465285D01*
X127795924Y-85864912D01*
X127800400Y-85866914D01*
X128625400Y-86216914D01*
X128673917Y-86226995D01*
X128722598Y-86217743D01*
X128764033Y-86190565D01*
X128791914Y-86149600D01*
X128801370Y-86087363D01*
X128776370Y-85837363D01*
X128776019Y-85834248D01*
X128726671Y-85439467D01*
X128701951Y-84846166D01*
X128677090Y-83503706D01*
X128726626Y-82859740D01*
X128726677Y-82859048D01*
X128751469Y-82511954D01*
X128801014Y-82090825D01*
X128900655Y-81343520D01*
X129024738Y-80574204D01*
X129127282Y-80123011D01*
X129496028Y-80108261D01*
X129325142Y-81026771D01*
X129325142Y-81026771D01*
G37*
X129325142Y-81026771D02*
X129324114Y-81033215D01*
X129174114Y-82158215D01*
X129173572Y-82162959D01*
X129073572Y-83212959D01*
X129073038Y-83221903D01*
X129048038Y-84246903D01*
X129048167Y-84256504D01*
X129098167Y-85231504D01*
X129098301Y-85233738D01*
X129148301Y-85958738D01*
X129149165Y-85967159D01*
X129224165Y-86517159D01*
X129225899Y-86526979D01*
X129350899Y-87101979D01*
X129353502Y-87111978D01*
X129528502Y-87686978D01*
X129529042Y-87688707D01*
X129729042Y-88313707D01*
X129732456Y-88323086D01*
X129957456Y-88873086D01*
X129960225Y-88879367D01*
X130185225Y-89354367D01*
X130187615Y-89359150D01*
X130437615Y-89834150D01*
X130445069Y-89846544D01*
X130820069Y-90396544D01*
X130826290Y-90404908D01*
X131251290Y-90929908D01*
X131256680Y-90936142D01*
X131556680Y-91261142D01*
X131560197Y-91264803D01*
X132010197Y-91714803D01*
X132018697Y-91722564D01*
X132468697Y-92097564D01*
X132473800Y-92101600D01*
X132873800Y-92401600D01*
X132878285Y-92404814D01*
X133353285Y-92729814D01*
X133361990Y-92735267D01*
X134061990Y-93135267D01*
X134070633Y-93139775D01*
X134545633Y-93364775D01*
X134549362Y-93366468D01*
X135124362Y-93616468D01*
X135134839Y-93620483D01*
X135734839Y-93820483D01*
X135739165Y-93821839D01*
X136164165Y-93946839D01*
X136179121Y-93950272D01*
X136629121Y-94025272D01*
X136638502Y-94026478D01*
X136913502Y-94051478D01*
X136962778Y-94046251D01*
X137006303Y-94022564D01*
X137037451Y-93984024D01*
X137052000Y-93925000D01*
X137052000Y-92325000D01*
X137042333Y-92276399D01*
X137014803Y-92235197D01*
X136973601Y-92207667D01*
X136939025Y-92198777D01*
X136729125Y-92175455D01*
X136473394Y-92082462D01*
X136155014Y-91935517D01*
X135815165Y-91765593D01*
X135573767Y-91596614D01*
X135299698Y-91397291D01*
X135295447Y-91394330D01*
X135072151Y-91245466D01*
X134920313Y-91137010D01*
X134877000Y-91064822D01*
X134877000Y-90949460D01*
X134908236Y-90871370D01*
X134943604Y-90836002D01*
X135033165Y-90806148D01*
X135096846Y-90818885D01*
X135573800Y-91176600D01*
X135577170Y-91179042D01*
X135827170Y-91354042D01*
X135829553Y-91355670D01*
X136129553Y-91555670D01*
X136143204Y-91563592D01*
X136443204Y-91713592D01*
X136459839Y-91720483D01*
X136834839Y-91845483D01*
X136857039Y-91850724D01*
X137207039Y-91900724D01*
X137237637Y-91901370D01*
X137487637Y-91876370D01*
X137507723Y-91872712D01*
X137882723Y-91772712D01*
X137900904Y-91766352D01*
X138300904Y-91591352D01*
X138318676Y-91581830D01*
X138668676Y-91356830D01*
X138675103Y-91352413D01*
X139050103Y-91077413D01*
X139056303Y-91072564D01*
X139170980Y-90977000D01*
X139237423Y-90977000D01*
X139321846Y-90993885D01*
X139378897Y-91036673D01*
X139415837Y-91098239D01*
X139405393Y-91150459D01*
X139328682Y-91265525D01*
X139143474Y-91427582D01*
X138899969Y-91622386D01*
X138686132Y-91764944D01*
X138394986Y-91910517D01*
X138078168Y-92056741D01*
X137721766Y-92175541D01*
X137534248Y-92198981D01*
X137487221Y-92214602D01*
X137449752Y-92247030D01*
X137427545Y-92291328D01*
X137423062Y-92328967D01*
X137473062Y-93928967D01*
X137484243Y-93977242D01*
X137513046Y-94017564D01*
X137555088Y-94043793D01*
X137614025Y-94051223D01*
X137839025Y-94026223D01*
X137842961Y-94025724D01*
X138192961Y-93975724D01*
X138197718Y-93974951D01*
X138747718Y-93874951D01*
X138765161Y-93870483D01*
X139515161Y-93620483D01*
X139520041Y-93618745D01*
X140245041Y-93343745D01*
X140254957Y-93339493D01*
X140879957Y-93039493D01*
X140888771Y-93034828D01*
X141663771Y-92584828D01*
X141671311Y-92580089D01*
X142371311Y-92105089D01*
X142373817Y-92103344D01*
X142898817Y-91728344D01*
X142910206Y-91719175D01*
X143435206Y-91244175D01*
X143439803Y-91239803D01*
X143864803Y-90814803D01*
X143867331Y-90812201D01*
X144292331Y-90362201D01*
X144305670Y-90345447D01*
X144655670Y-89820447D01*
X144658902Y-89815341D01*
X144958902Y-89315341D01*
X144963592Y-89306796D01*
X145263592Y-88706796D01*
X145267917Y-88697167D01*
X145517917Y-88072167D01*
X145520958Y-88063707D01*
X145720958Y-87438707D01*
X145722971Y-87431735D01*
X145922971Y-86656735D01*
X145924101Y-86651979D01*
X146049101Y-86076979D01*
X146050724Y-86067961D01*
X146125724Y-85542961D01*
X146126095Y-85540131D01*
X146201095Y-84915131D01*
X146201919Y-84904533D01*
X146226919Y-84204533D01*
X146226869Y-84194233D01*
X146201869Y-83644233D01*
X146201842Y-83643658D01*
X146176842Y-83143658D01*
X146176653Y-83140618D01*
X146126653Y-82465618D01*
X146124534Y-82450093D01*
X146025226Y-81953553D01*
X145968492Y-81556418D01*
X146365697Y-81495310D01*
X146449044Y-82141252D01*
X146449067Y-82141426D01*
X146523863Y-82714860D01*
X146573370Y-83185181D01*
X146598000Y-83628517D01*
X146598000Y-84347563D01*
X146573250Y-84991072D01*
X146474388Y-85954970D01*
X146350899Y-86523021D01*
X146350021Y-86572567D01*
X146361408Y-86606796D01*
X146411408Y-86706796D01*
X146441789Y-86745943D01*
X146484839Y-86770483D01*
X146534003Y-86776680D01*
X146576469Y-86766103D01*
X149000364Y-85691593D01*
X149474283Y-85492048D01*
X149515324Y-85464278D01*
X149538592Y-85431796D01*
X149588592Y-85331796D01*
X149602000Y-85275000D01*
X149602000Y-84975000D01*
X149601719Y-84966552D01*
X149577000Y-84595767D01*
X149577000Y-84200000D01*
X149576824Y-84193325D01*
X149552913Y-83739024D01*
X149669546Y-83319147D01*
X149823399Y-82989462D01*
X150205368Y-82764774D01*
X150509783Y-82647692D01*
X150893385Y-82575766D01*
X151353147Y-82527370D01*
X151783067Y-82551255D01*
X152105709Y-82620392D01*
X152398377Y-82777983D01*
X152566764Y-82946370D01*
X152655699Y-83168707D01*
X152721851Y-83367163D01*
X152698583Y-83785992D01*
X152625208Y-84226242D01*
X152477293Y-84916510D01*
X152329517Y-85359839D01*
X152323320Y-85409003D01*
X152336408Y-85456796D01*
X152384659Y-85508902D01*
X152509659Y-85583902D01*
X152551237Y-85599757D01*
X153071070Y-85698773D01*
X153509297Y-85820502D01*
X153864203Y-85962465D01*
X154085563Y-86117417D01*
X154285123Y-86383498D01*
X154373000Y-86669097D01*
X154373000Y-87039489D01*
X154326366Y-87319291D01*
X154233494Y-87597909D01*
X154043655Y-87930127D01*
X153826569Y-88219575D01*
X153647699Y-88420803D01*
X153356382Y-88555257D01*
X153103563Y-88624208D01*
X152777140Y-88647524D01*
X152334439Y-88600924D01*
X151984691Y-88437708D01*
X151620150Y-88218984D01*
X151361455Y-88030841D01*
X151045973Y-87666824D01*
X151044398Y-87665041D01*
X150819398Y-87415041D01*
X150779700Y-87385384D01*
X150731675Y-87373176D01*
X150664512Y-87388330D01*
X149467776Y-88036562D01*
X146696192Y-89334962D01*
X144921471Y-90159832D01*
X144880079Y-90190626D01*
X144680079Y-90415626D01*
X144674337Y-90422567D01*
X144428259Y-90742468D01*
X144008927Y-91186467D01*
X143535197Y-91660197D01*
X143507667Y-91701399D01*
X143498000Y-91750000D01*
X143507667Y-91798601D01*
X143535197Y-91839803D01*
X143562440Y-91860523D01*
X144887440Y-92610523D01*
X144889789Y-92611820D01*
X147489789Y-94011820D01*
X147490850Y-94012385D01*
X148440850Y-94512385D01*
X148459839Y-94520483D01*
X148684839Y-94595483D01*
X148749907Y-94599534D01*
X148874907Y-94574534D01*
X148931303Y-94547564D01*
X149076091Y-94426907D01*
X149220447Y-94330670D01*
X149233630Y-94320577D01*
X149432038Y-94146970D01*
X149694463Y-93932258D01*
X149927062Y-93815959D01*
X150160302Y-93722663D01*
X150406943Y-93677819D01*
X150732950Y-93701105D01*
X150955654Y-93745646D01*
X151153999Y-93855838D01*
X151390164Y-94044770D01*
X151579610Y-94234216D01*
X151738213Y-94438134D01*
X151853676Y-94738340D01*
X151923000Y-95015634D01*
X151923000Y-95313552D01*
X151876973Y-95566700D01*
X151783920Y-95822595D01*
X151645207Y-96076902D01*
X151491780Y-96252248D01*
X151318486Y-96360556D01*
X151141069Y-96427088D01*
X150879680Y-96474613D01*
X150357585Y-96549198D01*
X149983215Y-96599114D01*
X149936318Y-96615120D01*
X149899117Y-96647854D01*
X149877273Y-96692333D01*
X149874114Y-96741785D01*
X149886408Y-96781796D01*
X149978801Y-96966582D01*
X150025466Y-97199907D01*
X150025819Y-97201610D01*
X150099773Y-97546731D01*
X150148000Y-97908430D01*
X150148000Y-98212423D01*
X150078801Y-98558418D01*
X149943000Y-98830021D01*
X149712539Y-99106573D01*
X149468491Y-99284063D01*
X149152060Y-99374472D01*
X148877169Y-99397379D01*
X148480692Y-99350735D01*
X148185669Y-99237265D01*
X147861715Y-99005869D01*
X147612004Y-98710756D01*
X147477808Y-98330535D01*
X147501295Y-97696389D01*
X147595948Y-97388766D01*
X147670483Y-97165161D01*
X147676680Y-97115997D01*
X147663592Y-97068204D01*
X147633211Y-97029057D01*
X147611266Y-97013755D01*
X144161428Y-95113844D01*
X142261428Y-94063844D01*
X142258666Y-94062362D01*
X141058666Y-93437362D01*
X141011095Y-93423486D01*
X140946780Y-93434689D01*
X140298357Y-93733961D01*
X139780462Y-93955916D01*
X139088836Y-94178224D01*
X138548183Y-94325675D01*
X137936761Y-94423503D01*
X137446818Y-94448000D01*
X137032444Y-94448000D01*
X136619910Y-94399467D01*
X136127862Y-94301057D01*
X135633668Y-94177508D01*
X135141919Y-94029984D01*
X134652062Y-93834041D01*
X134208834Y-93612427D01*
X133935814Y-93463507D01*
X133888519Y-93448722D01*
X133821037Y-93460035D01*
X132596037Y-94035035D01*
X132594815Y-94035616D01*
X129744815Y-95410616D01*
X129744118Y-95410955D01*
X127244118Y-96635955D01*
X127229553Y-96644330D01*
X127079553Y-96744330D01*
X127044477Y-96779332D01*
X127024276Y-96832039D01*
X126999276Y-97007039D01*
X126998000Y-97025000D01*
X126998000Y-97175000D01*
X127011408Y-97231796D01*
X127085114Y-97379208D01*
X127182968Y-97599379D01*
X127281575Y-97845897D01*
X127351756Y-98033046D01*
X127398000Y-98310511D01*
X127398000Y-98610535D01*
X127330168Y-98904475D01*
X127195448Y-99151461D01*
X127017508Y-99351643D01*
X126716940Y-99536608D01*
X126436025Y-99653656D01*
X126131637Y-99723900D01*
X125750561Y-99747717D01*
X125426366Y-99724560D01*
X125106429Y-99610297D01*
X124783004Y-99402381D01*
X124579766Y-99176562D01*
X124392097Y-98824682D01*
X124275635Y-98475296D01*
X124253437Y-98142324D01*
X124444870Y-97591955D01*
X124619870Y-97091955D01*
X124626801Y-97042889D01*
X124614427Y-96994905D01*
X124584633Y-96955310D01*
X124548846Y-96932769D01*
X124248846Y-96807769D01*
X124245590Y-96806465D01*
X123926310Y-96683665D01*
X123583534Y-96512277D01*
X123263436Y-96339917D01*
X122951384Y-96147885D01*
X122716729Y-95936695D01*
X122482000Y-95655021D01*
X122366576Y-95424171D01*
X122304106Y-95257587D01*
X122325498Y-95022274D01*
X122418103Y-94675005D01*
X122550857Y-94453749D01*
X122782761Y-94221845D01*
X123043038Y-94032553D01*
X123304980Y-93889675D01*
X123592785Y-93769756D01*
X123826308Y-93699700D01*
X123996436Y-93678434D01*
X124244855Y-93723601D01*
X124550750Y-93817722D01*
X124858256Y-93983302D01*
X125099833Y-94152406D01*
X125418992Y-94397913D01*
X125640626Y-94594921D01*
X125645664Y-94599170D01*
X125770664Y-94699170D01*
X125793204Y-94713592D01*
X125943204Y-94788592D01*
X125979121Y-94800272D01*
X126129121Y-94825272D01*
X126150000Y-94827000D01*
X126325000Y-94827000D01*
X126365161Y-94820483D01*
X126815161Y-94670483D01*
X126833774Y-94662582D01*
X130232822Y-92888079D01*
X130731796Y-92638592D01*
X130733746Y-92637596D01*
X131308746Y-92337596D01*
X131318676Y-92331830D01*
X131668676Y-92106830D01*
X131704330Y-92072416D01*
X131724101Y-92026979D01*
X131724979Y-91977433D01*
X131695577Y-91916370D01*
X131520577Y-91716370D01*
X131514803Y-91710197D01*
X131142597Y-91337991D01*
X130774189Y-90920462D01*
X130379745Y-90378101D01*
X130110446Y-89961913D01*
X129913592Y-89568204D01*
X129883211Y-89529057D01*
X129856796Y-89511408D01*
X129208534Y-89187277D01*
X127910211Y-88488180D01*
X127909641Y-88487875D01*
X126736652Y-87863945D01*
X126263632Y-87590091D01*
X126260211Y-87588180D01*
X125935211Y-87413180D01*
X125337264Y-87089292D01*
X125039676Y-86915699D01*
X124790341Y-86766098D01*
X124743692Y-86749383D01*
X124694198Y-86751792D01*
X124635197Y-86785197D01*
X124565164Y-86855230D01*
X124445664Y-86950830D01*
X124430079Y-86965626D01*
X124234397Y-87185768D01*
X123942322Y-87453504D01*
X123710363Y-87639071D01*
X123478578Y-87731785D01*
X123172362Y-87849560D01*
X122820767Y-87873000D01*
X122292789Y-87873000D01*
X122143444Y-87830330D01*
X121936453Y-87738334D01*
X121801834Y-87648588D01*
X121640068Y-87509932D01*
X121502296Y-87349198D01*
X121343210Y-87099204D01*
X121298208Y-86919198D01*
X121294601Y-86907285D01*
X121175183Y-86572914D01*
X121152000Y-86294721D01*
X121152000Y-85984711D01*
X121198623Y-85681661D01*
X121290647Y-85428595D01*
X121379279Y-85273489D01*
X121518252Y-85111354D01*
X121676872Y-84952734D01*
X121929178Y-84815113D01*
X122165428Y-84720613D01*
X122433416Y-84647525D01*
X122447167Y-84642917D01*
X122697167Y-84542917D01*
X122706796Y-84538592D01*
X122856796Y-84463592D01*
X122905670Y-84420447D01*
X122955670Y-84345447D01*
X122970483Y-84315161D01*
X122995483Y-84240161D01*
X123001680Y-84190997D01*
X122992917Y-84152833D01*
X122947247Y-84038658D01*
X122924534Y-83925093D01*
X122923208Y-83919198D01*
X122877000Y-83734366D01*
X122877000Y-83500000D01*
X122876478Y-83488502D01*
X122852000Y-83219244D01*
X122852000Y-83013942D01*
X122897555Y-82808946D01*
X123013604Y-82460798D01*
X123167782Y-82262569D01*
X123350079Y-82103059D01*
X123581614Y-81964138D01*
X123806162Y-81874319D01*
X124007032Y-81852000D01*
X124270122Y-81852000D01*
X124581742Y-81875971D01*
X124921290Y-81948731D01*
X125205674Y-82019827D01*
X125380021Y-82107000D01*
X125511011Y-82216159D01*
X125673945Y-82402369D01*
X125808807Y-82604662D01*
X125875621Y-82827377D01*
X125923643Y-83163532D01*
X125948000Y-83504526D01*
X125948000Y-83843663D01*
X125925039Y-84073273D01*
X125854517Y-84284839D01*
X125851792Y-84294198D01*
X125776792Y-84594198D01*
X125776792Y-84655802D01*
X125801792Y-84755802D01*
X125835197Y-84814803D01*
X125910197Y-84889803D01*
X125920664Y-84899170D01*
X126045664Y-84999170D01*
X126058440Y-85008161D01*
X126383440Y-85208161D01*
X126397447Y-85215617D01*
X126946717Y-85465285D01*
X127795924Y-85864912D01*
X127800400Y-85866914D01*
X128625400Y-86216914D01*
X128673917Y-86226995D01*
X128722598Y-86217743D01*
X128764033Y-86190565D01*
X128791914Y-86149600D01*
X128801370Y-86087363D01*
X128776370Y-85837363D01*
X128776019Y-85834248D01*
X128726671Y-85439467D01*
X128701951Y-84846166D01*
X128677090Y-83503706D01*
X128726626Y-82859740D01*
X128726677Y-82859048D01*
X128751469Y-82511954D01*
X128801014Y-82090825D01*
X128900655Y-81343520D01*
X129024738Y-80574204D01*
X129127282Y-80123011D01*
X129496028Y-80108261D01*
X129325142Y-81026771D01*
G36*
X136464637Y-72001630D02*
X136903633Y-72050407D01*
X137217007Y-72122724D01*
X137534599Y-72220445D01*
X137799739Y-72316859D01*
X138040042Y-72437011D01*
X138211990Y-72535267D01*
X138258984Y-72550986D01*
X138292961Y-72550724D01*
X138467961Y-72525724D01*
X138498846Y-72517231D01*
X138790050Y-72395896D01*
X139273364Y-72275068D01*
X139661610Y-72226537D01*
X140074502Y-72202249D01*
X140434017Y-72226217D01*
X140822110Y-72298984D01*
X141287411Y-72421432D01*
X141625065Y-72542022D01*
X142208803Y-72833891D01*
X142474532Y-73027149D01*
X142771202Y-73249652D01*
X142918697Y-73372564D01*
X142962222Y-73396251D01*
X143000000Y-73402000D01*
X143365528Y-73402000D01*
X143847193Y-73474250D01*
X144328009Y-73618495D01*
X144715433Y-73812207D01*
X145104793Y-74031222D01*
X145416024Y-74270630D01*
X145635197Y-74489803D01*
X145654553Y-74505670D01*
X145729553Y-74555670D01*
X145775093Y-74574534D01*
X146143521Y-74648220D01*
X146531317Y-74769406D01*
X146988559Y-74961929D01*
X147296380Y-75175036D01*
X147508522Y-75363607D01*
X147744466Y-75646739D01*
X147883920Y-75902404D01*
X147978392Y-76162204D01*
X148024111Y-76345077D01*
X148047355Y-76670489D01*
X148024276Y-76832039D01*
X148023000Y-76850000D01*
X148023000Y-76927836D01*
X147811963Y-77514049D01*
X147607011Y-77787319D01*
X147298507Y-78048361D01*
X147014795Y-78237502D01*
X146727018Y-78357409D01*
X146360831Y-78503884D01*
X146074120Y-78575562D01*
X145635564Y-78648654D01*
X145256562Y-78672342D01*
X144970879Y-78624728D01*
X144968839Y-78624405D01*
X144474876Y-78550311D01*
X144086847Y-78453303D01*
X143742715Y-78330399D01*
X143740161Y-78329517D01*
X143454496Y-78234295D01*
X143267310Y-78117304D01*
X143220973Y-78099744D01*
X143171443Y-78101252D01*
X143126260Y-78121600D01*
X143106381Y-78139183D01*
X142836820Y-78433250D01*
X142529586Y-78693217D01*
X142154185Y-78880917D01*
X141721250Y-79001177D01*
X141335203Y-79073561D01*
X140824739Y-79097869D01*
X140260649Y-79073343D01*
X139869607Y-79024463D01*
X139473405Y-78950175D01*
X139423855Y-78950720D01*
X139365041Y-78980602D01*
X139124567Y-79197029D01*
X138710931Y-79440344D01*
X138249985Y-79707207D01*
X137920050Y-79801475D01*
X137437423Y-79898000D01*
X136984472Y-79898000D01*
X136500862Y-79825459D01*
X136135048Y-79727908D01*
X135813766Y-79629052D01*
X135590161Y-79554517D01*
X135540997Y-79548320D01*
X135493204Y-79561408D01*
X135254778Y-79680621D01*
X134892277Y-79777288D01*
X134889165Y-79778161D01*
X134477593Y-79899212D01*
X134127439Y-79922555D01*
X133670492Y-79874456D01*
X133239125Y-79778596D01*
X132903458Y-79634739D01*
X132511802Y-79438911D01*
X132192626Y-79242495D01*
X131848469Y-79021251D01*
X131627970Y-78849752D01*
X131583672Y-78827545D01*
X131550000Y-78823000D01*
X130761123Y-78823000D01*
X130347071Y-78749932D01*
X130333448Y-78748281D01*
X129979159Y-78724662D01*
X129573355Y-78557566D01*
X129568401Y-78555646D01*
X129306459Y-78460394D01*
X129043480Y-78293044D01*
X128711655Y-78079728D01*
X128453761Y-77751500D01*
X128291776Y-77496952D01*
X128171839Y-77089165D01*
X128171644Y-77088507D01*
X128101023Y-76853103D01*
X128077000Y-76396669D01*
X128077000Y-76273701D01*
X128151185Y-76231310D01*
X128247167Y-76192917D01*
X128288701Y-76165891D01*
X128311493Y-76135814D01*
X128455809Y-75871235D01*
X128666178Y-75614117D01*
X128998924Y-75328906D01*
X129280881Y-75164431D01*
X129644974Y-75018794D01*
X129988833Y-74895987D01*
X130328885Y-74798830D01*
X130597718Y-74749951D01*
X130599907Y-74749534D01*
X130724907Y-74724534D01*
X130770668Y-74705523D01*
X130810267Y-74663010D01*
X130905790Y-74495844D01*
X131068331Y-74286863D01*
X131303113Y-74075559D01*
X131588868Y-73885056D01*
X131929208Y-73714886D01*
X132366503Y-73520533D01*
X132750880Y-73424439D01*
X133185511Y-73352000D01*
X133775000Y-73352000D01*
X133823601Y-73342333D01*
X133873293Y-73305421D01*
X134094279Y-73035327D01*
X134577227Y-72552379D01*
X134786677Y-72436018D01*
X134793676Y-72431830D01*
X135129413Y-72215999D01*
X135582958Y-72072774D01*
X136010634Y-71977735D01*
X136464637Y-72001630D01*
X136464637Y-72001630D01*
G37*
X136464637Y-72001630D02*
X136903633Y-72050407D01*
X137217007Y-72122724D01*
X137534599Y-72220445D01*
X137799739Y-72316859D01*
X138040042Y-72437011D01*
X138211990Y-72535267D01*
X138258984Y-72550986D01*
X138292961Y-72550724D01*
X138467961Y-72525724D01*
X138498846Y-72517231D01*
X138790050Y-72395896D01*
X139273364Y-72275068D01*
X139661610Y-72226537D01*
X140074502Y-72202249D01*
X140434017Y-72226217D01*
X140822110Y-72298984D01*
X141287411Y-72421432D01*
X141625065Y-72542022D01*
X142208803Y-72833891D01*
X142474532Y-73027149D01*
X142771202Y-73249652D01*
X142918697Y-73372564D01*
X142962222Y-73396251D01*
X143000000Y-73402000D01*
X143365528Y-73402000D01*
X143847193Y-73474250D01*
X144328009Y-73618495D01*
X144715433Y-73812207D01*
X145104793Y-74031222D01*
X145416024Y-74270630D01*
X145635197Y-74489803D01*
X145654553Y-74505670D01*
X145729553Y-74555670D01*
X145775093Y-74574534D01*
X146143521Y-74648220D01*
X146531317Y-74769406D01*
X146988559Y-74961929D01*
X147296380Y-75175036D01*
X147508522Y-75363607D01*
X147744466Y-75646739D01*
X147883920Y-75902404D01*
X147978392Y-76162204D01*
X148024111Y-76345077D01*
X148047355Y-76670489D01*
X148024276Y-76832039D01*
X148023000Y-76850000D01*
X148023000Y-76927836D01*
X147811963Y-77514049D01*
X147607011Y-77787319D01*
X147298507Y-78048361D01*
X147014795Y-78237502D01*
X146727018Y-78357409D01*
X146360831Y-78503884D01*
X146074120Y-78575562D01*
X145635564Y-78648654D01*
X145256562Y-78672342D01*
X144970879Y-78624728D01*
X144968839Y-78624405D01*
X144474876Y-78550311D01*
X144086847Y-78453303D01*
X143742715Y-78330399D01*
X143740161Y-78329517D01*
X143454496Y-78234295D01*
X143267310Y-78117304D01*
X143220973Y-78099744D01*
X143171443Y-78101252D01*
X143126260Y-78121600D01*
X143106381Y-78139183D01*
X142836820Y-78433250D01*
X142529586Y-78693217D01*
X142154185Y-78880917D01*
X141721250Y-79001177D01*
X141335203Y-79073561D01*
X140824739Y-79097869D01*
X140260649Y-79073343D01*
X139869607Y-79024463D01*
X139473405Y-78950175D01*
X139423855Y-78950720D01*
X139365041Y-78980602D01*
X139124567Y-79197029D01*
X138710931Y-79440344D01*
X138249985Y-79707207D01*
X137920050Y-79801475D01*
X137437423Y-79898000D01*
X136984472Y-79898000D01*
X136500862Y-79825459D01*
X136135048Y-79727908D01*
X135813766Y-79629052D01*
X135590161Y-79554517D01*
X135540997Y-79548320D01*
X135493204Y-79561408D01*
X135254778Y-79680621D01*
X134892277Y-79777288D01*
X134889165Y-79778161D01*
X134477593Y-79899212D01*
X134127439Y-79922555D01*
X133670492Y-79874456D01*
X133239125Y-79778596D01*
X132903458Y-79634739D01*
X132511802Y-79438911D01*
X132192626Y-79242495D01*
X131848469Y-79021251D01*
X131627970Y-78849752D01*
X131583672Y-78827545D01*
X131550000Y-78823000D01*
X130761123Y-78823000D01*
X130347071Y-78749932D01*
X130333448Y-78748281D01*
X129979159Y-78724662D01*
X129573355Y-78557566D01*
X129568401Y-78555646D01*
X129306459Y-78460394D01*
X129043480Y-78293044D01*
X128711655Y-78079728D01*
X128453761Y-77751500D01*
X128291776Y-77496952D01*
X128171839Y-77089165D01*
X128171644Y-77088507D01*
X128101023Y-76853103D01*
X128077000Y-76396669D01*
X128077000Y-76273701D01*
X128151185Y-76231310D01*
X128247167Y-76192917D01*
X128288701Y-76165891D01*
X128311493Y-76135814D01*
X128455809Y-75871235D01*
X128666178Y-75614117D01*
X128998924Y-75328906D01*
X129280881Y-75164431D01*
X129644974Y-75018794D01*
X129988833Y-74895987D01*
X130328885Y-74798830D01*
X130597718Y-74749951D01*
X130599907Y-74749534D01*
X130724907Y-74724534D01*
X130770668Y-74705523D01*
X130810267Y-74663010D01*
X130905790Y-74495844D01*
X131068331Y-74286863D01*
X131303113Y-74075559D01*
X131588868Y-73885056D01*
X131929208Y-73714886D01*
X132366503Y-73520533D01*
X132750880Y-73424439D01*
X133185511Y-73352000D01*
X133775000Y-73352000D01*
X133823601Y-73342333D01*
X133873293Y-73305421D01*
X134094279Y-73035327D01*
X134577227Y-72552379D01*
X134786677Y-72436018D01*
X134793676Y-72431830D01*
X135129413Y-72215999D01*
X135582958Y-72072774D01*
X136010634Y-71977735D01*
X136464637Y-72001630D01*
%LPC*%
D15*
X119050000Y-78000000D03*
X120950000Y-78000000D03*
D16*
X152340000Y-120540000D03*
X149800000Y-120540000D03*
X147260000Y-120540000D03*
X144720000Y-120540000D03*
X142180000Y-120540000D03*
X139640000Y-120540000D03*
X137100000Y-120540000D03*
X134560000Y-120540000D03*
X132020000Y-120540000D03*
X129480000Y-120540000D03*
X126940000Y-120540000D03*
X152340000Y-105300000D03*
X149800000Y-105300000D03*
X147260000Y-105300000D03*
X144720000Y-105300000D03*
X142180000Y-105300000D03*
X139640000Y-105300000D03*
X137100000Y-105300000D03*
X134560000Y-105300000D03*
X132020000Y-105300000D03*
X129480000Y-105300000D03*
X126940000Y-105300000D03*
X124400000Y-120540000D03*
X152340000Y-118000000D03*
X149800000Y-118000000D03*
X147260000Y-118000000D03*
X144720000Y-118000000D03*
X142180000Y-118000000D03*
X139640000Y-118000000D03*
X137100000Y-118000000D03*
X134560000Y-118000000D03*
X132020000Y-118000000D03*
X129480000Y-118000000D03*
X126940000Y-118000000D03*
X124400000Y-118000000D03*
X152340000Y-115460000D03*
X149800000Y-115460000D03*
X147260000Y-115460000D03*
X144720000Y-115460000D03*
X142180000Y-115460000D03*
X139640000Y-115460000D03*
X137100000Y-115460000D03*
X134560000Y-115460000D03*
X132020000Y-115460000D03*
X129480000Y-115460000D03*
X126940000Y-115460000D03*
X124400000Y-115460000D03*
X152340000Y-112920000D03*
X149800000Y-112920000D03*
X147260000Y-112920000D03*
X144720000Y-112920000D03*
X142180000Y-112920000D03*
X139640000Y-112920000D03*
X137100000Y-112920000D03*
X134560000Y-112920000D03*
X132020000Y-112920000D03*
X129480000Y-112920000D03*
X126940000Y-112920000D03*
X124400000Y-112920000D03*
X152340000Y-110380000D03*
X149800000Y-110380000D03*
X147260000Y-110380000D03*
X144720000Y-110380000D03*
X142180000Y-110380000D03*
X139640000Y-110380000D03*
X137100000Y-110380000D03*
X134560000Y-110380000D03*
X132020000Y-110380000D03*
X129480000Y-110380000D03*
X126940000Y-110380000D03*
X124400000Y-110380000D03*
X152340000Y-107840000D03*
X149800000Y-107840000D03*
X147260000Y-107840000D03*
X144720000Y-107840000D03*
X142180000Y-107840000D03*
X139640000Y-107840000D03*
X137100000Y-107840000D03*
X134560000Y-107840000D03*
X132020000Y-107840000D03*
X129480000Y-107840000D03*
X126940000Y-107840000D03*
X124400000Y-107840000D03*
X124400000Y-105300000D03*
X159960000Y-130700000D03*
X159960000Y-128160000D03*
X159960000Y-125620000D03*
X159960000Y-123080000D03*
X159960000Y-120540000D03*
X159960000Y-118000000D03*
X159960000Y-115460000D03*
X159960000Y-112920000D03*
X159960000Y-108856000D03*
X159960000Y-106316000D03*
X159960000Y-103776000D03*
X159960000Y-101236000D03*
X159960000Y-98696000D03*
X159960000Y-96156000D03*
X159960000Y-93616000D03*
X159960000Y-91076000D03*
X159960000Y-88536000D03*
X159960000Y-85996000D03*
X116580000Y-130700000D03*
X116580000Y-128160000D03*
X116580000Y-125620000D03*
X116580000Y-123080000D03*
X116580000Y-120540000D03*
X116580000Y-118000000D03*
X116780000Y-112920000D03*
X116780000Y-110380000D03*
X116780000Y-107840000D03*
X116780000Y-105300000D03*
X116780000Y-102760000D03*
X116780000Y-100220000D03*
X116780000Y-97680000D03*
D17*
X137100000Y-130827000D03*
X137100000Y-133367000D03*
X139640000Y-133367000D03*
X139640000Y-130827000D03*
X142180000Y-133367000D03*
X114240000Y-118000000D03*
X114240000Y-112920000D03*
X114240000Y-110380000D03*
X114240000Y-107840000D03*
X114240000Y-105300000D03*
X114240000Y-102760000D03*
X114240000Y-100220000D03*
X114240000Y-97680000D03*
X162500000Y-130700000D03*
X162500000Y-128160000D03*
X162500000Y-125620000D03*
X162500000Y-123080000D03*
X162500000Y-120540000D03*
X162500000Y-118000000D03*
X162500000Y-115460000D03*
X162500000Y-112920000D03*
X162500000Y-93616000D03*
X162500000Y-108856000D03*
X162500000Y-106316000D03*
X162500000Y-103776000D03*
D18*
X119320000Y-133240000D03*
X147260000Y-133240000D03*
X162500000Y-82440000D03*
X114240000Y-81170000D03*
D17*
X162500000Y-85996000D03*
X162500000Y-88536000D03*
X162500000Y-91076000D03*
X162500000Y-96156000D03*
X162500000Y-98696000D03*
X162500000Y-101236000D03*
X114240000Y-95140000D03*
X114240000Y-120540000D03*
X114240000Y-123080000D03*
X114240000Y-125620000D03*
X114240000Y-128160000D03*
X114240000Y-130700000D03*
X142180000Y-130827000D03*
D19*
X132550000Y-84125000D03*
X135050000Y-84125000D03*
X135050000Y-82725000D03*
X132550000Y-82725000D03*
X139450000Y-82725000D03*
X141950000Y-82725000D03*
X141950000Y-84125000D03*
X139450000Y-84125000D03*
D20*
X124750000Y-95497372D03*
D21*
G36*
X123657180Y-95204552D02*
X125042820Y-94404552D01*
X125842820Y-95790192D01*
X124457180Y-96590192D01*
X123657180Y-95204552D01*
X123657180Y-95204552D01*
G37*
D20*
X125850000Y-97402628D03*
D21*
G36*
X124757180Y-97109808D02*
X126142820Y-96309808D01*
X126942820Y-97695448D01*
X125557180Y-98495448D01*
X124757180Y-97109808D01*
X124757180Y-97109808D01*
G37*
D20*
X148825000Y-97227628D03*
D21*
G36*
X148532180Y-96134808D02*
X149917820Y-96934808D01*
X149117820Y-98320448D01*
X147732180Y-97520448D01*
X148532180Y-96134808D01*
X148532180Y-96134808D01*
G37*
D20*
X149925000Y-95322372D03*
D21*
G36*
X149632180Y-94229552D02*
X151017820Y-95029552D01*
X150217820Y-96415192D01*
X148832180Y-95615192D01*
X149632180Y-94229552D01*
X149632180Y-94229552D01*
G37*
D20*
X124364880Y-84028061D03*
D21*
G36*
X123977928Y-82964920D02*
X125428021Y-83641109D01*
X124751832Y-85091202D01*
X123301739Y-84415013D01*
X123977928Y-82964920D01*
X123977928Y-82964920D01*
G37*
D20*
X123435120Y-86021939D03*
D21*
G36*
X123048168Y-84958798D02*
X124498261Y-85634987D01*
X123822072Y-87085080D01*
X122371979Y-86408891D01*
X123048168Y-84958798D01*
X123048168Y-84958798D01*
G37*
D20*
X151864880Y-86721939D03*
D21*
G36*
X150801739Y-86334987D02*
X152251832Y-85658798D01*
X152928021Y-87108891D01*
X151477928Y-87785080D01*
X150801739Y-86334987D01*
X150801739Y-86334987D01*
G37*
D20*
X150935120Y-84728061D03*
D21*
G36*
X149871979Y-84341109D02*
X151322072Y-83664920D01*
X151998261Y-85115013D01*
X150548168Y-85791202D01*
X149871979Y-84341109D01*
X149871979Y-84341109D01*
G37*
D15*
X119050000Y-76000000D03*
X120950000Y-76000000D03*
X120950000Y-73999999D03*
X119050000Y-74000001D03*
X154050000Y-78000000D03*
X155950000Y-78000000D03*
X155949999Y-76000000D03*
X154050001Y-76000000D03*
X155950000Y-74000000D03*
X154050000Y-74000000D03*
D22*
X130228854Y-94083547D03*
D21*
G36*
X130107133Y-95088626D02*
X129361902Y-93560676D01*
X130350575Y-93078468D01*
X131095806Y-94606418D01*
X130107133Y-95088626D01*
X130107133Y-95088626D01*
G37*
D22*
X128521146Y-94916453D03*
D21*
G36*
X128399425Y-95921532D02*
X127654194Y-94393582D01*
X128642867Y-93911374D01*
X129388098Y-95439324D01*
X128399425Y-95921532D01*
X128399425Y-95921532D01*
G37*
D22*
X146346457Y-94731290D03*
D21*
G36*
X147222403Y-94223629D02*
X146450619Y-95738340D01*
X145470511Y-95238951D01*
X146242295Y-93724240D01*
X147222403Y-94223629D01*
X147222403Y-94223629D01*
G37*
D22*
X144653543Y-93868710D03*
D21*
G36*
X145529489Y-93361049D02*
X144757705Y-94875760D01*
X143777597Y-94376371D01*
X144549381Y-92861660D01*
X145529489Y-93361049D01*
X145529489Y-93361049D01*
G37*
D22*
X127946456Y-87206291D03*
D21*
G36*
X127070510Y-87713952D02*
X127842294Y-86199241D01*
X128822402Y-86698630D01*
X128050618Y-88213341D01*
X127070510Y-87713952D01*
X127070510Y-87713952D01*
G37*
D22*
X126253544Y-86343709D03*
D21*
G36*
X125377598Y-86851370D02*
X126149382Y-85336659D01*
X127129490Y-85836048D01*
X126357706Y-87350759D01*
X125377598Y-86851370D01*
X125377598Y-86851370D01*
G37*
D22*
X149160991Y-86823513D03*
D21*
G36*
X149300235Y-85820711D02*
X150018686Y-87361435D01*
X149021747Y-87826315D01*
X148303296Y-86285591D01*
X149300235Y-85820711D01*
X149300235Y-85820711D01*
G37*
D22*
X147439009Y-87626487D03*
D21*
G36*
X147578253Y-86623685D02*
X148296704Y-88164409D01*
X147299765Y-88629289D01*
X146581314Y-87088565D01*
X147578253Y-86623685D01*
X147578253Y-86623685D01*
G37*
D23*
X123025000Y-123450000D03*
X130225000Y-123450000D03*
X123025000Y-126450000D03*
X130225000Y-126450000D03*
X152025000Y-126500000D03*
X144825000Y-126500000D03*
X152025000Y-123500000D03*
X144825000Y-123500000D03*
D16*
X116780000Y-95140000D03*
D14*
G36*
X128077886Y-77559890D02*
X128094330Y-77595447D01*
X128494330Y-78195447D01*
X128529553Y-78230670D01*
X129043812Y-78573510D01*
X128887967Y-78963122D01*
X128107332Y-80036496D01*
X127638353Y-80411679D01*
X127379390Y-80498000D01*
X127120610Y-80498000D01*
X126856294Y-80409895D01*
X126598509Y-80238038D01*
X126427000Y-79895020D01*
X126427000Y-78945610D01*
X126617630Y-78373720D01*
X126804374Y-78000232D01*
X127382375Y-77422232D01*
X127927338Y-77032972D01*
X128077886Y-77559890D01*
X128077886Y-77559890D01*
G37*
X128077886Y-77559890D02*
X128094330Y-77595447D01*
X128494330Y-78195447D01*
X128529553Y-78230670D01*
X129043812Y-78573510D01*
X128887967Y-78963122D01*
X128107332Y-80036496D01*
X127638353Y-80411679D01*
X127379390Y-80498000D01*
X127120610Y-80498000D01*
X126856294Y-80409895D01*
X126598509Y-80238038D01*
X126427000Y-79895020D01*
X126427000Y-78945610D01*
X126617630Y-78373720D01*
X126804374Y-78000232D01*
X127382375Y-77422232D01*
X127927338Y-77032972D01*
X128077886Y-77559890D01*
G36*
X148213172Y-77918629D02*
X148898945Y-78702369D01*
X149284895Y-79281294D01*
X149475895Y-79854296D01*
X149571710Y-80525000D01*
X149475202Y-81200559D01*
X149382127Y-81572857D01*
X149208419Y-81833419D01*
X148961548Y-81998000D01*
X148612577Y-81998000D01*
X148146478Y-81904780D01*
X147678749Y-81624142D01*
X147297232Y-81242626D01*
X146811702Y-80562884D01*
X146320081Y-79382993D01*
X146158186Y-78816362D01*
X146430802Y-78748208D01*
X146447167Y-78742917D01*
X146947167Y-78542917D01*
X146965341Y-78533902D01*
X147465341Y-78233902D01*
X147489803Y-78214803D01*
X147889803Y-77814803D01*
X147913592Y-77781796D01*
X147945538Y-77717904D01*
X148213172Y-77918629D01*
X148213172Y-77918629D01*
G37*
X148213172Y-77918629D02*
X148898945Y-78702369D01*
X149284895Y-79281294D01*
X149475895Y-79854296D01*
X149571710Y-80525000D01*
X149475202Y-81200559D01*
X149382127Y-81572857D01*
X149208419Y-81833419D01*
X148961548Y-81998000D01*
X148612577Y-81998000D01*
X148146478Y-81904780D01*
X147678749Y-81624142D01*
X147297232Y-81242626D01*
X146811702Y-80562884D01*
X146320081Y-79382993D01*
X146158186Y-78816362D01*
X146430802Y-78748208D01*
X146447167Y-78742917D01*
X146947167Y-78542917D01*
X146965341Y-78533902D01*
X147465341Y-78233902D01*
X147489803Y-78214803D01*
X147889803Y-77814803D01*
X147913592Y-77781796D01*
X147945538Y-77717904D01*
X148213172Y-77918629D01*
G36*
X131864188Y-97243794D02*
X131332458Y-100506686D01*
X130754487Y-100973509D01*
X128623763Y-100997722D01*
X128621330Y-100996748D01*
X129287194Y-100552839D01*
X130397240Y-100576970D01*
X130400000Y-100577000D01*
X130550000Y-100577000D01*
X130620447Y-100555670D01*
X130845447Y-100405670D01*
X130880523Y-100370668D01*
X130900536Y-100319226D01*
X131325536Y-97544226D01*
X131323338Y-97494722D01*
X131295577Y-97441370D01*
X131120577Y-97241370D01*
X131081298Y-97211160D01*
X131025000Y-97198000D01*
X129750000Y-97198000D01*
X129701399Y-97207667D01*
X129660197Y-97235197D01*
X129632667Y-97276399D01*
X129624620Y-97304777D01*
X129133444Y-100350069D01*
X128601685Y-100704575D01*
X129281752Y-96850860D01*
X131447961Y-96827567D01*
X131864188Y-97243794D01*
X131864188Y-97243794D01*
G37*
X131864188Y-97243794D02*
X131332458Y-100506686D01*
X130754487Y-100973509D01*
X128623763Y-100997722D01*
X128621330Y-100996748D01*
X129287194Y-100552839D01*
X130397240Y-100576970D01*
X130400000Y-100577000D01*
X130550000Y-100577000D01*
X130620447Y-100555670D01*
X130845447Y-100405670D01*
X130880523Y-100370668D01*
X130900536Y-100319226D01*
X131325536Y-97544226D01*
X131323338Y-97494722D01*
X131295577Y-97441370D01*
X131120577Y-97241370D01*
X131081298Y-97211160D01*
X131025000Y-97198000D01*
X129750000Y-97198000D01*
X129701399Y-97207667D01*
X129660197Y-97235197D01*
X129632667Y-97276399D01*
X129624620Y-97304777D01*
X129133444Y-100350069D01*
X128601685Y-100704575D01*
X129281752Y-96850860D01*
X131447961Y-96827567D01*
X131864188Y-97243794D01*
G36*
X128858882Y-100736754D02*
X128780508Y-100998000D01*
X128624459Y-100998000D01*
X128566998Y-100975015D01*
X128557698Y-100956416D01*
X128603446Y-100712427D01*
X128858882Y-100736754D01*
X128858882Y-100736754D01*
G37*
X128858882Y-100736754D02*
X128780508Y-100998000D01*
X128624459Y-100998000D01*
X128566998Y-100975015D01*
X128557698Y-100956416D01*
X128603446Y-100712427D01*
X128858882Y-100736754D01*
G36*
X135694086Y-96848692D02*
X135712136Y-96866742D01*
X135658007Y-97137387D01*
X135615131Y-97180263D01*
X135490971Y-97198000D01*
X133550000Y-97198000D01*
X133501399Y-97207667D01*
X133460197Y-97235197D01*
X133432667Y-97276399D01*
X133424755Y-97303959D01*
X132899755Y-100428959D01*
X132901237Y-100478490D01*
X132921560Y-100523683D01*
X132957631Y-100557659D01*
X133023393Y-100576990D01*
X134988692Y-100601867D01*
X135078930Y-100616907D01*
X135089879Y-100631506D01*
X135032416Y-100937978D01*
X135003630Y-100966764D01*
X134925541Y-100998000D01*
X132537577Y-100998000D01*
X132449541Y-100980393D01*
X132405914Y-100951308D01*
X132368581Y-100913975D01*
X132353718Y-100824796D01*
X132973091Y-97034232D01*
X133008236Y-96946370D01*
X133078749Y-96875857D01*
X133160178Y-96827000D01*
X135661548Y-96827000D01*
X135694086Y-96848692D01*
X135694086Y-96848692D01*
G37*
X135694086Y-96848692D02*
X135712136Y-96866742D01*
X135658007Y-97137387D01*
X135615131Y-97180263D01*
X135490971Y-97198000D01*
X133550000Y-97198000D01*
X133501399Y-97207667D01*
X133460197Y-97235197D01*
X133432667Y-97276399D01*
X133424755Y-97303959D01*
X132899755Y-100428959D01*
X132901237Y-100478490D01*
X132921560Y-100523683D01*
X132957631Y-100557659D01*
X133023393Y-100576990D01*
X134988692Y-100601867D01*
X135078930Y-100616907D01*
X135089879Y-100631506D01*
X135032416Y-100937978D01*
X135003630Y-100966764D01*
X134925541Y-100998000D01*
X132537577Y-100998000D01*
X132449541Y-100980393D01*
X132405914Y-100951308D01*
X132368581Y-100913975D01*
X132353718Y-100824796D01*
X132973091Y-97034232D01*
X133008236Y-96946370D01*
X133078749Y-96875857D01*
X133160178Y-96827000D01*
X135661548Y-96827000D01*
X135694086Y-96848692D01*
G36*
X139378630Y-96858236D02*
X139436927Y-96916533D01*
X139469943Y-97032089D01*
X138828836Y-100780095D01*
X138782433Y-100857433D01*
X138589822Y-100973000D01*
X136242333Y-100973000D01*
X136183424Y-100928818D01*
X136127000Y-100872394D01*
X136127000Y-100785925D01*
X136431209Y-99030874D01*
X136878978Y-99046866D01*
X136674317Y-100456756D01*
X136676903Y-100506241D01*
X136698228Y-100550970D01*
X136735048Y-100584134D01*
X136800000Y-100602000D01*
X138250000Y-100602000D01*
X138298601Y-100592333D01*
X138339803Y-100564803D01*
X138367333Y-100523601D01*
X138375405Y-100495065D01*
X138575277Y-99245865D01*
X138900134Y-97371690D01*
X138898909Y-97322152D01*
X138878820Y-97276854D01*
X138842926Y-97242692D01*
X138777228Y-97223020D01*
X137353290Y-97198039D01*
X136738655Y-97177551D01*
X136749308Y-97060363D01*
X136804374Y-96950232D01*
X136914930Y-96839676D01*
X136965634Y-96827000D01*
X139300540Y-96827000D01*
X139378630Y-96858236D01*
X139378630Y-96858236D01*
G37*
X139378630Y-96858236D02*
X139436927Y-96916533D01*
X139469943Y-97032089D01*
X138828836Y-100780095D01*
X138782433Y-100857433D01*
X138589822Y-100973000D01*
X136242333Y-100973000D01*
X136183424Y-100928818D01*
X136127000Y-100872394D01*
X136127000Y-100785925D01*
X136431209Y-99030874D01*
X136878978Y-99046866D01*
X136674317Y-100456756D01*
X136676903Y-100506241D01*
X136698228Y-100550970D01*
X136735048Y-100584134D01*
X136800000Y-100602000D01*
X138250000Y-100602000D01*
X138298601Y-100592333D01*
X138339803Y-100564803D01*
X138367333Y-100523601D01*
X138375405Y-100495065D01*
X138575277Y-99245865D01*
X138900134Y-97371690D01*
X138898909Y-97322152D01*
X138878820Y-97276854D01*
X138842926Y-97242692D01*
X138777228Y-97223020D01*
X137353290Y-97198039D01*
X136738655Y-97177551D01*
X136749308Y-97060363D01*
X136804374Y-96950232D01*
X136914930Y-96839676D01*
X136965634Y-96827000D01*
X139300540Y-96827000D01*
X139378630Y-96858236D01*
G36*
X136999502Y-98555526D02*
X137001603Y-98605035D01*
X137022489Y-98649970D01*
X137058982Y-98683493D01*
X137122952Y-98701983D01*
X138532124Y-98724712D01*
X138487475Y-99096782D01*
X136423191Y-99074586D01*
X136708656Y-97252000D01*
X137201773Y-97252000D01*
X136999502Y-98555526D01*
X136999502Y-98555526D01*
G37*
X136999502Y-98555526D02*
X137001603Y-98605035D01*
X137022489Y-98649970D01*
X137058982Y-98683493D01*
X137122952Y-98701983D01*
X138532124Y-98724712D01*
X138487475Y-99096782D01*
X136423191Y-99074586D01*
X136708656Y-97252000D01*
X137201773Y-97252000D01*
X136999502Y-98555526D01*
G36*
X143118706Y-96840105D02*
X143223141Y-96909728D01*
X143268669Y-97015961D01*
X142653621Y-100755455D01*
X142603897Y-100838327D01*
X142529044Y-100894467D01*
X142432645Y-100952306D01*
X142267096Y-100973000D01*
X140160511Y-100973000D01*
X140025880Y-100950562D01*
X139974546Y-100937728D01*
X139946123Y-100899830D01*
X139928063Y-100773410D01*
X139975665Y-100368790D01*
X140055991Y-99927000D01*
X140552799Y-99927000D01*
X140474371Y-100456388D01*
X140476812Y-100505881D01*
X140498007Y-100550673D01*
X140534729Y-100583944D01*
X140600000Y-100602000D01*
X142050000Y-100602000D01*
X142098601Y-100592333D01*
X142139803Y-100564803D01*
X142167333Y-100523601D01*
X142175272Y-100495879D01*
X142700272Y-97345879D01*
X142698726Y-97296350D01*
X142678344Y-97251183D01*
X142642229Y-97217254D01*
X142575000Y-97198000D01*
X140520057Y-97198000D01*
X140548082Y-96987816D01*
X140585056Y-96913868D01*
X140618603Y-96863548D01*
X140678154Y-96818885D01*
X140762577Y-96802000D01*
X143004390Y-96802000D01*
X143118706Y-96840105D01*
X143118706Y-96840105D01*
G37*
X143118706Y-96840105D02*
X143223141Y-96909728D01*
X143268669Y-97015961D01*
X142653621Y-100755455D01*
X142603897Y-100838327D01*
X142529044Y-100894467D01*
X142432645Y-100952306D01*
X142267096Y-100973000D01*
X140160511Y-100973000D01*
X140025880Y-100950562D01*
X139974546Y-100937728D01*
X139946123Y-100899830D01*
X139928063Y-100773410D01*
X139975665Y-100368790D01*
X140055991Y-99927000D01*
X140552799Y-99927000D01*
X140474371Y-100456388D01*
X140476812Y-100505881D01*
X140498007Y-100550673D01*
X140534729Y-100583944D01*
X140600000Y-100602000D01*
X142050000Y-100602000D01*
X142098601Y-100592333D01*
X142139803Y-100564803D01*
X142167333Y-100523601D01*
X142175272Y-100495879D01*
X142700272Y-97345879D01*
X142698726Y-97296350D01*
X142678344Y-97251183D01*
X142642229Y-97217254D01*
X142575000Y-97198000D01*
X140520057Y-97198000D01*
X140548082Y-96987816D01*
X140585056Y-96913868D01*
X140618603Y-96863548D01*
X140678154Y-96818885D01*
X140762577Y-96802000D01*
X143004390Y-96802000D01*
X143118706Y-96840105D01*
G36*
X140674530Y-99180348D02*
X140676560Y-99229859D01*
X140697383Y-99274825D01*
X140733829Y-99308399D01*
X140780348Y-99325470D01*
X140829859Y-99323440D01*
X140876637Y-99301271D01*
X142510843Y-98064575D01*
X142500845Y-98284521D01*
X140623589Y-99698558D01*
X140590586Y-99735521D01*
X140574728Y-99779121D01*
X140543021Y-99969363D01*
X140049504Y-99952912D01*
X140507286Y-97252000D01*
X140976560Y-97252000D01*
X140674530Y-99180348D01*
X140674530Y-99180348D01*
G37*
X140674530Y-99180348D02*
X140676560Y-99229859D01*
X140697383Y-99274825D01*
X140733829Y-99308399D01*
X140780348Y-99325470D01*
X140829859Y-99323440D01*
X140876637Y-99301271D01*
X142510843Y-98064575D01*
X142500845Y-98284521D01*
X140623589Y-99698558D01*
X140590586Y-99735521D01*
X140574728Y-99779121D01*
X140543021Y-99969363D01*
X140049504Y-99952912D01*
X140507286Y-97252000D01*
X140976560Y-97252000D01*
X140674530Y-99180348D01*
G36*
X145310070Y-96839676D02*
X145316277Y-96845883D01*
X145299288Y-96981794D01*
X144642199Y-100973000D01*
X144149919Y-100973000D01*
X144750272Y-97370879D01*
X144748726Y-97321350D01*
X144728344Y-97276183D01*
X144692229Y-97242254D01*
X144625000Y-97223000D01*
X144340634Y-97223000D01*
X144289930Y-97210324D01*
X144277000Y-97197394D01*
X144277000Y-97161449D01*
X144321705Y-96915569D01*
X144354374Y-96850232D01*
X144377606Y-96827000D01*
X145259366Y-96827000D01*
X145310070Y-96839676D01*
X145310070Y-96839676D01*
G37*
X145310070Y-96839676D02*
X145316277Y-96845883D01*
X145299288Y-96981794D01*
X144642199Y-100973000D01*
X144149919Y-100973000D01*
X144750272Y-97370879D01*
X144748726Y-97321350D01*
X144728344Y-97276183D01*
X144692229Y-97242254D01*
X144625000Y-97223000D01*
X144340634Y-97223000D01*
X144289930Y-97210324D01*
X144277000Y-97197394D01*
X144277000Y-97161449D01*
X144321705Y-96915569D01*
X144354374Y-96850232D01*
X144377606Y-96827000D01*
X145259366Y-96827000D01*
X145310070Y-96839676D01*
M02*
